<svg xmlns="http://www.w3.org/2000/svg" viewBox="0 0 512 512"><path d="M240 303.8v8.2l-20.5-5c-1.7-5.3-3.8-10.2-6.3-15l11-18.2-33.9-33.9-18.2 11c-4.8-2.5-9.8-4.6-15-6.3l-5-20.5h-8v-55.8c27.5 4.2 61.3 7 96 7.7v96l-.1 31.8zm0 96v96c-34.7-.6-68.5-3.4-96-7.7V448h8l5-20.5c5.3-1.7 10.2-3.8 15-6.3l18.2 11 33.9-33.9-11-18.2c2.5-4.8 4.6-9.8 6.3-15l20.5-5v7.8l.1 31.9z" fill="#aab2bd"/><path d="M240 312v48l-20.5 5c-1.7 5.3-3.8 10.2-6.3 15l11 18.2-33.9 33.9-18.2-11c-4.8 2.5-9.8 4.6-15 6.3l-5 20.5h-48l-5-20.5c-5.3-1.7-10.2-3.8-15-6.3l-3.9 2.3v.1L66 432.1l-33.9-33.9 11-18.2c-2.5-4.8-4.6-9.8-6.3-15L16 360v-48l20.5-5c1.7-5.3 3.8-10.2 6.3-15l-11-18.2 33.9-33.9 18.2 11c4.8-2.5 9.8-4.6 15-6.3l5-20.5h48l5 20.5c5.3 1.7 10.2 3.8 15 6.3l18.2-11 33.9 33.9-11 18.2c2.5 4.8 4.6 9.8 6.3 15l20.7 5zm-48 24c0-35.4-28.6-64-64-64s-64 28.6-64 64 28.6 64 64 64 64-28.6 64-64z" fill="#ffc729"/><path d="M128 272c35.4 0 64 28.6 64 64s-28.6 64-64 64-64-28.6-64-64 28.6-64 64-64zm32 64a32 32 0 1 0-64 0 32 32 0 1 0 64 0zm-61 91.5l5 20.5h40v40.2c-38-5.9-64-14.6-64-24.2v-40.5l3.9-2.3c4.8 2.5 9.8 4.6 15.1 6.3zM432 400v64c0 17.7-87.6 32-176 32-5.4 0-10.6-.1-16-.2v-64l16 .2c88.4 0 176-14.3 176-32zm-176-96c88.4 0 176-14.3 176-32v64c0 6.3-11.3 12.2-29.9 17.2C369 362.1 312.6 368 256 368c-5.4 0-10.6-.1-16-.2v-64l16 .2zM144 168.2V224h-40c-15.9-4.7-24-10.2-24-16v-64c0 9.6 26 18.2 64 24.2zM432 144v64c0 6.3-11.3 12.2-29.9 17.2C369 234.1 312.6 240 256 240c-5.4 0-10.7-.1-16-.2v-64l16 .2c88.4 0 176-14.3 176-32z" fill="#ff9811"/><path d="M402.4 226.5c8.6 4.2 13.6 8.7 13.6 13.5 0 4.4-5.1 8.6-14 12.5C375.6 264 315.5 272 256 272c-5.4 0-10.6-.1-16-.2v-32l16 .2c56.6 0 113-5.9 146.1-14.8l.3 1.3zm0 128c8.6 4.2 13.6 8.7 13.6 13.5 0 4.4-5.1 8.6-14 12.5C375.6 392 315.5 400 256 400c-5.4 0-10.6-.1-16-.2v-32l16 .2c56.6 0 113-5.9 146.1-14.8l.3 1.3z" fill="#2ea2db"/><path d="M402.4 381.5C421 386.7 432 393.1 432 400c0 17.7-87.6 32-176 32-5.4 0-10.7-.1-16-.2v-32l16 .2c59.5 0 119.6-8 146-19.5l.4 1zm0-128C421 258.7 432 265.1 432 272c0 17.7-87.6 32-176 32-5.4 0-10.6-.1-16-.2v-32l16 .2c59.5 0 119.6-8 146-19.5l.4 1zM272 144h160c0 17.7-87.6 32-176 32-5.4 0-10.6-.1-16-.2-34.7-.6-68.5-3.4-96-7.7-38-5.9-64-14.6-64-24.2 0-17.7 87.6-32 176-32v16c0 8.9 7.2 16.1 16 16.1z" fill="#abffdb"/><path d="M256 112V32c0-8.8 7.2-16 16-16h208c8.8 0 16 7.2 16 16v96c0 8.8-7.2 16-16 16H272c-8.8 0-16-7.2-16-16v-16z" fill="#2ea2db"/><path d="M200 336c0-39.7-32.3-72-72-72s-72 32.3-72 72 32.3 72 72 72 72-32.3 72-72zm-128 0c0-30.9 25.1-56 56-56s56 25.1 56 56-25.1 56-56 56-56-25.1-56-56zm96 0c0-22.1-17.9-40-40-40s-40 17.9-40 40 17.9 40 40 40 40-17.9 40-40zm-64 0c0-13.2 10.8-24 24-24s24 10.8 24 24-10.8 24-24 24-24-10.8-24-24zm270.5-145.6l2.9 15.7c6.3-1.2 11.8-2.4 16.5-3.5l-3.9-15.5c-4.4 1.1-9.6 2.2-15.5 3.3zm-94.7 9.3l.5 16c36.1-1.1 63.9-4.3 80.9-6.8l-2.3-15.8c-16.6 2.4-43.8 5.5-79.1 6.6zm94.7 247.1l2.9 15.7c6.3-1.2 11.8-2.4 16.5-3.5l-3.9-15.5c-4.4 1-9.6 2.2-15.5 3.3zm-94.7 9.2l.5 16c28.6-.8 56.6-3.2 80.9-6.8l-2.3-15.8c-16.6 2.4-43.8 5.6-79.1 6.6zM480 8H272c-13.2 0-24 10.8-24 24v72.1c-41 .4-82.3 3.8-114.5 9.4C79 123.1 72 134.8 72 144v64c0 10.9 11.4 17.3 22.5 21.3l-2.2 9.1c-2.7 1-5.3 2.1-8 3.3l-19.7-11.9-42.8 42.8 11.9 19.7c-1.2 2.6-2.3 5.3-3.3 8L8 305.7v60.5l22.4 5.5c1 2.7 2.1 5.3 3.3 8l-11.9 19.7 42.8 42.8 7.4-4.5V464c0 9.2 7 20.9 61.5 30.5 34.3 6 79 9.5 122.5 9.5s88.2-3.5 122.5-9.5C433 484.9 440 473.2 440 464v-64c0-8.5-6.8-15.4-20.9-21.3 3.2-3.2 4.9-6.8 4.9-10.7 0-4.2-1.7-8.1-5.1-11.8 17.9-7 21.1-14.2 21.1-20.2v-64c0-8.5-6.8-15.4-20.9-21.3 3.2-3.2 4.9-6.8 4.9-10.7 0-4.2-1.7-8.1-5.1-11.8 17.9-7 21.1-14.2 21.1-20.2v-56h40c13.2 0 24-10.8 24-24V32c0-13.2-10.8-24-24-24zM248 120.1v7.9c0 13.2 10.8 24 24 24h133.6c-27.5 8.1-82.5 16-149.6 16-89.7 0-158.2-14.1-167.5-24 9-9.6 73.8-23.1 159.5-23.9zM158.3 456l5.5-22.4c2.7-1 5.3-2.1 8-3.3l19.7 11.9 40.5-40.6v85.9c-30.3-.9-57.6-3.2-80-6.4V456h6.3zM232 301.8l-6.4-1.6c-1-2.7-2.1-5.3-3.3-8l9.7-16v25.6zm0 93.9l-9.7-16c1.2-2.6 2.3-5.3 3.3-8l6.3-1.6v25.6zm0-125.4l-40.6-40.6-19.7 11.9c-2.6-1.2-5.3-2.3-8-3.3l-5.5-22.4H152v-38.7c24.2 3.3 51.9 5.5 80 6.3v86.8zM88 162.1c9.2 4.3 23.4 8.5 45.5 12.4.8.1 1.7.3 2.5.4V216h-30.8c-14.7-4.5-17.3-8.5-17.2-8v-45.9zM41.9 397l10-16.6-2.1-4c-2.4-4.6-4.3-9.2-5.8-13.8l-1.4-4.3-18.6-4.6v-35.5l18.8-4.6 1.4-4.3c1.5-4.6 3.4-9.2 5.8-13.8l2.1-4-10-16.6 24.9-25 16.6 10 4-2.1c4.6-2.4 9.2-4.3 13.8-5.8l4.3-1.4 4.6-18.8h35.5l4.6 18.8 4.3 1.4c4.6 1.5 9.2 3.4 13.8 5.8l4 2.1 16.6-10 25.1 25.1-10 16.6 2.1 4c2.4 4.6 4.3 9.2 5.8 13.8l1.4 4.3 18.7 4.6v35.5l-18.8 4.6-1.4 4.3c-1.5 4.6-3.4 9.2-5.8 13.8l-2.1 4 10 16.6-25.1 25-16.6-10-4 2.1c-4.6 2.4-9.2 4.3-13.8 5.8l-4.3 1.4-4.6 18.8h-35.5l-4.6-18.8-4.3-1.4c-4.6-1.5-9.2-3.4-13.8-5.8l-4-2.1-16.6 10-25-25.1zM88 463.4v-31.5l4.2 1.8 5.5 22.4H136v22.7c-27.2-4.9-44.7-10.7-48-15.4zM256 488c-2.7 0-5.3-.1-8-.1v-48l8 .1c43.5 0 88.2-3.5 122.5-9.5 22.1-3.9 36.3-8.1 45.5-12.4v45.3c-6.9 9.9-76.3 24.6-168 24.6zm0-64c-2.7 0-5.3-.1-8-.1v-16l8 .1c34 0 107.5-3.8 145-18.6 16.9 4.8 21.6 9.2 22.7 10.3-8.3 9.9-77.2 24.3-167.7 24.3zm151.8-56.2c-6.4 8.8-66.7 24.2-151.8 24.2-2.7 0-5.3-.1-8-.1v-16l8 .1c43.5 0 88.2-3.5 122.5-9.5 8.1-1.4 15-2.9 21.2-4.4 5.6 2.8 7.6 4.9 8.1 5.7zM256 360c-2.7 0-5.3-.1-8-.1v-48l8 .1c43.5 0 88.2-3.5 122.5-9.5 22.1-3.9 36.3-8.1 45.5-12.4v45.3c-6.9 9.9-76.3 24.6-168 24.6zm0-64c-2.7 0-5.3-.1-8-.1v-16l8 .1c34 0 107.5-3.8 145-18.6 16.9 4.9 21.6 9.2 22.7 10.3-8.3 9.9-77.2 24.3-167.7 24.3zm151.8-56.2c-6.4 8.8-66.7 24.2-151.8 24.2-2.7 0-5.3-.1-8-.1v-16l8 .1c43.5 0 88.2-3.5 122.5-9.5 8.1-1.4 15-2.9 21.2-4.4 5.6 2.8 7.6 4.9 8.1 5.7zM256 232c-2.7 0-5.3-.1-8-.1v-48l8 .1c43.5 0 88.2-3.5 122.5-9.5 22.1-3.9 36.3-8.1 45.5-12.4v45.3c-6.9 9.9-76.3 24.6-168 24.6zm232-104c0 4.4-3.6 8-8 8H272c-4.4 0-8-3.6-8-8V32c0-4.4 3.6-8 8-8h208c4.4 0 8 3.6 8 8v96zM280 40h16v16h-16V40zm32 0h160v16H312V40zm-32 32h192v16H280V72zm0 32h128v16H280v-16zm144 0h16v16h-16v-16zm32 0h16v16h-16v-16z" fill="#403e3e"/></svg>