<svg xmlns="http://www.w3.org/2000/svg" viewBox="0 0 512 512"><path d="M144 80v32H56c-4.4 0-8 3.6-8 8v248a31.97 31.97 0 0 1-32-32V112a31.97 31.97 0 0 1 32-32h96zm320 288V120c0-4.4-3.6-8-8-8h-88V80h96a31.97 31.97 0 0 1 32 32v224a31.97 31.97 0 0 1-32 32z" fill="#ccd1d9"/><path d="M368 315.6a88.86 88.86 0 0 0-32-21.6V56c0-4.4-3.6-8-8-8H184c-4.4 0-8 3.6-8 8v265.9c-12.2 2.7-23.1 8.6-32 16.5V48a31.97 31.97 0 0 1 32-32h160a31.97 31.97 0 0 1 32 32v267.6z" fill="#969faa"/><path d="M56 112c-4.4 0-8 3.6-8 8v248h99.3L144 112H56zm400 0h-88v259.6l96-3.6V120c0-4.4-3.6-8-8-8z" fill="#ffc850"/><path d="M328 48H184c-4.4 0-8 3.6-8 8v265.9l160 4.2V56c0-4.4-3.6-8-8-8z" fill="#40c8dc"/><path d="M228.9 330.2c15.4-25.3 43.3-42.2 75.1-42.2 11.3 0 22.1 2.2 32 6a88.86 88.86 0 0 1 32 21.6c13.2 13.9 21.8 32.2 23.6 52.4.2 2.6.4 5.3.4 8s-.2 5.4-.3 8h.3c31 0 56 25 56 56s-25 56-56 56H120c-31 0-56-25-56-56s25-56 56-56h.4c.6-5.5 1.8-10.9 3.8-16 4-11.5 10.9-21.7 19.8-29.7 8.9-7.9 19.8-13.8 32-16.5 5.1-1.2 10.5-1.8 16-1.8 13.5 0 26.1 3.7 36.9 10.2z" fill="#e6e9ed"/><path d="M296 72h16v16h-16V72zm-32 0h16v16h-16V72zm-64 64h16v16h-16v-16zm32 0h16v16h-16v-16zm64 64h16v16h-16v-16zm-32 0h16v16h-16v-16zm-64 64h16v16h-16v-16zm32 0h16v16h-16v-16zM72 136h16v16H72v-16zm32 0h16v16h-16v-16zM72 264h16v16H72v-16zm32 0h16v16h-16v-16zM464 72h-88V48c0-22.1-17.9-40-40-40H176c-22.1 0-40 17.9-40 40v24H48C25.9 72 8 89.9 8 112v224c0 22.1 17.9 40 40 40h65.6v.3C81.3 379.6 56 406.9 56 440c0 35.3 28.7 64 64 64h272c35.3 0 64-28.7 64-64 0-32.6-24.5-59.5-56-63.4v-.6h64c22.1 0 40-17.9 40-40V112c0-22.1-17.9-40-40-40zm-8 160h-80v-48h80v48zm0 16v48h-80v-48h80zm0-80h-80v-48h80v48zM176 24h160c13.2 0 24 10.8 24 24v250.2c-5-3.6-10.3-6.7-16-9.3V56c0-8.8-7.2-16-16-16H184c-8.8 0-16 7.2-16 16v259.7c-5.6 1.8-11 4.1-16 7V48c0-13.2 10.8-24 24-24zm50.3 295.9c-10.7-5.1-22.3-7.9-34.3-7.9-2.7 0-5.4.2-8 .4V248h144v35.2c-7.7-2-15.7-3.2-24-3.2-32 0-60.3 15.8-77.7 39.9zM328 104H184V56h144v48zm-144 16h144v48H184v-48zm0 64h144v48H184v-48zm-48-16H56v-48h80v48zm-80 16h80v48H56v-48zm0 64h80v48H56v-48zm-32 88V112c0-13.2 10.8-24 24-24h88v16H56c-8.8 0-16 7.2-16 16v238.5c-9.3-3.3-16-12.1-16-22.5zm32 24v-48h80v22.9a78.25 78.25 0 0 0-17.3 25.1H56zm384 80c0 26.5-21.5 48-48 48H120c-26.5 0-48-21.5-48-48s21.5-48 48-48 48 21.5 48 48h16c0-31.9-23.5-58.4-54.1-63.2 6.8-28.3 32.2-48.8 62.1-48.8 9 0 17.9 1.9 26 5.6a94.55 94.55 0 0 0-10 42.4h16c0-44.1 35.9-80 80-80s80 35.9 80 80v.6c-31.5 4-56 30.9-56 63.4h16c0-26.5 21.5-48 48-48s48 21.5 48 48zm-41.4-80a95.03 95.03 0 0 0-22.6-47.3v-.7h80v48h-57.4zm89.4-24c0 10.4-6.7 19.2-16 22.5V120c0-8.8-7.2-16-16-16h-80V88h88c13.2 0 24 10.8 24 24v224zm-64-200h16v16h-16v-16zm-32 0h16v16h-16v-16zm32 128h16v16h-16v-16zm-32 0h16v16h-16v-16zm-40.5 105.1l15.8-2.3c-4.5-31.3-31.7-54.9-63.3-54.9-6.2 0-12.4.9-18.3 2.6l4.6 15.3c4.4-1.3 9.1-2 13.7-2 23.7.2 44.2 17.9 47.5 41.3zM120 456h16v16h-16v-16zm32 0h16v16h-16v-16zm32 0h16v16h-16v-16z" fill="#403e3e"/></svg>