<svg xmlns="http://www.w3.org/2000/svg" xmlns:xlink="http://www.w3.org/1999/xlink" viewBox="0 0 512 512"><path d="M348.8 480H163.2c-7.5 0-10.7-9.5-4.8-14.1 14.5-11 24.1-24.8 30.3-38.1 11.4-24.1 11.8-46.3 11.8-46.3h111s.4 22.2 11.8 46.3c6.2 13.2 15.7 27 30.3 38.1 5.9 4.6 2.7 14.1-4.8 14.1z" fill="#40c8dc"/><path d="M319.3 418.5c-7.5-20.2-7.8-36.9-7.8-36.9h-111s-.3 16.7-7.8 36.9h126.6z" fill="#3e8cc7"/><path d="M504.5 69.3v269H7.5v-269C7.5 49 24 32.5 44.3 32.5h423.4c20.3 0 36.8 16.5 36.8 36.8z" fill="#fff"/><path d="M7.5,311.7h497v26.6H7.5V311.7z" fill="#e4eaf8"/><path d="M488.2 400.5H23.8c-9 0-16.3-7.3-16.3-16.3v-52.6h497v52.6c0 9-7.3 16.3-16.3 16.3z" fill="#40c8dc"/><path d="M267.2 366.1c0 6.2-5 11.2-11.2 11.2s-11.2-5-11.2-11.2 5-11.2 11.2-11.2 11.2 5 11.2 11.2z" fill="#fff"/><path d="M68.3 81h281.6v36H68.3V81zm82.6 175.2h281.6v26.2H150.9v-26.2z" fill="#ffc850"/><path d="M467.7 25h-138c-4.1 0-7.5 3.4-7.5 7.5s3.4 7.5 7.5 7.5h138c16.2 0 29.3 13.2 29.3 29.3v314.9c0 4.8-3.9 8.8-8.8 8.8H435c-4.1 0-7.5 3.4-7.5 7.5s3.4 7.5 7.5 7.5h53.2c13.1 0 23.8-10.7 23.8-23.8V69.3c0-24.4-19.9-44.3-44.3-44.3zm-63.3 368H23.8c-4.8 0-8.8-3.9-8.8-8.8V69.3C15 53.2 28.2 40 44.3 40H299c4.1 0 7.5-3.4 7.5-7.5S303.2 25 299 25H44.3C19.9 25 0 44.9 0 69.3v314.9C0 397.3 10.7 408 23.8 408h164.5c-4.9 16.7-14.8 37.1-34.4 52-5.3 4-7.4 10.7-5.3 17.1 2.1 6.3 7.8 10.4 14.5 10.4h185.5c6.7 0 12.4-4.1 14.5-10.4s.1-13-5.3-17.1c-19.6-14.9-29.4-35.3-34.4-52h80.7c4.1 0 7.5-3.4 7.5-7.5.3-4.2-3.1-7.5-7.2-7.5zM349 471.9l.1.1c0 .1-.1.4-.1.4H163a.76.76 0 0 1-.2-.4s0-.1.1-.1c24.5-18.6 35.7-44.2 40.9-63.9h104.3c5.2 19.6 16.4 45.3 40.9 63.9z" fill="#403e3e"/><g fill="#abb0b7"><path d="M379.5 73.5c-4.1 0-7.5 3.4-7.5 7.5v36c0 4.1 3.4 7.5 7.5 7.5s7.5-3.4 7.5-7.5V81c0-4.1-3.4-7.5-7.5-7.5zm34 43.5V81c0-4.1-3.4-7.5-7.5-7.5s-7.5 3.4-7.5 7.5v36c0 4.1 3.4 7.5 7.5 7.5s7.5-3.4 7.5-7.5zm26.5 0V81c0-4.1-3.4-7.5-7.5-7.5S425 76.9 425 81v36c0 4.1 3.4 7.5 7.5 7.5 4.2 0 7.5-3.4 7.5-7.5zM121.3 248.7c-4.1 0-7.5 3.4-7.5 7.5v26.2c0 4.1 3.4 7.5 7.5 7.5s7.5-3.4 7.5-7.5v-26.2c0-4.1-3.3-7.5-7.5-7.5z"/><use xlink:href="#B"/><use xlink:href="#B" x="-26.5"/><path d="M177.8 220.2c.7.2 1.4.3 2.2.3 3.2 0 6.2-2.1 7.2-5.3 5-16.7 10.6-32.7 16.5-49.5l1.1-3.2c1.4-3.9-.7-8.2-4.6-9.6s-8.2.7-9.6 4.6l-1.1 3.2-16.7 50.1c-1.2 4 1 8.2 5 9.4zm-40.5-33.1c3.2 9 6.5 18.4 9.1 27.5 1.9 6.8 11.7 7.4 14.3.7 2.8-7.4 5-14.4 7.1-21.2 1.9-6.1 3.7-11.9 6-18 1.4-3.9-.6-8.2-4.5-9.6s-8.2.6-9.6 4.5c-2.2 6.1-4.1 12-5.9 17.7l-2.4-6.7-8.2-24.4c-1.2-4-5.4-6.2-9.4-5s-6.2 5.4-5 9.4c2.7 8.5 5.7 16.9 8.5 25.1 3.2 9-2.8-8.2 0 0zm129.6 33.1a8.33 8.33 0 0 0 2.2.3c3.2 0 6.2-2.1 7.2-5.3 5-16.7 10.6-32.7 16.5-49.5l1.1-3.2c1.4-3.9-.7-8.2-4.6-9.6s-8.2.7-9.6 4.6l-1.1 3.2-16.7 50.1c-1.2 4 1 8.2 5 9.4zm-8.4-53.7c-3.9-1.4-8.2.6-9.6 4.5-2.2 6.1-4.1 12-5.9 17.7l-2.4-6.7-8.2-24.4c-1.2-4-5.4-6.2-9.4-5s-6.2 5.4-5 9.4c2.6 8.5 5.6 16.9 8.4 25 3.2 9 6.5 18.4 9.1 27.5 1.9 6.8 11.7 7.4 14.3.7 2.8-7.4 5-14.4 7.1-21.2l5.9-18c1.6-3.7-.4-8-4.3-9.5-3.9-1.4 3.9 1.5 0 0zm110.3-9l-1.1 3.2-16.7 50.1c-1.2 4 1.1 8.2 5 9.3.7.2 1.4.3 2.2.3 3.2 0 6.2-2.1 7.2-5.3 5-16.7 10.6-32.7 16.5-49.5l1.1-3.2c1.4-3.9-.7-8.2-4.6-9.6-3.9-1.3-8.2.8-9.6 4.7zm-37.4 62.6c3.3 0 6.3-1.6 7.5-4.8 2.8-7.4 5-14.4 7.1-21.2 1.9-6.1 3.7-11.9 6-18 1.4-3.9-.6-8.2-4.5-9.6s-8.2.6-9.6 4.5c-2.2 6.1-4.1 12-5.9 17.7l-2.4-6.7-8.2-24.4c-1.2-4-5.4-6.2-9.4-5s-6.2 5.4-5 9.4c2.6 8.5 5.6 16.9 8.4 25 3.2 9 6.5 18.4 9.1 27.5 1.1 3.2 3.7 5.4 6.9 5.6 0 0-1.5-.1 0 0z"/></g><defs ><path id="B" d="M87.3 256.2v26.2c0 4.1 3.4 7.5 7.5 7.5s7.5-3.4 7.5-7.5v-26.2c0-4.1-3.4-7.5-7.5-7.5-4.2 0-7.5 3.4-7.5 7.5z"/></defs></svg>