<svg xmlns="http://www.w3.org/2000/svg" xmlns:xlink="http://www.w3.org/1999/xlink" viewBox="0 0 512 512"><style><![CDATA[.E{clip-path:url(#B)}]]></style><defs><path id="A" d="M472 423.7H40c-22 0-40-18-40-40V128.3c0-22 18-40 40-40h432c22 0 40 18 40 40v255.4c0 22-18 40-40 40z"/></defs><clipPath id="B"><use xlink:href="#A" opacity=".56"/></clipPath><path d="M-5.1 82H517v118.7H-5.1V82z" fill="#ff9800" class="E"/><path d="M-5.1 200.7H517v118.7H-5.1V200.7z" fill="#f5f5f5" class="E"/><path d="M-5.1 319.3H517V438H-5.1V319.3z" fill="#388e3c" class="E"/><g fill="#008"><path d="M256 213.6c-25.6 0-46.4 20.8-46.4 46.4s20.8 46.4 46.4 46.4 46.4-20.8 46.4-46.4-20.8-46.4-46.4-46.4zm0 87c-22.4 0-40.6-18.2-40.6-40.6s18.2-40.6 40.6-40.6 40.6 18.2 40.6 40.6-18.2 40.6-40.6 40.6zm0-48.7c-4.5 0-8.1 3.6-8.1 8.1s3.6 8.1 8.1 8.1 8.1-3.6 8.1-8.1-3.6-8.1-8.1-8.1z" class="E"/><path d="M294.2 265c-.1 1.1.6 2.1 1.8 2.3 1.1.1 2.1-.6 2.3-1.8s-.6-2.1-1.7-2.3c-1.2-.1-2.2.7-2.4 1.8zM256 300.6l1.4-24.4-1.4-11.6-1.4 11.6 1.4 24.4zm35.6-25.8c-.4 1 0 2.2 1.1 2.6 1 .4 2.2-.1 2.6-1.1s0-2.2-1.1-2.6c-.9-.4-2.1 0-2.6 1.1zm-46.1 24.4l7.6-23.2 1.7-11.5-4.4 10.8-4.9 23.9zm41.1-15.7c-.6.9-.5 2.2.4 2.9.9.6 2.2.5 2.9-.4s.5-2.2-.4-2.9-2.2-.5-2.9.4zm-50.9 11.7l13.4-20.4 4.6-10.7-7 9.4-11 21.7zm43.8-4.6c-.9.7-1.1 1.9-.4 2.8.6.9 1.9 1.1 2.8.4.9-.6 1.1-1.9.4-2.8s-1.9-1.1-2.8-.4zm-52.2-1.9l18.2-16.3 7.2-9.2-9.2 7.2-16.2 18.3zm43.5 6.9c-1.1.4-1.5 1.6-1.1 2.6s1.6 1.5 2.6 1.1c1.1-.4 1.5-1.6 1.1-2.6s-1.6-1.5-2.6-1.1zm-50-15.3l21.8-11 9.4-7-10.7 4.6-20.5 13.4zm40.3 17.9c-1.1.1-1.9 1.2-1.8 2.3s1.2 1.9 2.3 1.8 1.9-1.2 1.8-2.3c-.2-1.1-1.2-1.9-2.3-1.8zm-44.3-27.7l23.9-5 10.8-4.4-11.5 1.7-23.2 7.7zm31.9 29.5c-.1 1.1.6 2.1 1.8 2.3s2.1-.6 2.3-1.8c.1-1.1-.6-2.1-1.8-2.3-1.1-.1-2.1.7-2.3 1.8zm-33.3-40l24.4 1.4 11.6-1.4-11.6-1.4-24.4 1.4zm23.2 36.8c-.5 1 0 2.2 1.1 2.6s2.2 0 2.6-1.1c.5-1 0-2.2-1.1-2.6-1-.5-2.2 0-2.6 1.1zm-21.8-47.3l23.2 7.6 11.5 1.7-10.8-4.4-23.9-4.9z" class="E"/><path d="M229.7 291c-.6.9-.5 2.1.4 2.8s2.2.5 2.9-.4c.6-.9.5-2.2-.4-2.8-1-.7-2.2-.5-2.9.4zm-8.9-51.3l20.4 13.4 10.7 4.6-9.4-7-21.7-11zm1.7 43.4c-.9.7-1 2-.4 2.9.7.9 2 1 2.9.4.9-.7 1.1-1.9.4-2.9-.7-.9-1.9-1.1-2.9-.4zm4.8-51.8l16.3 18.2 9.2 7.2-7.2-9.2-18.3-16.2zm-9.6 42.4c-1 .4-1.5 1.6-1.1 2.6.5 1 1.6 1.5 2.7 1.1 1-.4 1.5-1.6 1.1-2.6-.5-1.1-1.7-1.6-2.7-1.1zm18-48.9l11 21.8 7 9.4-4.6-10.7-13.4-20.5zm-20.2 38.5c-1.1.1-1.9 1.2-1.8 2.3s1.2 1.9 2.3 1.8 1.9-1.2 1.8-2.3c-.2-1.2-1.2-1.9-2.3-1.8zm30-42.5l5 23.9 4.4 10.8-1.7-11.5-7.7-23.2z" class="E"/><path d="M213.7 254.4c-.1 1.1.6 2.1 1.8 2.3 1.1.2 2.1-.6 2.3-1.7s-.6-2.1-1.8-2.3-2.1.6-2.3 1.7zm42.3-35l-1.4 24.4 1.4 11.6 1.4-11.6-1.4-24.4zm-39.4 24.3c-.4 1 0 2.2 1.1 2.6 1 .4 2.2 0 2.6-1.1.4-1 0-2.2-1.1-2.6-1-.4-2.2.1-2.6 1.1zm49.9-22.9l-7.6 23.2-1.7 11.5 4.4-10.8 4.9-23.9zM222.2 234c-.6.9-.5 2.1.4 2.8s2.2.5 2.9-.4c.6-.9.5-2.2-.4-2.8-1-.6-2.2-.5-2.9.4zm54.1-9.2l-13.4 20.4-4.6 10.7 7-9.4 11-21.7zm-46.3 1.4c-.9.7-1 1.9-.4 2.8.7.9 1.9 1.1 2.9.4.9-.6 1-1.9.4-2.8-.7-.9-2-1.1-2.9-.4zm54.7 5.1l-18.2 16.3-7.2 9.2 9.2-7.2 16.2-18.3zm-45-10.7c-1.1.5-1.5 1.6-1.1 2.7.4 1 1.6 1.5 2.6 1.1 1.1-.4 1.5-1.6 1.1-2.6-.4-1.1-1.6-1.6-2.6-1.2zm51.5 19.1l-21.8 11-9.4 7 10.7-4.6 20.5-13.4zm-40.8-22c-1.1.1-1.9 1.2-1.8 2.3s1.2 1.9 2.3 1.8 1.9-1.2 1.8-2.3-1.1-1.9-2.3-1.8zm44.8 31.8l-23.9 5-10.8 4.4 11.5-1.7 23.2-7.7zm-35.9-30c-.1 1.1.6 2.1 1.8 2.3 1.1.1 2.1-.6 2.3-1.7.1-1.1-.6-2.1-1.8-2.3-1.1-.2-2.2.6-2.3 1.7zm37.3 40.5l-24.4-1.4-11.6 1.4 11.6 1.4 24.4-1.4zm-26.9-38.3c-.5 1.1 0 2.2 1.1 2.6 1.1.5 2.2 0 2.6-1.1.5-1.1 0-2.2-1.1-2.6-1-.5-2.2 0-2.6 1.1zm25.5 48.8l-23.2-7.6-11.5-1.7 10.8 4.4 23.9 4.9zm-16.1-44c-.7.9-.5 2.2.4 2.8.9.7 2.1.5 2.8-.4s.5-2.1-.4-2.8c-.8-.6-2.1-.4-2.8.4zm12.1 53.8l-20.4-13.4-10.7-4.6 9.4 7 21.7 11zm-4.2-46.6c-.9.7-1 1.9-.4 2.8.7.9 1.9 1.1 2.9.4.9-.6 1-1.9.4-2.8-.8-.9-2-1.1-2.9-.4zm-2.3 55l-16.3-18.2-9.2-7.2 7.2 9.2 18.3 16.2zm8.1-46.1c-1.1.5-1.5 1.6-1.1 2.7.4 1 1.6 1.5 2.6 1.1s1.5-1.6 1.1-2.6c-.5-1.1-1.6-1.6-2.6-1.2zm-16.5 52.6l-11-21.8-7-9.4 4.6 10.7 13.4 20.5zm19.7-42.5c-1.1.1-1.9 1.2-1.8 2.3s1.2 1.9 2.3 1.8 1.9-1.2 1.8-2.3-1.2-2-2.3-1.8zm-29.5 46.5l-5-23.9-4.4-10.8 1.7 11.5 7.7 23.2z" class="E"/></g></svg>