<svg xmlns="http://www.w3.org/2000/svg" viewBox="0 0 480 480"><path d="M472 40v256H8V40c0-8.8 7.2-16 16-16h432c8.8 0 16 7.2 16 16z" fill="#78b9eb"/><path d="M472 40v256H72.4c139.4-51.8 258.4-147.2 339.3-272H456c8.8 0 16 7.2 16 16z" fill="#5aaae7"/><path d="M8,296v48c0,8.8,7.2,16,16,16h432c8.8,0,16-7.2,16-16v-48H8z" fill="#acabb1"/><path d="M312 424H168l8-64h128l8 64z" fill="#898890"/><path d="M152,424v32h176v-32H152z" fill="#787680"/><path d="M298.1 144.3l91.5 85.4a8.25 8.25 0 0 0 2.4-5.8V96c0-2.4-1.1-4.7-3-6.2l-90.9 54.5z" fill="#ffb655"/><path d="M263.8 155a16.25 16.25 0 0 0 16.5 0l108.8-65.3c-1.4-1.2-3.2-1.8-5-1.8H160c-1.8 0-3.6.6-5 1.8l91 54.6 17.8 10.7z" fill="#ffa733"/><path d="M155 89.8c-1.9 1.5-3 3.8-3 6.2v128c0 2.2.9 4.2 2.4 5.8l91.5-85.4L155 89.8z" fill="#ffb655"/><path d="M280.2,155c-5.1,3-11.4,3-16.5,0l-17.8-10.7l-91.5,85.4c1.5,1.4,3.5,2.2,5.6,2.2h224c2.1,0,4.1-0.8,5.6-2.2 l-91.5-85.4L280.2,155z" fill="#ff9811"/><path d="M306 376H174l2-16h128l2 16z" fill="#787680"/><path d="M456 16H24C10.7 16 0 26.7 0 40v304c0 13.3 10.7 24 24 24h142.9l-6 48H152c-4.4 0-8 3.6-8 8v24h-32v16h256v-16h-32v-24c0-4.4-3.6-8-8-8h-8.9l-6-48H456c13.3 0 24-10.7 24-24V40c0-13.3-10.7-24-24-24zM24 32h432c4.4 0 8 3.6 8 8v248H16V40c0-4.4 3.6-8 8-8zm296 416H160v-16h160v16zm-17.1-32H177.1l6-48H297l5.9 48zM456 352H24c-4.4 0-8-3.6-8-8v-40h448v40c0 4.4-3.6 8-8 8zm-56-32h32v16h-32v-16zM64 104h64v16H64v-16zm16 32h48v16H80v-16zm16 32h32v16H96v-16zm-48 0h32v16H48v-16zm16 32h64v16H64v-16zm-16-64h16v16H48v-16zm-16-32h16v16H32v-16zm0 96h16v16H32v-16zm128 40h224c4.3 0 8.3-1.7 11.3-4.7A16.06 16.06 0 0 0 400 224V96a16.06 16.06 0 0 0-16-16H160a16.06 16.06 0 0 0-16 16v128c.1 4.3 1.8 8.5 4.9 11.6 3 2.8 7 4.4 11.1 4.4zm99.6-78.1a23.83 23.83 0 0 0 24.7 0l12.7-7.6 74.7 69.7H172.3l74.7-69.7 12.6 7.6zm51.7-16.2l72.7-43.6v111.5l-72.7-67.9zm-35.2 2.5c-2.5 1.5-5.7 1.5-8.2 0l-87-52.2h182.2l-87 52.2zm-43.4-2.5L160 213.6V102.1l72.7 43.6z" fill="#403e3e"/></svg>