<svg xmlns="http://www.w3.org/2000/svg" xmlns:xlink="http://www.w3.org/1999/xlink" viewBox="0 0 512 512"><path d="M276.2 59.3C291.5 33.4 319.8 16 352 16c48.6 0 88 39.4 88 88 0 2.7-.2 5.4-.4 8h.4c31 0 56 25 56 56s-25 56-56 56H256v-16a31.97 31.97 0 0 0-32-32H112.6c-.4-2.6-.6-5.3-.6-8 0-31 25-56 56-56 2.7 0 5.4.2 8 .6v-.7c0-35.4 28.6-64 64-64a64.52 64.52 0 0 1 36.2 11.4z" fill="#e6e9ed"/><path d="M256 336v128a31.97 31.97 0 0 1-32 32H48a31.97 31.97 0 0 1-32-32V208a31.97 31.97 0 0 1 32-32h176a31.97 31.97 0 0 1 32 32v128z" fill="#898890"/><g fill="#40c8dc"><use xlink:href="#B"/><use xlink:href="#B" y="-192"/><use xlink:href="#B" y="-96"/></g><g fill="#ffc850"><use xlink:href="#C"/><use xlink:href="#C" y="80"/><use xlink:href="#C" y="160"/></g><path d="M336 416h144v32H336v-32zm0-80h144v32H336v-32z" fill="#abffdb"/><path d="M40 216v48c0 8.8 7.2 16 16 16h160c8.8 0 16-7.2 16-16v-48c0-8.8-7.2-16-16-16H56c-8.8 0-16 7.2-16 16zm16 0h160v48H56v-48zm48 16h16v16h-16v-16zm-32 0h16v16H72v-16zm112 0h16v16h-16v-16zm32 64H56c-8.8 0-16 7.2-16 16v48c0 8.8 7.2 16 16 16h160c8.8 0 16-7.2 16-16v-48c0-8.8-7.2-16-16-16zm0 64H56v-48h160v48zm-64-32h16v16h-16v-16zm32 0h16v16h-16v-16zm-112 0h16v16H72v-16zm144 64H56c-8.8 0-16 7.2-16 16v48c0 8.8 7.2 16 16 16h160c8.8 0 16-7.2 16-16v-48c0-8.8-7.2-16-16-16zM56 456v-48h160v48H56zm48-32h16v16h-16v-16zm-32 0h16v16H72v-16zm112 0h16v16h-16v-16zm296-144h-64v-48h24c35.3 0 64-28.7 64-64 0-32.5-24.3-59.4-56-63.4v-.6c0-52.9-43.1-96-96-96-31.1 0-60.2 15.4-78.1 40.5-10.1-5.4-21.7-8.5-33.9-8.5-37 0-67.6 28.1-71.5 64h-.5c-35.3 0-64 28.7-64 64H48c-22.1 0-40 17.9-40 40v256c0 22.1 17.9 40 40 40h176c22.1 0 40-17.9 40-40V344h8c13.2 0 24-10.8 24-24v-48c0-4.4 3.6-8 8-8h56c13.2 0 24-10.8 24-24s-10.8-24-24-24h-96v-8c0-22.1-17.9-40-40-40H120c0-26.5 21.5-48 48-48 21.4 0 40.3 14.3 46.2 34.8l15.4-4.4c-6.2-22-23.9-38.4-45.3-44.1C187.1 78.1 211 56 240 56c30.9 0 56 25.1 56 56h16c0-21.7-9.7-41.2-25-54.4C302 36.8 326.2 24 352 24c44.1 0 80 35.9 80 80 0 2.5-.2 4.9-.4 7.3l-.4 8.7h8.8c26.5 0 48 21.5 48 48s-21.5 48-48 48h-40v64h-64c-13.2 0-24 10.8-24 24v16c0 10.4 6.7 19.2 16 22.5v19c-9.3 3.3-16 12.1-16 22.5v16c0 10.4 6.7 19.2 16 22.5v19c-9.3 3.3-16 12.1-16 22.5v16c0 13.2 10.8 24 24 24h144c13.2 0 24-10.8 24-24v-16c0-10.4-6.7-19.2-16-22.5v-19c9.3-3.3 16-12.1 16-22.5v-16c0-10.4-6.7-19.2-16-22.5v-19c9.3-3.3 16-12.1 16-22.5v-16c0-13.2-10.8-24-24-24zm-120-48c4.4 0 8 3.6 8 8s-3.6 8-8 8h-56c-13.2 0-24 10.8-24 24v48c0 4.4-3.6 8-8 8h-8v-96h96zm-112-24v256c0 13.2-10.8 24-24 24H48c-13.2 0-24-10.8-24-24V208c0-13.2 10.8-24 24-24h176c13.2 0 24 10.8 24 24zm96 152v-16h128v16H344zm0 80v-16h128v16H344zm144 40c0 4.4-3.6 8-8 8H336c-4.4 0-8-3.6-8-8v-16c0-4.4 3.6-8 8-8h144c4.4 0 8 3.6 8 8v16zm0-80c0 4.4-3.6 8-8 8H336c-4.4 0-8-3.6-8-8v-16c0-4.4 3.6-8 8-8h144c4.4 0 8 3.6 8 8v16zm0-80c0 4.4-3.6 8-8 8H336c-4.4 0-8-3.6-8-8v-16c0-4.4 3.6-8 8-8h144c4.4 0 8 3.6 8 8v16zM344 200h96c17.6 0 32-14.4 32-32h-16c0 8.8-7.2 16-16 16h-96v16zm-32-16h16v16h-16v-16zm-32 0h16v16h-16v-16zm133.3-61.7c1.8-5.9 2.7-12.1 2.7-18.3 0-35.3-28.7-64-64-64v16c26.5 0 48 21.5 48 48 0 4.7-.7 9.3-2 13.7l15.3 4.6zM240 72v16c13.2 0 24 10.8 24 24h16c0-22.1-17.9-40-40-40z" fill="#403e3e"/><defs ><path id="B" d="M224 408v48c0 4.4-3.6 8-8 8H56c-4.4 0-8-3.6-8-8v-48c0-4.4 3.6-8 8-8h160c4.4 0 8 3.6 8 8z"/><path id="C" d="M496 304v16c0 8.8-7.2 16-16 16H336c-8.8 0-16-7.2-16-16v-16c0-8.8 7.2-16 16-16h144c8.8 0 16 7.2 16 16z"/></defs></svg>