<svg xmlns="http://www.w3.org/2000/svg" viewBox="0 0 395.7 395.7"><path d="M377.1 99.9H18.6c-6.8 0-12.3-5.6-12.3-12.3V20.8c0-6.8 5.6-12.3 12.3-12.3h358.5c6.8 0 12.3 5.6 12.3 12.3v66.8c0 6.7-5.5 12.3-12.3 12.3z" fill="#fff"/><path d="M30.9 33.1h236.2v42H30.9z" fill="#ffc850"/><path d="M322.7 54.2c0-11.8 9.2-21 21-21s21 9.2 21 21-9.2 21-21 21c-11.7 0-21-9.9-21-21z" fill="#2ea2db"/><path d="M377.1 219.8H18.6c-6.8 0-12.3-5.6-12.3-12.3v-67.4c0-6.8 5.6-12.3 12.3-12.3h358.5c6.8 0 12.3 5.6 12.3 12.3v66.8c0 7.3-5.5 12.9-12.3 12.9z" fill="#fff"/><path d="M30.9 152.4h236.2v42H30.9z" fill="#ffc850"/><path d="M322.7 173.4c0-11.8 9.2-21 21-21s21 9.2 21 21-9.2 21-21 21c-11.7.7-21-9.2-21-21z" fill="#2ea2db"/><path d="M377.1 339.1H18.6c-6.8 0-12.3-5.6-12.3-12.3V260c0-6.8 5.6-12.3 12.3-12.3h358.5c6.8 0 12.3 5.6 12.3 12.3v66.8c0 6.8-5.5 12.3-12.3 12.3z" fill="#fff"/><path d="M377.1 106.1c10.5 0 18.6-8 18.6-18.6V20.8c0-10.5-8-18.6-18.6-18.6H18.6C8 2.2 0 10.3 0 20.8v66.8c0 10.5 8 18.6 18.6 18.6h173.1v16.1H18.6C8 122.1 0 130.2 0 140.7v66.8C0 218 8 226 18.6 226h173.1v16.1H18.6C8 242.1 0 250.1 0 260.6v66.8C0 337.9 8 346 18.6 346h173.1v35.2H99.6v12.3h196.5v-12.3H204V346h173.1c10.5 0 18.6-8 18.6-18.6V260c0-10.5-8-18.6-18.6-18.6H204v-16.1h173.1c10.5 0 18.6-8 18.6-18.6V140c0-10.5-8-18.6-18.6-18.6H204v-16.1h173.1v.8zm0 147.7c3.7 0 6.2 2.5 6.2 6.2v66.8c0 3.7-2.5 6.2-6.2 6.2H18.6c-3.7 0-6.2-2.5-6.2-6.2V260c0-3.7 2.5-6.2 6.2-6.2h358.5zm0-119.9c3.7 0 6.2 2.5 6.2 6.2v66.8c0 3.7-2.5 6.2-6.2 6.2H18.6c-3.7 0-6.2-2.5-6.2-6.2v-66.8c0-3.7 2.5-6.2 6.2-6.2h358.5zM18.6 93.7c-3.7 0-6.2-2.5-6.2-6.2V20.8c0-3.7 2.5-6.2 6.2-6.2h358.5c3.7 0 6.2 2.5 6.2 6.2v66.8c0 3.7-2.5 6.2-6.2 6.2 0-.1-358.5-.1-358.5-.1z" fill="#403e3e"/><path d="M30.9 272.4h236.2v42H30.9z" fill="#ffc850"/><path d="M322.7 293.4c0-11.8 9.2-21 21-21s21 9.2 21 21-9.2 21-21 21c-11.7 0-21-9.3-21-21z" fill="#2ea2db"/><path d="M62.4 48h12.3v12.3H62.4zm40.2 0h12.3v12.3h-12.3zm40.2 0h12.3v12.3h-12.3zm40.1 0h12.3v12.3h-12.3zm40.3 0h12.3v12.3h-12.3zM62.4 167.2h12.3v12.3H62.4zm40.2 0h12.3v12.3h-12.3zm40.2 0h12.3v12.3h-12.3zm40.1 0h12.3v12.3h-12.3zm40.3 0h12.3v12.3h-12.3zm-160.8 120h12.3v12.3H62.4zm40.2 0h12.3v12.3h-12.3zm40.2 0h12.3v12.3h-12.3zm40.1 0h12.3v12.3h-12.3zm40.3 0h12.3v12.3h-12.3z" fill="#fff"/></svg>