<svg xmlns="http://www.w3.org/2000/svg" viewBox="0 0 512 512"><path d="M8,88.2h271.9V472H8V88.2z" fill="#40c8dc"/><path d="M8,8.2h271.9v80H8V8.2z" fill="#ffc850"/><path d="M503.8 256.1c0 83.9-68 151.9-151.9 151.9S200 340 200 256.1s68-151.9 151.9-151.9 151.9 68 151.9 151.9z" fill="#abffdb"/><path d="M279.9 260.1c0 11-8.9 20-20 20-11 0-20-8.9-20-20 0-11 8.9-20 20-20 11 0 20 9 20 20zm135.9-64c0 11-8.9 20-20 20a19.93 19.93 0 0 1-20-20c0-11 8.9-20 20-20s20 9 20 20zm48 64c0 11-8.9 20-20 20a19.93 19.93 0 0 1-20-20c0-11 8.9-20 20-20s20 9 20 20zm-48 64c0 11-8.9 20-20 20a19.93 19.93 0 0 1-20-20c0-11 8.9-20 20-20a19.93 19.93 0 0 1 20 20z" fill="#ffc850"/><path d="M64 432h16v16H64v-16zm32 0h16v16H96v-16zm31.9 0h16v16h-16v-16zM32 432h16v16H32v-16zm32-63.9h16v16H64v-16zm32 0h16v16H96v-16zm31.9 0h16v16h-16v-16zm-95.9 0h16v16H32v-16zm32-64h16v16H64v-16zm-32 0h16v16H32v-16zm64 0h16v16H96v-16zm31.9 0h16v16h-16v-16zm-63.9-64h16v16H64v-16zm-32 0h16v16H32v-16zm64 0h16v16H96v-16zm31.9 0h16v16h-16v-16zM64 112.2h16v16H64v-16zm-32 0h16v16H32v-16zm64 0h16v16H96v-16zm31.9 0h16v16h-16v-16zM64 176.1h16v16H64v-16zm-32 0h16v16H32v-16zm64 0h16v16H96v-16zm31.9 0h16v16h-16v-16z" fill="#fff"/><path d="M351.9 96.2c-22 0-43.8 4.6-64 13.4V.2H0V480h287.9v-77.4c59.6 26.1 129.2 13.5 175.8-31.9s61.1-114.6 36.5-174.9S417 96.1 351.9 96.2zM16 48.2h16v-16H16v-16h255.9v16h-16v16h16v32H16v-32zm0 48h255.9v21.6c-12.5 7.2-23.9 16.1-34.1 26.3H16V96.2zm0 63.9h208.2c-3.9 5.1-7.4 10.5-10.7 16h-53.6v16h45.4c-2.3 5.2-4.3 10.6-6.1 16H16v-48zm0 64h179.1c-1.1 5.2-1.9 10.6-2.4 16h-32.8v16h32c0 5.4.3 10.7.8 16H16v-48zm0 64h179.1c1.1 5.4 2.5 10.7 4.2 16H160v16h45.4c2.4 5.5 5.2 10.8 8.2 16H16v-48zM271.9 464H16v-48h255.9v48zm0-64H16v-48h208.2c4.2 5.6 8.7 11 13.6 16h-77.9v16h96v-.3c5.1 3.9 10.5 7.4 16 10.7v5.6zm80 0C272.4 400 208 335.6 208 256.1s64.4-143.9 143.9-143.9 143.9 64.4 143.9 143.9c-.1 79.5-64.5 143.9-143.9 143.9zm91.9-167.9c-10.8 0-20.6 6.3-25.2 16h-93.8l24-48h19.5c2 13.7 13.8 23.9 27.6 24 13.9 0 25.7-10.1 27.7-23.8 2.1-13.7-6.3-26.9-19.5-30.9-13.3-4-27.5 2.3-33.4 14.8H339l-32 64h-21.9c-5.9-12.5-20.2-18.8-33.4-14.8-13.3 4-21.6 17.2-19.5 30.9s13.9 23.9 27.7 23.8c13.9 0 25.6-10.2 27.6-24H307l32 64h29.3c2 13.7 13.8 23.9 27.6 24 13.9 0 25.7-10.1 27.7-23.8 2.1-13.7-6.3-26.9-19.5-30.9-13.3-4-27.5 2.3-33.4 14.8h-21.9l-24-48h91.4c2.2 14.8 15.5 25.2 30.4 23.7 14.8-1.5 25.9-14.3 25.2-29.2-.8-14.9-13.1-26.6-28-26.6zm-48-48a12.04 12.04 0 0 1 12 12 12.04 12.04 0 0 1-12 12 12.04 12.04 0 0 1-12-12 12.04 12.04 0 0 1 12-12zm-135.9 88a12.04 12.04 0 0 1-12-12 12.04 12.04 0 0 1 12-12 12.04 12.04 0 0 1 12 12 12.04 12.04 0 0 1-12 12zm135.9 40a12.04 12.04 0 0 1 12 12 12.04 12.04 0 0 1-12 12 12.04 12.04 0 0 1-12-12 12.04 12.04 0 0 1 12-12zm48-40a12.04 12.04 0 0 1-12-12 12.04 12.04 0 0 1 12-12 12.04 12.04 0 0 1 12 12 12.04 12.04 0 0 1-12 12zM16 496h48v16H16v-16zm207.9 0h48v16h-48v-16zm-64-64h96v16h-96v-16zm0-319.8h80v16h-80v-16zM48 32.2h191.9v16H48v-16z" fill="#403e3e"/></svg>