<svg xmlns="http://www.w3.org/2000/svg" viewBox="0 0 591.1 591.1"><path d="M472.9 206.9H78.8c-21.8 0-39.4 17.6-39.4 39.4v335h472.9v-335c0-21.8-17.6-39.4-39.4-39.4z" fill="#c7cacc"/><path d="M472.9,561.6V266c0-10.9-8.8-19.7-19.7-19.7H98.5c-10.9,0-19.7,8.8-19.7,19.7v295.6H472.9z" fill="#4398d1"/><path d="M472.9,561.6V266c0-10.9-8.8-19.7-19.7-19.7h-19.7L118.2,561.6H472.9z" fill="#3e8cc7"/><path d="M137.9 364.5h275.9v78.8H137.9z" fill="#87ced9"/><path d="M167.5 394.1h19.7v19.7h-19.7zm39.4 0h19.7v19.7h-19.7zm39.4 0H266v19.7h-19.7zm39.4 0h19.7v19.7h-19.7z" fill="#126099"/><path d="M328.7 157.6H558a23.26 23.26 0 0 1 23.3 23.3v120.9a23.26 23.26 0 0 1-23.3 23.3H328.7a23.26 23.26 0 0 1-23.3-23.3V180.9c0-12.8 10.4-23.3 23.3-23.3z" fill="#fdb62f"/><path d="M443.4 9.9C383.5 9.9 335 58.4 335 118.2v39.4h39.4v-39.4c0-38.1 30.9-69 69-69s69 30.9 69 69v39.4h39.4v-39.4C551.7 58.4 503.2 9.9 443.4 9.9z" fill="#dadddf"/><path d="M177.3 157.6H197v19.7h-19.7zm0-39.4H197v19.7h-19.7zm0-39.4H197v19.7h-19.7zm0-39.4H197v19.7h-19.7zm39.5 0h19.7v19.7h-19.7zm39.4 0h19.7v19.7h-19.7zm39.4 0h19.7v19.7h-19.7z" fill="#87ced9"/><path d="M512.3 581.3H39.4c-16.3 0-29.6-13.2-29.6-29.6v-29.6h206.9a17.73 17.73 0 0 1 15.9 9.9c3 6 9.2 9.9 15.9 9.9h56.8a17.73 17.73 0 0 0 15.9-9.9c3-6 9.2-9.9 15.9-9.9h204.6v29.6c.2 16.4-13 29.6-29.4 29.6z" fill="#dadddf"/><path d="M565.6 159c-66.8 99.5-175.9 143.2-250.1 162 3.9 2.7 8.5 4.1 13.2 4.1H558a23.26 23.26 0 0 0 23.3-23.3V180.9c0-9.9-6.3-18.7-15.7-21.9z" fill="#ffa230"/><path d="M463.1 236.5a19.74 19.74 0 0 0-19.6-19.8 19.74 19.74 0 0 0-19.8 19.6c0 7.1 3.7 13.6 9.9 17.2v32.3h19.7v-32.3c6-3.6 9.7-10 9.8-17z" fill="#556575"/><path d="M335 137.9h39.4v19.7H335zm177.3 0h39.4v19.7h-39.4z" fill="#c7cacc"/><path d="M137.9 364.5h275.9v19.7H137.9z" fill="#71c4d1"/><path d="M39.4 591.1h472.9c21.8 0 39.4-17.6 39.4-39.4v-29.6c0-5.4-4.4-9.9-9.9-9.9h-19.7V354.7h-19.7v157.6h-19.7V354.7H463v157.6H337.3c-10.5 0-20.1 5.9-24.7 15.3-1.3 2.7-4.1 4.4-7.1 4.4h-56.8c-3 0-5.8-1.7-7.1-4.4-4.7-9.4-14.3-15.3-24.8-15.3H88.7V266c0-5.4 4.4-9.9 9.9-9.9h177.3v-19.7H98.5C82.2 236.5 69 249.7 69 266v246.3H49.3v-266c0-16.3 13.2-29.6 29.6-29.6h197V197h-197c-27.2 0-49.2 22.1-49.3 49.3v266H9.9c-5.4 0-9.9 4.4-9.9 9.9v29.6c0 21.7 17.6 39.3 39.4 39.3zM19.7 532h197c3 0 5.8 1.7 7.1 4.4 4.6 9.4 14.3 15.3 24.7 15.3h56.8c10.5 0 20.1-5.9 24.8-15.3 1.3-2.7 4.1-4.4 7.1-4.4H532v19.7c0 10.9-8.8 19.7-19.7 19.7H39.4c-10.9 0-19.7-8.8-19.7-19.7V532zm108.4-167.5v78.8c0 5.4 4.4 9.9 9.9 9.9h275.9c5.4 0 9.9-4.4 9.9-9.9v-78.8c0-5.4-4.4-9.9-9.9-9.9h-276c-5.4.1-9.8 4.5-9.8 9.9zm19.7 9.9H404v59.1H147.8v-59.1zm19.7 19.7h19.7v19.7h-19.7zm39.4 0h19.7v19.7h-19.7zm39.4 0H266v19.7h-19.7zm39.4 0h19.7v19.7h-19.7zm275.9-245.9v-29.9C561.6 52.9 508.7 0 443.4 0S325.1 52.9 325.1 118.2v29.9c-16.8 1.8-29.5 15.9-29.6 32.8v120.9a33.08 33.08 0 0 0 33.1 33.1H558a33.08 33.08 0 0 0 33.1-33.1V180.9c0-16.8-12.7-31-29.5-32.7zm-216.8-30c0-54.4 44.1-98.5 98.5-98.5s98.5 44.1 98.5 98.5v29.6h-19.7v-29.6c0-43.5-35.3-78.8-78.8-78.8s-78.8 35.3-78.8 78.8v29.6h-19.7v-29.6zm39.4 29.6v-29.6c0-32.7 26.5-59.1 59.1-59.1s59.1 26.5 59.1 59.1v29.6H384.2zm187.2 154.1c0 7.4-6 13.4-13.4 13.4H328.7c-7.4 0-13.4-6-13.4-13.4v-121c0-7.4 6-13.4 13.4-13.4H558c7.4 0 13.4 6 13.4 13.4v121zm-128-95c-16.3 0-29.5 13.1-29.5 29.4a29.66 29.66 0 0 0 19.7 27.9v21.5h19.7v-21.5c15.4-5.4 23.4-22.2 18-37.6a29.66 29.66 0 0 0-27.9-19.7zm0 39.4c-5.4 0-9.9-4.4-9.9-9.9a9.86 9.86 0 0 1 9.9-9.9c5.4 0 9.9 4.4 9.9 9.9s-4.5 9.9-9.9 9.9zm-266.1-88.7H197v19.7h-19.7zm0-39.4H197v19.7h-19.7zm0-39.4H197v19.7h-19.7zm0-39.4H197v19.7h-19.7zm39.5 0h19.7v19.7h-19.7zm39.4 0h19.7v19.7h-19.7zm39.4 0h19.7v19.7h-19.7z" fill="#403e3e"/></svg>