<svg xmlns="http://www.w3.org/2000/svg" width="240" height="240" viewBox="0 0 48 48"><path fill="#eceff1" d="M1.998 10h44v27h-44z"/><path fill="#f44336" d="M2 10h44v3H2zm0 6h44v3H2zm0 6h44v3H2zm0 6h44v3H2zm0 6h44v3H2z"/><path fill="#3f51b5" d="M2 10H23V25H2z"/><path fill="#fff" d="M4.25 12l.463.988 1.037.158-.75.77L5.178 15l-.928-.512-.928.512.178-1.084-.75-.77 1.037-.158zm4 0l.463.988 1.037.158-.75.77L9.178 15l-.928-.512-.928.512.178-1.084-.75-.77 1.037-.158zm4 0l.463.988 1.037.158-.75.77.178 1.084-.928-.512-.928.512.178-1.084-.75-.77 1.037-.158zm4 0l.463.988 1.037.158-.75.77.178 1.084-.928-.512-.928.512.178-1.084-.75-.77 1.037-.158zM20 12l.463.988 1.037.158-.75.77.178 1.084-.928-.512-.928.512.178-1.084-.75-.77 1.037-.158zM4.25 20l.463.988 1.037.158-.75.77L5.178 23l-.928-.512-.928.512.178-1.084-.75-.77 1.037-.158zm4 0l.463.988 1.037.158-.75.77L9.178 23l-.928-.512-.928.512.178-1.084-.75-.77 1.037-.158zm4 0l.463.988 1.037.158-.75.77.178 1.084-.928-.512-.928.512.178-1.084-.75-.77 1.037-.158zm4 0l.463.988 1.037.158-.75.77.178 1.084-.928-.512-.928.512.178-1.084-.75-.77 1.037-.158zM20 20l.463.988 1.037.158-.75.77.178 1.084-.928-.512-.928.512.178-1.084-.75-.77 1.037-.158zM5.25 16l.463.988 1.037.158-.75.77L6.178 19l-.928-.512-.928.512.178-1.084-.75-.77 1.037-.158zm4 0l.463.988 1.037.158-.75.77.178 1.084-.928-.512-.928.512.178-1.084-.75-.77 1.037-.158zm4 0l.463.988 1.037.158-.75.77.178 1.084-.928-.512-.928.512.178-1.084-.75-.77 1.037-.158zm4 0l.463.988 1.037.158-.75.77.178 1.084-.928-.512-.928.512.178-1.084-.75-.77 1.037-.158zM21 16l.463.988 1.037.158-.75.77.178 1.084-.928-.512-.928.512.178-1.084-.75-.77 1.037-.158z"/></svg>