<?xml version="1.0" encoding="utf-8"?>
<!-- Generator: Adobe Illustrator 22.1.0, SVG Export Plug-In . SVG Version: 6.00 Build 0)  -->
<svg version="1.1" id="Layer_1" xmlns="http://www.w3.org/2000/svg" xmlns:xlink="http://www.w3.org/1999/xlink" x="0px" y="0px"
	 viewBox="0 0 174 164" style="enable-background:new 0 0 174 164;" xml:space="preserve">
<style type="text/css">
	.st0{fill:#ED3237;}
</style>
<path class="st0" d="M83.3,72.8H72.4c-4.5,0-8.2,3.7-8.2,8.2v55c0,4.5,3.7,8.2,8.2,8.2h10.9c4.5,0,8.2-3.7,8.2-8.2V81
	C91.5,76.5,87.8,72.8,83.3,72.8z M86.1,136c0,1.5-1.2,2.7-2.7,2.7c0,0,0,0,0,0h-11c-1.5,0-2.7-1.2-2.7-2.7c0,0,0,0,0,0V81
	c0-1.5,1.2-2.7,2.7-2.7c0,0,0,0,0,0h10.9c1.5,0,2.7,1.2,2.7,2.7c0,0,0,0,0,0C86,81,86.1,136,86.1,136z M53.3,144.2
	c4.5,0,8.2-3.7,8.2-8.2V81c0-4.5-3.7-8.2-8.2-8.2H42.4c-4.5,0-8.2,3.7-8.2,8.2v55c0,4.5,3.7,8.2,8.2,8.2
	C42.4,144.2,53.3,144.2,53.3,144.2z M39.7,136V81c0-1.5,1.2-2.7,2.7-2.7c0,0,0,0,0,0h10.9c1.5,0,2.7,1.2,2.7,2.7c0,0,0,0,0,0v55
	c0,1.5-1.2,2.7-2.7,2.7c0,0,0,0,0,0H42.4C40.9,138.7,39.7,137.5,39.7,136C39.7,136,39.7,136,39.7,136z M23.3,144.2
	c4.5,0,8.2-3.7,8.2-8.2V81c0-4.5-3.7-8.2-8.2-8.2H12.4c-4.5,0-8.2,3.7-8.2,8.2v55c0,4.5,3.7,8.2,8.2,8.2
	C12.4,144.2,23.3,144.2,23.3,144.2z M9.7,136V81c0-1.5,1.2-2.7,2.7-2.7c0,0,0,0,0,0h10.9c1.5,0,2.7,1.2,2.7,2.7c0,0,0,0,0,0v55
	c0,1.5-1.2,2.7-2.7,2.7c0,0,0,0,0,0H12.4C10.9,138.7,9.7,137.5,9.7,136C9.7,136,9.7,136,9.7,136z M115.6,34.7
	c-1.5,0-2.7,1.2-2.7,2.7c0,0,0,0,0,0v23c-7.2,1.3-12.7,7.6-12.7,15.2c0,8.5,6.9,15.5,15.4,15.5c7.6,0,13.9-5.5,15.2-12.7h8.9
	c1.5,0,2.7-1.2,2.7-2.7c0-1.5-1.2-2.7-2.7-2.7h-8.9c-1.1-6.3-6.1-11.3-12.5-12.5v-23C118.4,35.9,117.1,34.7,115.6,34.7z M125.6,75.6
	c0,5.5-4.5,10-10,10s-10-4.5-10-10s4.5-10,10-10C121.2,65.6,125.6,70.1,125.6,75.6z M112.9,125.6c0,1.5,1.2,2.7,2.7,2.7c0,0,0,0,0,0
	c21.5,0,40.6-12.8,48.8-32.7c0.6-1.4-0.1-3-1.5-3.6s-3,0.1-3.6,1.5c-7.3,17.8-24.5,29.3-43.7,29.3
	C114.1,122.8,112.9,124.1,112.9,125.6z M172.7,54.1c-1.3-0.8-3-0.4-3.8,0.9c0,0,0,0,0,0l-3.1,4.9c-6.8-21.8-27.2-37-50.3-37
	c-24.6,0-45.7,16.7-51.3,40.7c-0.3,1.5,0.6,2.9,2,3.3c0.2,0,0.4,0.1,0.6,0.1c1.2,0,2.4-0.8,2.7-2.1c5-21.5,23.9-36.4,46-36.4
	c21,0,39.6,14,45.4,34.1l-6.6-4c-1.3-0.8-3-0.4-3.7,0.9s-0.4,3,0.9,3.7l11.2,6.8c0.1,0.1,0.3,0.1,0.4,0.2c0.1,0,0.1,0.1,0.2,0.1
	c0.2,0.1,0.5,0.1,0.7,0.1s0.5,0,0.7-0.1c0.1,0,0.2-0.1,0.2-0.1c0.2,0,0.3-0.1,0.4-0.2c0.1-0.1,0.2-0.1,0.3-0.2s0.2-0.1,0.3-0.2
	s0.1-0.2,0.2-0.3s0.2-0.2,0.2-0.3l7-11.2C174.4,56.6,174,54.9,172.7,54.1L172.7,54.1z"/>
</svg>
