<?xml version="1.0" encoding="utf-8"?>
<!-- Generator: Adobe Illustrator 22.1.0, SVG Export Plug-In . SVG Version: 6.00 Build 0)  -->
<svg version="1.1" id="Layer_1" xmlns="http://www.w3.org/2000/svg" xmlns:xlink="http://www.w3.org/1999/xlink" x="0px" y="0px"
	 viewBox="0 0 512 512" style="enable-background:new 0 0 512 512;" xml:space="preserve">
<style type="text/css">
	.st0{fill:#ED3237;}
</style>
<path class="st0" d="M66,44.5c-5.5,0-10,4.5-10,10V234c0,5.5,4.5,10,10,10s10-4.5,10-10V54.5C76,49,71.5,44.5,66,44.5z M73.1,268.8
	c-1.9-1.9-4.4-2.9-7.1-2.9s-5.2,1.1-7.1,2.9c-1.9,1.9-2.9,4.5-2.9,7.1s1.1,5.2,2.9,7.1c1.9,1.9,4.4,2.9,7.1,2.9
	c2.6,0,5.2-1.1,7.1-2.9s2.9-4.4,2.9-7.1S74.9,270.7,73.1,268.8z M398.1,422.4l-72-72c-2.9-2.9-7.2-3.7-10.9-2.2s-6.2,5.2-6.2,9.2v34
	H76v-76.3c0-5.5-4.5-10-10-10s-10,4.5-10,10v86.3c0,5.5,4.5,10,10,10h253.1c5.5,0,10-4.5,10-10v-19.9l47.9,47.9l-47.9,47.9v-19.9
	c0-5.5-4.5-10-10-10H20v-393c0-5.5-4.5-10-10-10S0,49,0,54.5v403c0,5.5,4.5,10,10,10h299.1v34c0,4,2.4,7.7,6.2,9.2
	c1.2,0.5,2.5,0.8,3.8,0.8c2.6,0,5.2-1,7.1-2.9l72-72C402,432.7,402,426.3,398.1,422.4z M446,100.5h-87c-5.5,0-10,4.5-10,10
	s4.5,10,10,10h77v337c0,5.5,4.5,10,10,10s10-4.5,10-10v-347C456,105,451.5,100.5,446,100.5z M328.7,103.4c-1.9-1.9-4.4-2.9-7.1-2.9
	s-5.2,1.1-7.1,2.9c-1.9,1.9-2.9,4.4-2.9,7.1s1.1,5.2,2.9,7.1c1.9,1.9,4.4,2.9,7.1,2.9s5.2-1.1,7.1-2.9c1.9-1.9,2.9-4.4,2.9-7.1
	S330.6,105.3,328.7,103.4z M502,44.5H202.9v-34c0-4-2.4-7.7-6.2-9.2c-3.7-1.5-8-0.7-10.9,2.2l-72,72c-3.9,3.9-3.9,10.2,0,14.1
	c0,0,0,0,0,0l72,72c2.9,2.9,7.2,3.7,10.9,2.2s6.2-5.2,6.2-9.2v-34h80.6c5.5,0,10-4.5,10-10s-4.5-10-10-10h-90.6c-5.5,0-10,4.5-10,10
	v19.9L135,82.6l47.9-47.9v19.9c0,5.5,4.5,10,10,10H492v393c0,5.5,4.5,10,10,10s10-4.5,10-10v-403C512,49,507.5,44.5,502,44.5z
	 M176.8,286.5h-34v-6c0-7.7,6.3-14,14-14c16.5,0,30-13.5,30-30s-13.5-30-30-30h-24c-5.5,0-10,4.5-10,10s4.5,10,10,10h24
	c5.5,0,10,4.5,10,10s-4.5,10-10,10c-18.7,0-34,15.3-34,34v16c0,5.5,4.5,10,10,10h44c5.5,0,10-4.5,10-10S182.3,286.5,176.8,286.5z
	 M249.2,206.5c-5.5,0-10,4.5-10,10v32.1H217v-32.1c0-5.5-4.5-10-10-10s-10,4.5-10,10v42.1c0,5.5,4.5,10,10,10h32.1v27.9
	c0,5.5,4.5,10,10,10s10-4.5,10-10v-80C259.2,211,254.7,206.5,249.2,206.5L249.2,206.5z M317.1,207.1c-5.2-1.9-10.9,0.7-12.9,5.9
	l-30,80c-1.9,5.2,0.7,10.9,5.9,12.9c1.2,0.4,2.3,0.6,3.5,0.6c4,0,7.9-2.5,9.4-6.5l30-80C324.9,214.8,322.2,209.1,317.1,207.1z
	 M387.4,210.8c-1.9-2.7-4.9-4.3-8.2-4.3h-33.6c-5.5,0-10,4.5-10,10s4.5,10,10,10h19.2L340.2,293c-1.9,5.2,0.7,10.9,5.9,12.9
	c1.1,0.4,2.3,0.6,3.5,0.6c4.1,0,7.9-2.5,9.4-6.5l29.6-80C389.7,216.9,389.3,213.5,387.4,210.8L387.4,210.8z"/>
</svg>
