<svg xmlns="http://www.w3.org/2000/svg" viewBox="0 0 512 512"><path d="M116.3 64.3l65 65c11.9 11.9 12.3 31.1.9 43.5l-36.4 39.5c-7.4 8-8.1 20.2-1.7 29 35.6 48.7 77.8 90.9 126.5 126.5 8.8 6.5 21 5.7 29-1.7l39.5-36.4c12.4-11.4 31.6-11 43.5.9l65 65c13.8 13.8 11.8 36.6-4 47.8l-59.3 42c-37 26.2-86.9 24.6-122.3-3.8A1530.25 1530.25 0 0 1 30.2 249.8C1.7 214.5.1 164.6 26.4 127.5l42-59.2c11.4-15.8 34.2-17.8 47.9-4z" fill="#a5dc69"/><path d="M116.3 64.3l65 65c11.9 11.9 12.3 31.1.9 43.5l-21.5 23.4-107-107 14.8-20.9c11.3-15.8 34.1-17.8 47.8-4zm266.4 266.4l65 65c13.8 13.8 11.8 36.6-4.1 47.8l-20.9 14.8-106.9-107 23.4-21.5c12.5-11.4 31.6-11 43.5.9z" fill="#78d2fa"/><path d="M439.7 72.3C393 25.7 331 0 265.1 0c-32.6 0-64.3 6.3-94.2 18.6-4 1.7-5.9 6.3-4.3 10.3s6.3 5.9 10.3 4.3c25.6-10.6 52.5-16.3 80.3-17.3V51a7.92 7.92 0 0 0 7.9 7.9A7.92 7.92 0 0 0 273 51V15.9c35.7 1.2 70.1 10.4 100.9 26.9l-17.6 30.5c-2.2 3.8-.9 8.6 2.9 10.8 1.2.7 2.6 1.1 3.9 1.1 2.7 0 5.4-1.4 6.8-3.9l17.6-30.5C402.2 60 416 71 428.6 83.5c12.6 12.6 23.5 26.4 32.8 41.1l-30.5 17.6c-3.8 2.2-5.1 7-2.9 10.8 1.5 2.5 4.1 3.9 6.8 3.9 1.3 0 2.7-.3 3.9-1.1l30.5-17.6c16.5 30.8 25.7 65.1 26.9 100.9H461a7.92 7.92 0 0 0-7.9 7.9 7.85 7.85 0 0 0 7.9 7.9h35.1c-1 28.8-7.1 56.7-18.4 83-1.7 4 .1 8.6 4.1 10.3 1 .4 2.1.6 3.1.6 3.1 0 6-1.8 7.2-4.8 13.2-30.7 19.8-63.4 19.8-97.1.1-65.9-25.6-127.9-72.2-174.6zm-158 412.9c-5.1-2.7-10-6-14.6-9.7-84.8-68.3-162.3-145.9-230.6-230.6-26.1-32.4-27.6-78.8-3.5-112.8l21.8-30.8 95 95-9.7 10.5c-9.9 10.8-10.9 27.2-2.2 39 .5.7 1 1.3 1.4 2 2.6 3.5 7.5 4.2 11 1.6s4.2-7.5 1.6-11c-.5-.6-.9-1.2-1.3-1.8-4.2-5.8-3.7-13.8 1.1-19.1l36.4-39.5c14.3-15.5 13.8-39.4-1.1-54.4l-65-65c-8.2-8.2-19.5-12.3-31.1-11.4-11.6 1-22 7-28.7 16.4l-42 59.3C6.3 142.5-.6 165.5.2 189.5s9.1 46.5 24.2 65.2c69 85.6 147.4 164 233 233 5.3 4.3 11.1 8.1 17.1 11.3 1.2.6 2.4.9 3.7.9 2.8 0 5.5-1.5 7-4.2 1.8-3.7.4-8.5-3.5-10.5zM74.9 72.9c4-5.7 10.3-9.2 17.2-9.8s13.7 1.9 18.6 6.8l15.4 15.4-5.6 5.6c-3.1 3.1-3.1 8.1 0 11.1 1.5 1.5 3.6 2.3 5.6 2.3s4-.8 5.6-2.3l5.6-5.6 10.4 10.4-5.6 5.6c-3.1 3.1-3.1 8.1 0 11.1 1.5 1.5 3.6 2.3 5.6 2.3s4-.8 5.6-2.3l5.6-5.6 16.9 16.9c8.9 8.9 9.2 23.3.7 32.6l-16 17.4L64 88.3l10.9-15.4zm313.4 252.2c-14.9-14.9-38.8-15.4-54.4-1.1l-39.5 36.4c-5.3 4.9-13.3 5.3-19.1 1.1-38.9-28.4-74-61.5-104.4-98.4-2.8-3.4-7.7-3.8-11.1-1.1-3.4 2.8-3.8 7.7-1.1 11.1C189.9 311 226 345 265.9 374.2c11.8 8.6 28.2 7.7 39-2.2l10.5-9.7 95 95-30.8 21.8c-20.7 14.6-45.8 20.2-70.7 15.7-4.3-.8-8.4 2.1-9.2 6.3-.8 4.3 2.1 8.4 6.3 9.2 6.4 1.2 12.8 1.7 19.3 1.7 22.5 0 44.8-7 63.3-20.1l59.3-42c9.5-6.7 15.4-17.2 16.4-28.7 1-11.6-3.2-22.9-11.4-31.1l-64.6-65zm60.6 94.7c-.6 6.9-4.2 13.2-9.8 17.2l-15.5 11-96.4-96.4 17.4-16c8.4-7.7 20.9-8.2 29.8-1.6l-5.9 5.9c-3.1 3.1-3.1 8.1 0 11.1 1.5 1.5 3.6 2.3 5.6 2.3s4-.8 5.6-2.3l6.1-6.1 10.4 10.4-6.1 6.1c-3.1 3.1-3.1 8.1 0 11.1 1.5 1.5 3.6 2.3 5.6 2.3s4-.8 5.6-2.3l6.1-6.1 10.4 10.4-6.1 6.1c-3.1 3.1-3.1 8.1 0 11.1 1.5 1.5 3.6 2.3 5.6 2.3s4-.8 5.6-2.3l6.1-6.1 10.4 10.4-6.1 6.1c-3.1 3.1-3.1 8.1 0 11.1 1.5 1.5 3.6 2.3 5.6 2.3s4-.8 5.6-2.3l3.8-3.8c.6 2.7.9 5.4.6 8.1z"/><path d="M272.3 207.9c-16.6 12-33.8 24.5-33.8 41.3v19.6c0 4 4.9 6.6 8.2 6.6h71.9c3.8 0 6.4-4.3 6.4-8.2 0-4.5-2.9-8.2-6.4-8.2h-61.4v-9.8c0-10.6 12.2-19.3 26.4-29.3 18.9-13.3 40.2-28.4 40.2-53.3 0-22.7-18.1-39.9-42.1-39.9-22.7 0-39.9 15.1-39.9 35 0 7.2 2.5 10.4 8.2 10.4 6.2 0 9.4-3.6 9.4-7.2 0-13.4 8.3-21.5 22.3-21.5 16.6 0 24.1 12.3 24.1 23.7 0 16.5-17 28.9-33.5 40.8zm120.3-74c0-4.3-5.3-7.2-8.8-7.2-2.5 0-5.9.9-8.1 5.1l-49.8 98.3c-.7 1.1-1.1 2.5-1.1 4.1 0 4.4 2.7 7.2 6.8 7.2h49.9v27.3c0 4.5 4.7 6.6 9 6.6s9-2.1 9-6.6v-27.3h10.2c3.9 0 6.6-4.5 6.6-8.6s-2.1-8.6-6.6-8.6h-10.2v-33.4c0-4.4-4.5-6.4-9-6.4s-9 2-9 6.4v33.4H348l43.8-87.2c.6-1 .8-1.9.8-3.1z" fill="#ff5a5a"/></svg>