<svg xmlns="http://www.w3.org/2000/svg" viewBox="0 0 191.5 361.4"><g fill="#fcbc04"><path d="M71.6 129.5h32v208c0 8.8-7.2 16-16 16s-16-7.2-16-16v-208z"/><path d="M103.6 281.4h80v48h-80v-48zm0-63.9h56v32h-56v-32z"/></g><path d="M103.6 158.6v-29.1h-32v29.1c5.9-2.1 11.3-5.3 16-9.4 4.6 4.1 10.1 7.3 16 9.4z" fill="#e59730"/><path d="M119.6 49.5c-11.8 0-23.2 4.4-32 12.3-8.8-8-20.2-12.3-32-12.3-26.5 0-48 21.5-48 48s21.5 48 48 48c11.8 0 23.2-4.4 32-12.3 8.8 8 20.2 12.3 32 12.3 26.5 0 48-21.5 48-48s-21.5-48-48-48zm-64 64c-8.8 0-16-7.2-16-16s7.2-16 16-16 16 7.2 16 16c-.1 8.8-7.2 16-16 16zm64 0c-8.8 0-16-7.2-16-16s7.2-16 16-16 16 7.2 16 16c-.1 8.8-7.2 16-16 16z" fill="#fcbc04"/><path d="M103.6 217.5h56v16h-40c-8.9 0-16-7.2-16-16zm0 63.9h80v16h-64c-8.9 0-16-7.1-16-16z" fill="#f9e109"/><path d="M71.6 145.5h16v208c-8.8 0-16-7.2-16-16v-192z" fill="#e59730"/><path d="M119.6 49.5c-11.8 0-23.2 4.4-32 12.3-8.8-8-20.2-12.3-32-12.3-14.7 0-28.6 6.8-37.7 18.3 18.3-14.4 44.3-13.5 61.7 2 8.8-8 20.2-12.3 32-12.3 26.5 0 48 21.6 47.9 48.1 0 10.7-3.6 21.2-10.3 29.6 20.8-16.4 24.4-46.6 7.9-67.4-9-11.6-22.9-18.3-37.5-18.3z" fill="#f9e109"/><path d="M57.7 14.7c-6.4 7.5-10 16.9-10.2 26.8v.6C17 46.8-4 75.4.7 106c4.2 27.1 27.4 47.3 54.9 47.5 2.7 0 5.4-.2 8-.6v184.5c0 13.3 10.8 24 24 24s24-10.7 24-24h72c4.4 0 8-3.6 8-8v-48c0-4.4-3.6-8-8-8h-72v-16h48c4.4 0 8-3.6 8-8v-32c0-4.4-3.6-8-8-8h-48v-32c0-4.4-3.6-8-8-8s-8 3.6-8 8v40c0 4.4 3.6 8 8 8h48v16h-48c-4.4 0-8 3.6-8 8v32c0 4.4 3.6 8 8 8h72v32h-72c-4.4 0-8 3.6-8 8v8c0 4.4-3.6 8-8 8s-8-3.6-8-8V142.7c0-4.4-3.6-8-8-8-.9 0-1.8.2-2.6.4-4.3 1.5-8.8 2.3-13.4 2.3-22.1.1-40-17.8-40.1-39.9s17.8-40 39.9-40.1c9.9 0 19.5 3.6 26.8 10.2 3 2.7 7.7 2.7 10.7 0 16.4-14.8 41.7-13.4 56.5 3s13.4 41.7-3 56.5c-7.4 6.6-16.9 10.3-26.8 10.2-4.6 0-9.1-.8-13.4-2.3-4-1.9-8.8-.3-10.7 3.7s-.3 8.8 3.7 10.7c.5.3 1.1.5 1.7.6a54.03 54.03 0 0 0 18.6 3.3c30.9-.3 55.8-25.6 55.5-56.5-.2-27.5-20.4-50.7-47.5-54.9 0 0-.1 0 0-.6C129.7 18.6 105.4-5 81.7.7c.1.2-12.5.6-24 14zm53.9 26.8v.6c-8.6 1.2-16.9 4.5-24 9.4-7.1-5-15.4-8.2-24-9.4v-.6c0-10.2 6.4-19.2 16-22.6 0 0 9.4-2.6 16 .3 9.5 3.2 15.9 12.2 16 22.3z"/><path d="M31.6 97.5c0 13.3 10.7 24 24 24s24-10.7 24-24-10.7-24-24-24-24 10.7-24 24zm32 0c0 4.4-3.6 8-8 8s-8-3.6-8-8 3.6-8 8-8 8 3.5 8 8zm56 24c13.3 0 24-10.7 24-24s-10.7-24-24-24-24 10.7-24 24 10.7 24 24 24zm0-32c4.4 0 8 3.6 8 8s-3.6 8-8 8-8-3.6-8-8 3.5-8 8-8z" fill="#ff5a5a"/></svg>