<svg xmlns="http://www.w3.org/2000/svg" viewBox="0 0 478.5 426.1" fill="#565656"><path d="M373.9 16.9c10.6 9.7 12.5 24.9 12.5 24.9s-15.3-.5-26-10.2S348 6.7 348 6.7s15.3.5 25.9 10.2zm-74.8 357.5c-5.7 7.4-9 16.4-9.6 25.7 0 .2 19.2-5.2 27.8-18.2 5-7.7 6.7-17.1 4.6-26 0 0-13.6 6.8-22.8 18.5z"/><path d="M312.6 415c-9.7-1.4-18.2-7.1-23.2-15.5.2.1 18.3-5.1 33.9-3.3 9.4 1.1 18.2 5.2 25 11.8.2 0-18.6 9.9-35.7 7zm19.9-55.4c-3.9 8.2-5.2 17.4-3.9 26.4 0 .2 16.9-8.2 22.6-22.2s-.8-25.9-.7-25.9c.2 0-11.7 9-18 21.7z"/><path d="M353.2 396.7c-9.5.1-18.6-3.9-24.8-11.1.2 0 16.1-8 31.2-8.9 9.2-.5 18.4 2 26 7.2.2 0-15.8 12.7-32.4 12.8zm8.2-56.9c-2.1 8.7-1.7 17.8 1.3 26.2 0 .2 14.5-10.8 17.4-25.3s-5.5-25-5.4-25c0-.1-9.7 10.7-13.3 24.1z"/><path d="M388.1 372.1c-9.1 1.7-18.5-.7-25.7-6.6.2 0 13.7-10.5 28.1-13.9a42.07 42.07 0 0 1 26.4 2.6c.2-.1-13 15.1-28.8 17.9zm-2.7-56.5c-.5 8.8 1.6 17.5 6 25.2 0 .2 12-13 12.2-27.6s-9.7-23.4-9.7-23.4-7.5 12.1-8.5 25.8z"/><path d="M417.1 342.3c-8.5 3.2-18.1 2.5-26-1.9.2 0 11.3-12.5 24.7-18.4a41.73 41.73 0 0 1 26.1-2.2c.1 0-10 17.1-24.8 22.5zm-12.6-54.4c1.1 8.6 4.6 16.8 10.2 23.4 0 .2 9.4-14.7 7.1-29s-13.5-21.1-13.5-21.1c.2-.1-5.2 13.2-3.8 26.7z"/><path d="M440.1 308.3c-7.8 4.6-17.1 5.6-25.7 2.7.1 0 8.8-14.1 20.9-22.2 7.4-4.9 16.2-7.3 25.1-6.7.2-.1-6.9 18.3-20.3 26.2zm-21.7-50.9c2.5 8.2 7.4 15.6 14.1 21.1.1.2 6.7-16 2.1-29.6-2.9-8.1-8.9-14.7-16.7-18.3 0 .1-3.1 13.9.5 26.8z"/><path d="M456.7 271.1c-6.8 5.9-15.8 8.5-24.7 7.2.1-.1 6.2-15.3 16.7-25.4 6.4-6.1 14.7-10 23.5-11.1.1-.1-3.7 19.2-15.5 29.3zm-29.7-46c3.8 7.6 9.8 14 17.2 18.2.1.2 3.8-16.9-2.9-29.5s-19.5-15-19.4-15-.6 14.2 5.1 26.3z"/><path d="M466.8 231.7c-5.6 7-14 11.2-23 11.5.1-.1 3.5-16.2 12.1-28 5.2-7.2 12.6-12.5 21.1-15.2.2-.1-.3 19.7-10.2 31.7zm-36.8-40c5 6.8 11.9 12 19.9 14.8.1.1 1-17.3-7.8-28.6-5.3-6.6-13.1-10.8-21.6-11.4.1.1 1.9 14.3 9.5 25.2z"/><path d="M470 191.1c-4.3 7.9-11.8 13.5-20.6 15.4.1-.1.7-16.6 7.1-29.8 3.9-8 10.2-14.6 18.1-18.8.2-.1 3.1 19.5-4.6 33.2zm-42.8-33a40.27 40.27 0 0 0 22.1 11.1c.1.1-2-17.4-12.6-27-6.3-5.6-14.7-8.4-23.2-7.5.1.1 4.4 14 13.7 23.4z"/><path d="M466.2 150.3c-2.8 8.6-9.2 15.5-17.5 19 .1-.1-2.1-16.5 1.8-30.9 2.3-8.7 7.4-16.3 14.3-22 .2-.1 6.6 19 1.4 33.9zm-47.8-25.2c6.9 4.8 15.2 7.3 23.6 7.2.2.1-5.1-17-17.4-24.7-7.2-4.5-16-5.8-24.2-3.4.2 0 7.1 13.1 18 20.9z"/><path d="M455.2 110.4c-1.1 9-6.1 17-13.6 22.1 0-.1-5.1-16.1-4-31.2.6-9 4-17.6 9.8-24.5.1-.3 10.1 17.7 7.8 33.6zm-51.8-16.8c7.7 3.6 16.3 4.7 24.7 3.1.2 0-8.3-16.1-22.1-21.8-7.9-3.3-16.9-3.1-24.6.7.2-.1 9.8 12.1 22 18z"/><path d="M436.6 72.3c.8 9.1-2.5 18.1-9 24.6 0-.1-8.1-15.3-10.2-30.7s4.4-26.5 4.5-26.5 13.9 16.2 14.7 32.6zm-54.5-8c8.3 2.3 17 1.9 25-1.2.2 0-11.6-14.8-26.6-18.3a29.1 29.1 0 0 0-24.4 4.9c.1 0 12.6 10.7 26 14.6z"/><path d="M410.4 37.1c4.5 16.2-3.8 26.4-3.7 26.4.2 0-11.2-14.1-16.8-29.3s-1.7-27.7-1.6-27.7c.2 0 17.7 14.2 22.1 30.6z"/><path d="M235.4 404.2l.3-3c24.6 2.2 49.4-.5 72.9-8.1 23.3-7.5 44.9-19.3 63.8-34.9 39.7-32.6 65.3-79.2 72.1-131.1 5.6-42.5 2.7-80.4-8.5-112.6-12-34.6-33.4-61.6-63.6-80.5l1.6-2.6c30.8 19.2 52.6 46.7 64.8 82 11.3 32.6 14.2 71 8.6 114-6.9 52.7-32.9 99.9-73.2 133-19.1 15.8-41.1 27.8-64.7 35.4-23.9 7.8-49.1 10.7-74.1 8.4zM105 16.9c-10.6 9.7-12.5 24.9-12.5 24.9s15.3-.5 26-10.2S131 6.7 131 6.7s-15.4.5-26 10.2zm74.7 357.5c5.7 7.4 9 16.4 9.6 25.7 0 .2-19.2-5.2-27.8-18.2-5-7.7-6.7-17.1-4.6-26 .1 0 13.7 6.8 22.8 18.5z"/><path d="M166.3 415c9.7-1.4 18.2-7.1 23.2-15.5-.2.1-18.3-5.1-33.9-3.3-9.4 1.1-18.2 5.2-25 11.8-.3 0 18.6 9.9 35.7 7zm-20-55.4c3.9 8.2 5.2 17.4 3.9 26.4 0 .2-16.9-8.2-22.6-22.2s.8-25.9.7-25.9 11.8 9 18 21.7z"/><path d="M125.7 396.7c9.5.1 18.6-3.9 24.8-11.1-.2 0-16-8-31.2-8.9-9.2-.5-18.4 2-26 7.2-.2 0 15.8 12.7 32.4 12.8zm-8.2-56.9c2.1 8.7 1.7 17.8-1.3 26.2 0 .2-14.5-10.8-17.4-25.3s5.5-25 5.4-25 9.7 10.7 13.3 24.1z"/><path d="M90.8 372.1c9.1 1.7 18.5-.7 25.7-6.6-.2 0-13.7-10.5-28.1-13.9a42.07 42.07 0 0 0-26.4 2.6c-.1-.1 13 15.1 28.8 17.9zm2.7-56.5a46.43 46.43 0 0 1-6.1 25.2c0 .2-12-13-12.2-27.6s9.8-23.4 9.7-23.4 7.5 12.1 8.6 25.8z"/><path d="M61.8 342.3c8.5 3.2 18 2.5 26-1.9-.2 0-11.3-12.5-24.7-18.4a41.73 41.73 0 0 0-26.1-2.2c-.2 0 10 17.1 24.8 22.5zm12.6-54.4c-1.1 8.6-4.6 16.8-10.2 23.4 0 .2-9.4-14.7-7.1-29s13.6-21.1 13.5-21.1c-.2-.1 5.1 13.2 3.8 26.7z"/><path d="M38.9 308.3c7.8 4.6 17.1 5.6 25.7 2.7-.1 0-8.8-14.1-20.9-22.2-7.5-4.9-16.3-7.3-25.2-6.7-.2-.1 6.8 18.3 20.4 26.2zm21.5-50.9c-2.5 8.3-7.4 15.6-14.1 21.1-.1.2-6.7-16-2.1-29.6 2.9-8.1 8.9-14.7 16.7-18.3.1.1 3.1 13.9-.5 26.8z"/><path d="M22.3 271.1c6.8 5.9 15.8 8.5 24.7 7.2-.1-.1-6.2-15.3-16.7-25.4-6.4-6.1-14.7-10-23.5-11.1-.3-.1 3.5 19.2 15.5 29.3zm29.6-46c-3.8 7.6-9.8 14-17.2 18.2-.1.2-3.8-16.9 2.9-29.5s19.5-15 19.4-15 .6 14.2-5.1 26.3z"/><path d="M12.1 231.7c5.6 7 14 11.2 23 11.5-.1-.1-3.5-16.2-12.1-28-5.3-7.2-12.7-12.5-21.2-15.2-.1-.1.4 19.7 10.3 31.7zm36.8-40c-5 6.8-11.9 12-19.9 14.8-.1.1-1-17.3 7.8-28.6 5.3-6.6 13.1-10.8 21.6-11.4-.2.1-1.9 14.3-9.5 25.2z"/><path d="M8.9 191.1c4.3 7.9 11.8 13.5 20.6 15.4-.1-.1-.7-16.6-7.2-29.8-3.9-8-10.2-14.6-18.1-18.8-.1-.1-3 19.5 4.7 33.2zm42.8-33a40.27 40.27 0 0 1-22.1 11.1c-.1.1 2-17.4 12.6-27 6.3-5.6 14.7-8.4 23.2-7.5-.1.1-4.4 14-13.7 23.4z"/><path d="M12.7 150.3c2.8 8.6 9.2 15.5 17.5 19-.1-.1 2.1-16.5-1.8-30.9-2.3-8.7-7.4-16.3-14.3-22-.2-.1-6.6 19-1.4 33.9zm47.8-25.2c-6.9 4.8-15.2 7.3-23.7 7.2-.2.1 5.1-17 17.4-24.7 7.2-4.5 16-5.8 24.2-3.4-.1 0-7.1 13.1-17.9 20.9z"/><path d="M23.7 110.4c1.1 9 6.1 17 13.6 22.1-.1-.1 5.1-16.1 4-31.2-.6-9-4-17.6-9.8-24.5-.1-.3-10.1 17.7-7.8 33.6zm51.8-16.8c-7.7 3.6-16.3 4.7-24.6 3.1-.2 0 8.3-16.1 22-21.8 7.9-3.3 16.9-3.1 24.6.7-.2-.1-9.8 12.1-22 18z"/><path d="M42.2 72.3c-.8 9.1 2.5 18.1 9 24.6 0-.1 8.1-15.3 10.2-30.7 2.1-15.3-4.4-26.5-4.5-26.5S43.1 55.9 42.2 72.3zm54.6-8c-8.3 2.3-17 1.9-25-1.2-.2 0 11.6-14.8 26.6-18.3a29.1 29.1 0 0 1 24.4 4.9c-.2 0-12.6 10.7-26 14.6z"/><path d="M68.5 37.1c-4.5 16.2 3.8 26.4 3.7 26.4S83.4 49.4 89 34.2C94.5 19 90.7 6.5 90.6 6.5S72.9 20.7 68.5 37.1z"/><path d="M243.5 404.2l-.3-3c-24.6 2.2-49.4-.5-72.9-8.1-23.2-7.5-44.9-19.4-63.7-34.9-39.8-32.6-65.4-79.2-72.2-131.1-5.6-42.5-2.7-80.4 8.5-112.6 12-34.6 33.4-61.6 63.6-80.5l-1.6-2.6c-30.8 19.2-52.6 46.7-64.8 82-11.3 32.6-14.2 71-8.6 114 6.9 52.7 32.9 99.9 73.2 133 19.1 15.8 41.1 27.8 64.7 35.4 23.9 7.8 49.1 10.7 74.1 8.4z"/><path d="M238.5 389L216 405.6l22.5 16.6 22.6-16.6z"/></svg>