<?xml version="1.0" encoding="utf-8"?>
<!-- Generator: Adobe Illustrator 22.1.0, SVG Export Plug-In . SVG Version: 6.00 Build 0)  -->
<svg version="1.1" id="Layer_1" xmlns="http://www.w3.org/2000/svg" xmlns:xlink="http://www.w3.org/1999/xlink" x="0px" y="0px"
	 viewBox="0 0 496 496" style="enable-background:new 0 0 496 496;" xml:space="preserve">
<style type="text/css">
	.st0{fill:#ED3237;}
</style>
<path class="st0" d="M112,368h48v16h-48V368z M472,336h-57.4c-6.4,0-12.4,2.5-17,7l-25,25H328c-13.2,0-24,10.8-24,24v32h-33.5
	c-2.4-6.8-7.8-12.1-14.5-14.5V320h56c13.2,0,24-10.8,24-24v-16c0-10.4-6.7-19.2-16-22.5v-19c9.3-3.3,16-12.1,16-22.5h40
	c44.1,0,80-35.9,80-80s-35.9-80-80-80c-6.3,0-12.5,0.8-18.6,2.2C340,22.6,304.1,0,264,0c-32.1,0-62.5,15-82.1,40.3
	c-2-0.2-4-0.3-5.9-0.3c-23.2,0-44.4,12.6-55.7,32.5c-2.8-0.3-5.6-0.5-8.3-0.5c-39.7,0-72,32.3-72,72s32.3,72,72,72h48
	c0,10.4,6.7,19.2,16,22.5v19c-9.3,3.3-16,12.1-16,22.5v16c0,13.2,10.8,24,24,24h56v89.5c-6.8,2.4-12.1,7.8-14.5,14.5H192v-64
	c0-13.2-10.8-24-24-24h-57.4c-6.4,0-12.4,2.5-17,7l-25,25H24c-13.2,0-24,10.8-24,24v80c0,13.2,10.8,24,24,24h144
	c13.2,0,24-10.8,24-24v-32h33.5c3.3,9.3,12.1,16,22.5,16s19.2-6.7,22.5-16H304v32c0,13.2,10.8,24,24,24h144c13.2,0,24-10.8,24-24
	V360C496,346.8,485.2,336,472,336z M304,240v16H192v-16H304z M320,216c0,4.4-3.6,8-8,8H184c-4.4,0-8-3.6-8-8v-16c0-4.4,3.6-8,8-8
	h128c4.4,0,8,3.6,8,8V216z M192,176v-16h112v16H192z M312,144H184c-4.4,0-8-3.6-8-8v-16c0-4.4,3.6-8,8-8h128c4.4,0,8,3.6,8,8v16
	C320,140.4,316.4,144,312,144z M112,200c-30.9,0-56-25.1-56-56s25.1-56,56-56c3.8,0,7.6,0.4,11.2,1.1l6.3,1.3l2.6-5.9
	c7.8-17.3,25-28.5,43.9-28.5c2.5,0,5.2,0.2,8.1,0.8l5,0.8l2.9-4.1C208.5,30,235.4,16,264,16c35.9,0,67.9,21.5,81.5,54.9l2.8,7
	l7.1-2.4c6.7-2.3,13.6-3.4,20.5-3.4c35.3,0,64,28.7,64,64s-28.7,64-64,64h-40c0-10.4-6.7-19.2-16-22.5v-19c9.3-3.3,16-12.1,16-22.5
	v-16c0-13.2-10.8-24-24-24H184c-13.2,0-24,10.8-24,24v16c0,10.4,6.7,19.2,16,22.5v19c-9.3,3.3-16,12.1-16,22.5h-48V200z M176,296
	v-16c0-4.4,3.6-8,8-8h128c4.4,0,8,3.6,8,8v16c0,4.4-3.6,8-8,8H184C179.6,304,176,300.4,176,296z M24,384h51.3l29.7-29.7
	c1.5-1.5,3.5-2.3,5.7-2.3H168c4.4,0,8,3.6,8,8v40H16v-8C16,387.6,19.6,384,24,384z M168,480H24c-4.4,0-8-3.6-8-8v-56h160v56
	C176,476.4,172.4,480,168,480z M248,440c-4.4,0-8-3.6-8-8s3.6-8,8-8s8,3.6,8,8S252.4,440,248,440z M328,384h51.3l29.7-29.7
	c1.5-1.5,3.5-2.3,5.7-2.3H472c4.4,0,8,3.6,8,8v40H320v-8C320,387.6,323.6,384,328,384z M472,480H328c-4.4,0-8-3.6-8-8v-56h160v56
	C480,476.4,476.4,480,472,480z M416,368h48v16h-48V368z M424,136c0-26.5-21.5-48-48-48v16c17.6,0,32,14.4,32,32s-14.4,32-32,32v16
	C402.5,184,424,162.5,424,136z M72,144h16c0-13.2,10.8-24,24-24v-16C89.9,104,72,121.9,72,144z M264,48c15,0,29,5.8,39.6,16.4
	l11.3-11.3C301.3,39.5,283.2,32,264,32s-37.3,7.5-50.9,21.1l11.3,11.3C235,53.8,249,48,264,48z M32,235.3V312h16v-76.7l18.3,18.3
	l11.3-11.3L40,204.7L2.3,242.3l11.3,11.3L32,235.3z M32,328h16v16H32V328z M464,216h-16v76.7l-18.3-18.3l-11.3,11.3l37.7,37.7
	l37.7-37.7l-11.3-11.3L464,292.7L464,216L464,216z M448,184h16v16h-16V184z"/>
</svg>
