<svg xmlns="http://www.w3.org/2000/svg" viewBox="0 0 512 512"><path d="M182 96.2h114v112H182zm67-6l-70 4-18-30 77-3zm182-3l-81 3 29-30 71 3zm-126 10h126v112H305z" fill="#ffc729"/><path d="M295 218.2h177v197H295zm-159-2h153v94H136z" fill="#78d2fa"/><path d="M355 216.2h59v44h-59z" fill="#fff"/><path d="M288 413.2H143l-36-40v-56h55l2 50 67-1-2-49h59z" fill="#ff5a5a"/><g fill="#383856"><ellipse cx="77" cy="435.2" rx="67" ry="63"/><path d="M420.7 448.9s-23.3 55-60.3 55-63.7-55-63.7-55h124z"/></g><ellipse cx="76.3" cy="437.2" rx="23" ry="19.7" fill="#fff"/><path d="M76.8 512C34.5 512 0 477.5 0 435.2s34.5-76.8 76.8-76.8 76.8 34.5 76.8 76.8S119.1 512 76.8 512zm0-136.5c-32.9 0-59.7 26.8-59.7 59.7s26.8 59.7 59.7 59.7 59.7-26.8 59.7-59.7-26.8-59.7-59.7-59.7zm0 93.8c-18.8 0-34.1-15.3-34.1-34.1s15.3-34.1 34.1-34.1 34.1 15.3 34.1 34.1-15.3 34.1-34.1 34.1zm0-51.2c-9.4 0-17.1 7.7-17.1 17.1s7.7 17.1 17.1 17.1 17.1-7.7 17.1-17.1-7.7-17.1-17.1-17.1z"/><path d="M34.1 390.5c-1.3 0-2.5-.3-3.7-.8-3-1.4-4.8-4.4-4.8-7.7V83.3L1.9 33.8c-3.1-8.2-2.1-16.7 2.5-23.3A24.48 24.48 0 0 1 24.5 0c10.2 0 19.4 6.4 22.9 15.9L76 77.8c.5 1.1.8 2.3.8 3.6v286.2c0 4.3-3.2 7.9-7.5 8.5-10.9 1.4-21.3 5.7-29.9 12.6-1.5 1.2-3.4 1.8-5.3 1.8zM24.5 17.1c-2.5 0-4.7 1.2-6.1 3.2s-1.7 4.5-.9 6.9l24.3 50.5c.6 1.2.8 2.4.8 3.7v285.1c5.4-2.7 11.1-4.7 17.1-6.1V83.2l-28-60.7c-1.3-3.5-4.1-5.4-7.2-5.4zm461.9 443.7H142.8c-2.6 0-5.1-1.2-6.8-3.3-1.6-2.1-2.2-4.8-1.5-7.4 1.3-5.1 2-10.1 2-14.9s-.7-9.9-2-14.9c-.7-2.6-.1-5.3 1.5-7.4s4.1-3.3 6.7-3.3h343.6c14.1 0 25.6 11.5 25.6 25.6s-11.4 25.6-25.5 25.6zm-333.3-17.1h333.3c4.7 0 8.5-3.8 8.5-8.5s-3.8-8.5-8.5-8.5H153.1c.3 2.9.5 5.7.5 8.5s-.2 5.7-.5 8.5z"/><path d="M358.4 512c-33.7 0-62.7-25.2-67.5-58.5-.4-2.4.4-4.9 2-6.8s4-2.9 6.4-2.9h118.1c2.5 0 4.8 1.1 6.5 2.9 1.6 1.9 2.3 4.4 2 6.8-4.8 33.3-33.8 58.5-67.5 58.5zm-48.2-51.2c7.1 20 26.3 34.1 48.2 34.1s41.1-14.1 48.2-34.1h-96.4zm125-238.9h-256c-4.7 0-8.5-3.8-8.5-8.5V93.9c0-4.7 3.8-8.5 8.5-8.5h256c4.7 0 8.5 3.8 8.5 8.5v119.5c0 4.6-3.8 8.5-8.5 8.5zm-247.5-17.1h238.9V102.4H187.7v102.4z"/><path d="M298.7 221.9H179.2c-4.7 0-8.5-3.8-8.5-8.5V93.9c0-4.7 3.8-8.5 8.5-8.5h119.5c4.7 0 8.5 3.8 8.5 8.5v119.5c0 4.6-3.8 8.5-8.5 8.5zm-111-17.1h102.4V102.4H187.7v102.4zm247.5-25.6h-76.8c-4.7 0-8.5-3.8-8.5-8.5s3.8-8.5 8.5-8.5h76.8c4.7 0 8.5 3.8 8.5 8.5s-3.8 8.5-8.5 8.5zm0-34.1h-42.7c-4.7 0-8.5-3.8-8.5-8.5s3.8-8.5 8.5-8.5h42.7c4.7 0 8.5 3.8 8.5 8.5 0 4.6-3.8 8.5-8.5 8.5zm-17.1 128h-68.3c-4.7 0-8.5-3.8-8.5-8.5v-51.2c0-4.7 3.8-8.5 8.5-8.5h68.3c4.7 0 8.5 3.8 8.5 8.5v51.2c.1 4.6-3.8 8.5-8.5 8.5zM358.4 256h51.2v-34.1h-51.2V256z"/><path d="M477.9 426.7H290.1c-4.7 0-8.5-3.8-8.5-8.5V213.3c0-4.7 3.8-8.5 8.5-8.5h187.7c4.7 0 8.5 3.8 8.5 8.5v204.8c.1 4.7-3.7 8.6-8.4 8.6zm-179.2-17.1h170.7V221.9H298.7v187.7zm59.7-17.1h-34.1c-4.7 0-8.5-3.8-8.5-8.5v-34.1c0-4.7 3.8-8.5 8.5-8.5s8.5 3.8 8.5 8.5v25.6h25.6c4.7 0 8.5 3.8 8.5 8.5s-3.8 8.5-8.5 8.5zm85.3 0h-34.1c-4.7 0-8.5-3.8-8.5-8.5s3.8-8.5 8.5-8.5h25.6v-25.6c0-4.7 3.8-8.5 8.5-8.5s8.5 3.8 8.5 8.5V384c.1 4.7-3.8 8.5-8.5 8.5zm-213.3-17h-68.3c-4.7 0-8.5-3.8-8.5-8.5v-51.2c0-4.7 3.8-8.5 8.5-8.5h68.3c4.7 0 8.5 3.8 8.5 8.5V367c0 4.6-3.8 8.5-8.5 8.5zm-59.7-17.1h51.2v-34.1h-51.2v34.1z"/><path d="M290.1 324.3H136.5c-4.7 0-8.5-3.8-8.5-8.5V213.3c0-4.7 3.8-8.5 8.5-8.5h153.6c4.7 0 8.5 3.8 8.5 8.5v102.4c.1 4.7-3.8 8.6-8.5 8.6zm-145-17.1h136.5v-85.3H145.1v85.3z"/><path d="M290.1 426.7H142.8c-3.9 0-7.3-2.6-8.3-6.4-4.7-18.2-17.9-33.3-35.4-40.4-3.2-1.3-5.3-4.4-5.3-7.9v-56.2c0-4.7 3.8-8.5 8.5-8.5H290c4.7 0 8.5 3.8 8.5 8.5v102.4c.2 4.6-3.7 8.5-8.4 8.5zm-141-17.1h132.5v-85.3H110.9v42.2a76.77 76.77 0 0 1 38.2 43.1zm115.4-307.2h-85.3c-2.3 0-4.4-.9-6-2.5L139 65.8c-2.4-2.4-3.2-6.1-1.9-9.3s4.4-5.3 7.9-5.3h85.3c2.3 0 4.4.9 6 2.5l34.1 34.1c2.4 2.4 3.2 6.1 1.9 9.3-1.2 3.2-4.3 5.3-7.8 5.3zm-81.8-17.1h61.2l-17.1-17.1h-61.2l17.1 17.1zm244 17.1h-85.3c-3.4 0-6.6-2.1-7.9-5.3s-.6-6.9 1.9-9.3l34.1-34.1c1.6-1.6 3.8-2.5 6-2.5h85.3c3.4 0 6.6 2.1 7.9 5.3s.6 6.9-1.9 9.3l-34.1 34.1c-1.6 1.6-3.8 2.5-6 2.5zm-64.8-17.1h61.2l17.1-17.1H379l-17.1 17.1z"/></svg>