<svg xmlns="http://www.w3.org/2000/svg" viewBox="0 0 512 512"><path d="M443.92 248.134H63.774c-21.342 0-38.645-17.3-38.645-38.634V49.1c0-21.337 17.304-38.635 38.645-38.635h380.14c21.34 0 38.643 17.298 38.643 38.635v160.406c.004 21.34-17.298 38.64-38.64 38.64z" fill="#e6e7e8"/><path d="M501.394 462.882l-15.532-177.276 15.372-148.618c2.017-20.82-15.036-38.796-36.8-38.796H47.565c-21.762 0-38.814 17.98-36.8 38.796l15.37 148.618L10.6 462.882c-1.93 20.773 15.102 38.665 36.8 38.665h417.173c21.7 0 38.743-17.9 36.8-38.665z" fill="#0084ff"/><path d="M26.137 285.607L10.6 462.882c-1.93 20.773 15.102 38.665 36.8 38.665h417.173c21.707 0 38.742-17.9 36.8-38.665L485.84 285.606H26.137z" fill="#10bafc"/><path d="M511.804 461.97L496.36 285.688l15.276-147.693c1.235-12.744-2.888-25.05-11.605-34.654-2.13-2.347-4.5-4.447-7.022-6.3V49.1c0-27.064-22.023-49.084-49.1-49.084H63.774C36.703.006 14.68 22.025 14.68 49.1v51.53a46.62 46.62 0 0 0-2.706 2.721c-8.72 9.603-12.842 21.9-11.602 34.72l15.27 147.625L.197 461.916c-1.182 12.716 2.968 24.986 11.685 34.55 8.995 9.87 21.946 15.53 35.53 15.53h417.173c13.587 0 26.537-5.66 35.533-15.533 8.715-9.563 12.863-21.832 11.686-34.492zM35.577 49.1c0-15.543 12.648-28.187 28.196-28.187h380.14c15.547 0 28.194 12.644 28.194 28.187v39.26a48.94 48.94 0 0 0-7.675-.609H47.565a48.76 48.76 0 0 0-11.988 1.505V49.1zm449.095 433.298c-5.046 5.536-12.367 8.7-20.088 8.7H47.4c-7.72 0-15.04-3.174-20.086-8.7-4.707-5.165-6.952-11.75-6.316-18.594l14.7-167.74h72.576a10.45 10.45 0 0 0 10.449-10.449 10.45 10.45 0 0 0-10.449-10.449H35.56L21.165 135.98c-.658-6.804 1.573-13.407 6.28-18.594 5.047-5.56 12.38-8.748 20.12-8.748h416.87c7.74 0 15.074 3.188 20.12 8.747 4.707 5.185 6.938 11.788 6.285 18.526l-14.403 139.244h-76.03a10.45 10.45 0 0 0-10.449 10.449 10.45 10.45 0 0 0 10.449 10.449h75.88L491 463.85c.632 6.8-1.612 13.373-6.318 18.538zM184.037 65.834c5.76 0 10.45-4.687 10.45-10.45s-4.687-10.45-10.45-10.45-10.45 4.687-10.45 10.45 4.7 10.45 10.45 10.45zm144.023 0c5.76 0 10.45-4.687 10.45-10.45s-4.687-10.45-10.45-10.45-10.45 4.687-10.45 10.45 4.688 10.45 10.45 10.45zm-96.995 217.438c16.836-15.5 25.255-32 25.255-49.437 0-16.53-5.87-30.612-17.602-42.244s-25.97-17.448-42.703-17.448c-8.47 0-16.224 1.454-23.265 4.362s-13.522 7.27-19.44 13.086c-5.816 5.816-10.204 12.22-13.163 19.2s-4.44 14.67-4.44 23.035c0 5.272 4.4 9.5 9.643 9.5s9.5-4.25 9.5-9.5c0-11.223 4.03-20.763 12.1-28.622 7.96-8.06 17.653-12.1 29.08-12.1 11.224 0 20.916 4.032 29.08 12.1 8.164 7.86 12.245 17.398 12.245 28.622s-4.08 20.87-12.245 28.928c-8.06 7.96-17.755 11.94-29.08 11.94-5.166 0-9.414 4.148-9.487 9.324-.075 5.3 4.2 9.5 9.487 9.5 15 0 27.704 5.257 38.112 15.765 10.612 10.408 15.918 23 15.918 37.806 0 14.694-5.306 27.297-15.918 37.806-10.5 10.408-23.214 15.612-38.112 15.612-7.45 0-14.3-1.3-20.585-3.903s-12.17-6.505-17.68-11.7c-10.408-10.714-15.6-23.314-15.6-37.806 0-5.24-4.25-9.5-9.5-9.5-5.232 0-9.643 4.217-9.643 9.5 0 19.898 7.092 36.94 21.275 51.122 14.487 14.082 31.734 21.122 51.734 21.122 20.204 0 37.397-7.04 51.58-21.122 14.286-13.978 21.428-31.018 21.428-51.122s-7.187-37.1-21.275-51.274c-3.3-3.3-10.377-8.893-16.683-12.552zm120.457 126.58v-226.22c0-3.15-1.494-6.043-4.082-7.85-2.727-1.906-5.985-1.906-9.08-1.026l-38.112 12.704c-4.7 2.355-7.2 7.683-5.068 12.712.95 2.235 2.82 4.157 5.067 5.1 2.5 1.05 5.036.774 7.5-.2l24.642-7.96v212.75c0 5.272 4.4 9.5 9.642 9.5s9.5-4.25 9.5-9.5zm-30.15 36.318h-4.678a10.45 10.45 0 0 0-10.449 10.449 10.45 10.45 0 0 0 10.449 10.449h4.678a10.45 10.45 0 0 0 10.449-10.449c-.001-5.772-4.68-10.45-10.45-10.45zm135.292 0h-101.5a10.45 10.45 0 0 0-10.449 10.449 10.45 10.45 0 0 0 10.449 10.449h101.5a10.45 10.45 0 0 0 10.449-10.449 10.45 10.45 0 0 0-10.449-10.449z"/></svg>