<svg xmlns="http://www.w3.org/2000/svg" viewBox="0 0 475.2 475.2"><path d="M397 268l-237-1 16-125 251 1z" fill="#7ad2f5"/><path d="M463 118.9l-278.7.1 3.9-44.2h-80.7v30.8h47l-1.3 14.4-6.6 74.6H12.4v30.8h131.4l-2 22.8H80.5V279H139l-1.3 14.2h262.9L463 118.9zM171.5 262.4l3.3-37H200v-30.8h-22.5l4-44.7 237.7-.1-40.3 112.6H171.5z"/><path d="M310 385.9c7.9 9.4 20 14.8 33 14.8 25.5 0 48.8-19.9 53.1-45.3 2.2-13.1-1.1-26.1-9.1-35.6-7.9-9.4-20-14.8-33-14.8H176.3c-25.5 0-48.8 19.9-53.1 45.3-2.2 13.1 1.1 26.1 9.1 35.6 7.9 9.4 20 14.8 33 14.8 25.5 0 48.8-19.9 53.1-45.3 1.1-6.7.8-13.4-.8-19.6h88c-2.2 4.5-3.9 9.3-4.7 14.4-2.3 13.2 1 26.2 9.1 35.7zm-124.3-46.2c2.2 2.6 3 6.4 2.3 10.5-1.8 10.4-12.4 19.6-22.7 19.6-4 0-7.3-1.3-9.4-3.9-2.2-2.6-3-6.4-2.3-10.5 1.8-10.4 12.4-19.6 22.7-19.6 4 .1 7.2 1.4 9.4 3.9zm177.7 0c2.2 2.6 3 6.4 2.3 10.5-1.8 10.4-12.4 19.6-22.7 19.6-4 0-7.3-1.3-9.4-3.9-2.2-2.6-3-6.4-2.3-10.5 1.8-10.4 12.4-19.6 22.7-19.6 4 .1 7.2 1.4 9.4 3.9zM49.9 142.9h82.9v30.8H49.9z" fill="#a6d16a"/><path d="M12.4 193.8h189.4v31.6H12.4z" fill="#f15c5d"/></svg>