<svg xmlns="http://www.w3.org/2000/svg" viewBox="0 0 512 512"><path d="M426 432h-58c-16 16-16 42 0 58s42 16 58 0 16-42 0-58zm-194.8 0h-58c-16 16-16 42 0 58s42 16 58 0 16-42 0-58z" fill="#78d2fa"/><path d="M89.5,148.8l31.4,218.1h341.2l38.1-218.1H89.5z" fill="#b4dd7f"/><path d="M139.2,50.7h154.7v98.1H139.2V50.7z" fill="#ff826e"/><path d="M448.6,119.7v29.1H293.9V10h154.7V119.7z" fill="#78d2fa"/><path d="M508.9 141.5c-2.2-2.6-5.4-4.1-8.7-4.1h-41.6v-17.7c0-5.5-4.5-10-10-10s-10 4.5-10 10v17.7H303.8V20.1h134.7v19.2c0 5.5 4.5 10 10 10s10-4.5 10-10V10c0-5.5-4.5-10-10-10H293.8c-5.5 0-10 4.5-10 10v30.6H139.1c-5.5 0-10 4.5-10 10v86.7H96.4l-9.4-65c-.7-4.9-5-8.6-9.9-8.6H10c-5.5 0-10 4.5-10 10s4.5 10 10 10h58.3l41.5 286.1c2.9 15.7 7.2 31.7 14.9 44.4 7.6 12.5 18 20.8 31.1 24.8-8.9 18.9-5.6 42.3 10.1 57.9 10 10 23 14.9 36.1 14.9s26.2-5 36.1-14.9c14.9-14.9 18.6-36.7 11.3-55.1h100c-2.4 6-3.6 12.4-3.6 19 0 13.6 5.3 26.5 15 36.1 10 10 23 14.9 36.1 14.9s26.2-5 36.1-14.9c9.6-9.6 15-22.5 15-36.1 0-6.6-1.3-13-3.6-19H462c5.5 0 10-4.5 10-10s-4.5-10-10-10H174.2c-22.3-.6-34.2-12.2-42-43.7H462c5.5 0 10.3-4 11.2-9.4l38.1-218.1a11.11 11.11 0 0 0-2.4-9.1zm-90.1 341.4c-12.1 12.1-31.7 12.1-43.8 0-5.9-5.9-9.1-13.6-9.1-21.9 0-7 2.3-13.6 6.5-19h49c4.2 5.4 6.5 12 6.5 19 0 8.2-3.3 16-9.1 21.9zm-194.8 0c-12.1 12.1-31.7 12.1-43.8 0-11.1-11.1-12-28.7-2.6-40.9h49c9.4 12.1 8.6 29.7-2.6 40.9zm247.5-236.5H374v-86.2h112.6l-15.1 86.2zm-233.6 22.8H354v86.2H237.9v-86.2zm-20.1 86.3h-87.1l-12.4-86.2h99.5v86.2zm20.1-109.1v-86.2H354v86.2H237.9zM149.1 60.7h134.7v76.7H149.1V60.7zm68.7 99.5v86.2H115l-12.4-86.2h115.2zm234.6 195.3H374v-86.2h93.5l-15.1 86.2zm4.5-281.7c-2.4-3.6-7-5.3-11.1-4.1-4 1.1-6.9 4.7-7.2 8.8-.3 4.2 2 8.2 5.9 10 3.8 1.7 8.3.9 11.2-2 3.3-3.3 3.8-8.7 1.2-12.7z"/></svg>