<?xml version="1.0" encoding="utf-8"?>
<!-- Generator: Adobe Illustrator 22.1.0, SVG Export Plug-In . SVG Version: 6.00 Build 0)  -->
<svg version="1.1" id="Layer_1" xmlns="http://www.w3.org/2000/svg" xmlns:xlink="http://www.w3.org/1999/xlink" x="0px" y="0px"
	 viewBox="0 0 512 512" style="enable-background:new 0 0 512 512;" xml:space="preserve">
<style type="text/css">
	.st0{fill:#ED3237;}
</style>
<path class="st0" d="M485.1,27.5H26.9C12.1,27.5,0,39.6,0,54.4v329.9c0,14.8,12.1,26.9,26.9,26.9h173.5l-7,56.1h-29.1
	c-4.7,0-8.6,3.8-8.6,8.6c0,4.7,3.8,8.6,8.6,8.6h183.3c4.7,0,8.6-3.8,8.6-8.6c0-4.7-3.8-8.6-8.6-8.6h-29.1l-7-56.1H485
	c14.8,0,26.9-12.1,26.9-26.9V54.4C512,39.6,499.9,27.5,485.1,27.5z M210.8,467.3l7-56.1h76.5l7,56.1H210.8L210.8,467.3z
	 M494.8,384.3c0,5.4-4.4,9.7-9.7,9.7H26.9c-5.4,0-9.7-4.4-9.7-9.7V54.4c0-5.4,4.4-9.7,9.7-9.7h458.2c5.4,0,9.7,4.4,9.7,9.7
	L494.8,384.3L494.8,384.3z M402.6,64.1H45.2c-4.7,0-8.6,3.8-8.6,8.6v284.1c0,4.7,3.8,8.6,8.6,8.6h27.5c4.7,0,8.6-3.8,8.6-8.6
	c0-4.7-3.8-8.6-8.6-8.6H53.8V81.3h348.8c4.7,0,8.6-3.8,8.6-8.6C411.2,68,407.4,64.1,402.6,64.1L402.6,64.1z M466.8,64.1h-27.5
	c-4.7,0-8.6,3.8-8.6,8.6c0,4.7,3.8,8.6,8.6,8.6h18.9v266.9H109.4c-4.7,0-8.6,3.8-8.6,8.6c0,4.7,3.8,8.6,8.6,8.6h357.4
	c4.7,0,8.6-3.8,8.6-8.6V72.7C475.3,68,471.5,64.1,466.8,64.1z M411.8,110c-14.8,0-26.9,12.1-26.9,26.9c0,4.6,1.1,8.9,3.2,12.6
	l-68.8,72.9c-3.4-1.6-7.2-2.5-11.3-2.5c-7.2,0-13.7,2.8-18.5,7.4l-58.8-31.1c0.2-1.4,0.4-2.9,0.4-4.3c0-14.8-12.1-26.9-26.9-26.9
	s-26.9,12.1-26.9,26.9c0,4.2,0.9,8.1,2.6,11.6l-67.3,65.3c-3.7-1.9-7.9-3-12.3-3c-14.8,0-26.9,12.1-26.9,26.9s12.1,26.9,26.9,26.9
	s26.9-12.1,26.9-26.9c0-4.2-0.9-8.1-2.6-11.6l67.3-65.3c3.7,1.9,7.9,3,12.3,3c7.2,0,13.7-2.8,18.5-7.4l58.8,31.1
	c-0.2,1.4-0.4,2.9-0.4,4.3c0,14.8,12.1,26.9,26.9,26.9s26.9-12.1,26.9-26.9c0-4.6-1.1-8.9-3.2-12.6l68.8-72.9
	c3.4,1.6,7.2,2.5,11.3,2.5c14.8,0,26.9-12.1,26.9-26.9S426.6,110,411.8,110z M100.2,302.4c-5.4,0-9.7-4.4-9.7-9.7s4.4-9.7,9.7-9.7
	s9.7,4.4,9.7,9.7S105.6,302.4,100.2,302.4z M204.1,201.6c-5.4,0-9.7-4.4-9.7-9.7s4.4-9.7,9.7-9.7c5.4,0,9.7,4.4,9.7,9.7
	S209.4,201.6,204.1,201.6z M307.9,256.6c-5.4,0-9.7-4.4-9.7-9.7c0-5.4,4.4-9.7,9.7-9.7s9.7,4.4,9.7,9.7
	C317.7,252.2,313.3,256.6,307.9,256.6z M411.8,146.6c-5.4,0-9.7-4.4-9.7-9.7s4.4-9.7,9.7-9.7s9.7,4.4,9.7,9.7
	S417.1,146.6,411.8,146.6z M411.8,183.3c-4.7,0-8.6,3.8-8.6,8.6v128.3c0,4.7,3.8,8.6,8.6,8.6c4.7,0,8.6-3.8,8.6-8.6V191.9
	C420.4,187.1,416.5,183.3,411.8,183.3L411.8,183.3z M204.1,238.2c-4.7,0-8.6,3.8-8.6,8.6v73.3c0,4.7,3.8,8.6,8.6,8.6
	c4.7,0,8.6-3.8,8.6-8.6v-73.3C212.7,242.1,208.8,238.2,204.1,238.2L204.1,238.2z M307.9,293.2c-4.7,0-8.6,3.8-8.6,8.6v18.3
	c0,4.7,3.8,8.6,8.6,8.6s8.6-3.8,8.6-8.6v-18.3C316.5,297.1,312.7,293.2,307.9,293.2z"/>
</svg>
