<svg xmlns="http://www.w3.org/2000/svg" viewBox="0 0 283 483.7"><path d="M23.5 102.5H260c12.6 0 22.8 10.2 22.8 22.8v332.4c0 12.6-10.2 22.8-22.8 22.8H23.5C10.9 480.5.7 470.3.7 457.7V125.3c.1-12.6 10.3-22.8 22.8-22.8z"/><path d="M266.3 142.5v297.9a19.89 19.89 0 0 1-19.9 19.9H37.1a19.89 19.89 0 0 1-19.9-19.9V142.5a19.89 19.89 0 0 1 19.9-19.9h209.3c4.2 0 8.2 1.2 11.6 3.6 5.2 3.8 8.3 9.9 8.3 16.3z" fill="#78d2fa"/><path d="M248.8 133L234 415.8l-18.5-286.4h22.3c3.9 0 7.8 1.2 11 3.6z" fill="#006168"/><path d="M44 23.2h192.1v396H44z" fill="#f8f8f8" stroke="#000" stroke-width="4" stroke-miterlimit="10"/><text transform="translate(52.558 81.263)" fill="#ff5a5a" font-family="Montserrat-Bold" font-size="53.39">T</text><path d="M96.3 44.2h132.8v37.1H96.3z" fill="#a5dc69"/><path d="M52.4 109.2h176.5v5.2H52.4zm0 31.5h176.5v5.2H52.4zm0 31.6h176.5v5.2H52.4zm0 31.5h176.5v5.2H52.4zm0 31.6h176.5v5.2H52.4zm0 31.5h176.5v5.2H52.4zm0 31.6h176.5v5.2H52.4zm0 31.6h176.5v5.2H52.4zm0 31.5h176.5v5.2H52.4zm0 31.6h176.5v5.2H52.4z" fill="#383856"/></svg>