<svg xmlns="http://www.w3.org/2000/svg" viewBox="0 0 496 496"><path d="M319.1 168.6c12.6-13.9 21.2-31.5 23.9-51a94.63 94.63 0 0 1 49-13.6c53 0 96 43 96 96s-43 96-96 96a95.43 95.43 0 0 1-60.8-21.7C309.8 256.7 296 230 296 200c0-4.6.5-9 1-13.4 8.2-4.9 15.6-11 22.1-18zm-120.1 18c.6 4.4 1 8.8 1 13.4 0 30-13.8 56.7-35.2 74.3A95.43 95.43 0 0 1 104 296c-53 0-96-43-96-96s43-96 96-96c17.9 0 34.6 5 49 13.6 4.1 29.4 21.6 54.5 46 69z" fill="#f5f7fa"/><path d="M249.4 312c14.6.5 27.4 7.7 35.7 18.6 6.9 8.7 10.9 19.8 10.9 31.4v14c0 17.8-9.7 33.2-24 41.5V432l40.8 8.2c11.4 2.2 21.2 8.4 28.2 16.9s11 19.3 11 31H144c0-23.3 16.4-43.3 39.2-47.8L224 432v-14.5c-14.3-8.3-24-23.8-24-41.5v-16c0-11.4 3.9-21.8 10.5-29.9 8.8-11 22.3-18.1 37.5-18.1h1.4z" fill="#78d2fa"/><path d="M343 117.6c-2.7 19.4-11.4 37-23.9 51h-.1L248 104V8c53 0 96 43 96 96 0 4.6-.3 9.2-1 13.6z" fill="#ff826e"/><path d="M319.1 168.6c-6.5 7-13.9 13.1-22.1 18.1-14.3 8.5-31.1 13.4-49 13.4s-34.7-4.9-49-13.4c-24.4-14.6-41.8-39.7-46-69-.6-4.4-1-9-1-13.6h96l71.1 64.5z" fill="#b4dd7f"/><path d="M248 8v96h-96c0-53 43-96 96-96z" fill="#ffc729"/><path d="M408 192h32v48h-32v-48zm-64-32h32v80h-32v-80z" fill="#ffeaa7"/><path d="M152 208l-80 40v-80l80 40z" fill="#ff826e"/><path d="M392 96c-13.7 0-27.3 2.8-40 8.1v-.1C352 46.7 305.3 0 248 0S144 46.7 144 104v.1c-12.7-5.3-26.3-8.1-40-8.1C46.7 96 0 142.7 0 200s46.7 104 104 104c22.1 0 42.5-7 59.4-18.8l37 45.3c-5.5 8.8-8.4 18.9-8.4 29.5v16c0 18.3 9.1 35.5 24 45.9v3.5l-34.3 6.9C155.2 437.6 136 461 136 488v8h224v-8c0-27-19.2-50.4-45.7-55.7l-34.4-6.9v-3.5c14.9-10.4 24-27.6 24-45.9v-14c0-11.3-3.3-22-8.8-31l37.4-45.8c17 11.8 37.4 18.8 59.5 18.8 57.3 0 104-46.7 104-104S449.3 96 392 96zm-56 8c0 19.9-6.7 38.2-17.9 52.9L256 100.5V16.4c44.8 4.1 80 41.8 80 87.6zm-88 88c-45.8 0-83.5-35.2-87.6-80h84.5l62.5 56.8C291.7 183.1 270.9 192 248 192zm-8-175.6V96h-79.6c3.8-42.1 37.5-75.8 79.6-79.6zM16 200c0-48.5 39.5-88 88-88 14.6 0 28.9 3.8 41.8 10.9 5.3 28.5 22.2 53 45.6 68.3.3 3.2.6 6.1.6 8.9 0 48.5-39.5 88-88 88S16 248.5 16 200zm192 0c10 4.2 20.8 6.7 32 7.6v97c-10.8 1.5-20.8 6.2-29 13.5l-35.2-43c19.8-19 32.2-45.6 32.2-75.1zm80 176c0 14.2-7.7 27.5-20 34.6l-4 2.3v25.6l47.2 9.4c16.3 3.3 28.8 16.2 32 32H152.8c3.2-15.8 15.7-28.7 32-32l47.2-9.4v-25.6l-4-2.3c-12.3-7.1-20-20.4-20-34.6v-16c0-10.9 4.3-21.1 12.2-28.7 7.8-7.6 18.3-11.6 29.1-11.3 21.4.6 38.8 19.5 38.8 42v14zm-3.3-57.5c-7.9-7.2-17.9-12.2-28.7-13.8v-97c11.3-.9 22-3.4 32-7.6 0 29.5 12.4 56.1 32.2 75.1l-35.5 43.3zM392 288c-48.5 0-88-39.5-88-88 0-2.7.2-5.7.6-8.9 12.7-8.3 23.4-19.2 31.4-32V248h48v-96h-43.8c4.7-9 8.1-18.8 10-29.1 12.9-7 27.2-10.9 41.8-10.9 48.5 0 88 39.5 88 88s-39.5 88-88 88zm-40-56v-64h16v64h-16zM64 155.1V261l105.9-53L64 155.1zm16 25.8l54.1 27.1L80 235.1v-54.2zM400 248h48v-64h-48v64zm16-48h16v32h-16v-32z"/></svg>