<svg xmlns="http://www.w3.org/2000/svg" xmlns:xlink="http://www.w3.org/1999/xlink" viewBox="0 0 512 511"><path d="M29.4,36.5c-10.7,0-19.4,8.9-19.4,20v200c0,11.1,8.6,20,19.4,20H312v-240H29.4z" fill="#a5dc69"/><path d="M483.1 36.5H332v240h151.1c10.5 0 18.9-8.9 18.9-20v-200c0-11.1-8.4-20-18.9-20z" fill="#ff5a5a"/><path d="M500.6 392.6c-5.9-30.8-33.8-56.7-70-56-12.8.2-24.6-6.5-31.9-17l-30.1-43 33.8-48.3c18.3-26.1 13-62-12.2-81.7-.8-.6-1.7-1.3-2.6-1.9L265.1 319.6c-7.3 10.5-19.2 17.2-31.9 17-35.7-.6-63.9 24.9-70 56-9.6 49.5 33.1 92.2 82.6 82.6 26.9-5.2 49-27 54.5-53.8 1.8-9 2-17.8.6-26.1-1.8-10.9-.2-22.1 6.2-31.1l24.7-35.3 24.7 35.3c6.3 9.1 7.9 20.2 6.2 31.1-1.3 8.3-1.2 17.1.6 26.1 5.5 26.9 27.6 48.6 54.5 53.8 49.8 9.5 92.4-33.1 82.8-82.6zM232 436.5c-16.5 0-30-13.5-30-30s13.5-30 30-30 30 13.5 30 30-13.5 30-30 30zm200 0c-16.5 0-30-13.5-30-30s13.5-30 30-30 30 13.5 30 30-13.5 30-30 30z" fill="#79d2f6"/><path d="M176.3 106.5c5.5 0 10-4.5 10-10s-4.5-10-10-10-10 4.5-10 10 4.4 10 10 10zm-80.3 40c-6.4 0-11.4-6-9.7-12.6.7-2.7 2.6-5 5.1-6.3 4.7-2.4 10.2-.8 15.3 4.1 3.3 3.1 8.3 3.9 12.2 1.5a10.03 10.03 0 0 0 1.8-15.8c-5.1-4.9-10.2-7.7-14.7-9.2V96.7c0-4.7-3.1-8.9-7.6-9.9-6.6-1.5-12.4 3.4-12.4 9.7v11.7c-11.6 4.1-20 15.2-20 28.3 0 16.5 13.4 30 29.9 30 4.5 0 8.6 3 9.7 7.3 1.7 6.7-3.3 12.7-9.7 12.7-4.2 0-8.8-2.7-12.9-7.5-2.9-3.5-7.9-4.7-12-2.7-6.1 3-7.5 10.6-3.4 15.5 5.3 6.4 11.6 10.8 18.3 13v11.5c0 4.7 3.1 8.9 7.6 9.9 6.5 1.5 12.4-3.4 12.4-9.7v-11.7c11.6-4.1 20-15.2 20-28.3.1-16.5-13.4-30-29.9-30zm136.3 220c-22.1 0-40 17.9-40 40s17.9 40 40 40 40-17.9 40-40-18-40-40-40zm0 60c-11 0-20-9-20-20s9-20 20-20 20 9 20 20-9 20-20 20zm200 20c22.1 0 40-17.9 40-40s-17.9-40-40-40-40 17.9-40 40 17.9 40 40 40zm0-60c11 0 20 9 20 20s-9 20-20 20-20-9-20-20 8.9-20 20-20zm49.7-360H30c-16.6 0-30 13.4-30 30v200c0 16.6 13.4 30 30 30h246.2L257 313.8c-5.7 8.1-14.5 12.9-23.6 12.7-40.8-.7-73 28.2-79.9 64.1-5.1 26.5 3.1 53.6 21.9 72.4 18.9 18.9 46 27 72.4 21.9 31-6 56.1-30.8 62.4-61.7 2-9.9 2.3-19.9.7-29.6-1-6.4-1.1-15.8 4.5-23.8l16.6-23.6 16.5 23.6c5.6 8 5.5 17.4 4.5 23.8-1.6 9.7-1.3 19.7.7 29.7 6.3 30.9 31.4 55.7 62.4 61.7 5.2 1 10.4 1.5 15.6 1.5 21.2 0 41.7-8.3 56.8-23.4 18.8-18.8 27-45.9 21.9-72.4-6.9-35.9-39.3-64.9-80-64.1-9 .2-17.9-4.6-23.6-12.7l-19.1-27.3H482c16.6 0 30-13.4 30-30v-200c0-16.7-13.4-30.1-30-30.1zM299.3 358.4c-7.4 10.5-10.1 24.2-7.8 38.4 1.2 7.3 1 14.9-.5 22.4-4.6 22.7-23.8 41.6-46.6 46-20.3 3.9-40.1-2.1-54.5-16.4-14.3-14.3-20.3-34.2-16.4-54.5 5.1-26.2 29.1-48.4 60-47.9 15.7.3 30.8-7.6 40.3-21.2L390 159.3c16.1 17 18.4 43.5 4.7 63.1l-95.4 136zm131-11.9c33.8 0 56 23 60.8 47.9 3.9 20.3-2.1 40.1-16.4 54.5-14.3 14.3-34.2 20.3-54.5 16.4-22.8-4.4-42-23.3-46.6-46-1.5-7.6-1.7-15.1-.5-22.5 2.3-14.3-.5-27.9-7.8-38.4l-20.7-29.6 24.4-34.9 21.9 31.3c9.3 13.4 24 21.3 39.4 21.3zm61.7-90c0 5.5-4.5 10-10 10h-93.9l22.8-32.6a63.57 63.57 0 0 0 4.5-7.4h26.5c5 0 9.5-3.6 10.2-8.5.9-6.2-3.9-11.5-9.9-11.5h-19.8c3.2-17.3-.4-35.2-9.6-50h29.1c5 0 9.5-3.6 10.2-8.5.9-6.2-3.9-11.5-9.9-11.5h-48.4l-.1-.1a10.52 10.52 0 0 0-7.5-1.7c-2.6.4-4.9 1.9-6.5 4.1l-89.4 127.6H30c-5.5 0-10-4.5-10-10v-200c0-5.5 4.5-10 10-10h282v9.7c0 5 3.6 9.5 8.5 10.2 6.2.9 11.5-3.9 11.5-9.9v-10h150c5.5 0 10 4.5 10 10v200.1z"/><use xlink:href="#B"/><use xlink:href="#B" y="60"/><path d="M262.3 206.5h-86c-5.5 0-10 4.5-10 10s4.5 10 10 10h86c5.5 0 10-4.5 10-10s-4.5-10-10-10zm0-60h-86c-5.5 0-10 4.5-10 10s4.5 10 10 10h86c5.5 0 10-4.5 10-10s-4.5-10-10-10zm180-60h-60c-5.5 0-10 4.5-10 10s4.5 10 10 10h60c5.5 0 10-4.5 10-10s-4.5-10-10-10zm-180 0h-46c-5.5 0-10 4.5-10 10s4.5 10 10 10h46c5.5 0 10-4.5 10-10s-4.5-10-10-10z"/><defs ><path id="B" d="M312 96.8v19.4c0 5 3.6 9.5 8.5 10.2 6.2.9 11.5-3.9 11.5-9.9v-20c0-6-5.3-10.8-11.5-9.9-4.9.7-8.5 5.2-8.5 10.2z"/></defs></svg>