<svg xmlns="http://www.w3.org/2000/svg" viewBox="0 0 544.8 377.2" fill="none" stroke-width="14" stroke-miterlimit="10"><path d="M523.5 80.2a17.4 17.4 0 0 1 4.5.6V54.2H17.8v26.6a17.4 17.4 0 0 1 4.5-.6c9.5 0 17.4 7.7 17.4 17.4S32 115 22.3 115a17.4 17.4 0 0 1-4.5-.6v26.1c1.4-.2 2.9-.2 4.5-.2 26.5.8 47.5 22.9 46.8 49.5-.7 25.6-21.3 46.2-46.8 46.8-1.5 0-3-.1-4.5-.2v27.1a17.4 17.4 0 0 1 4.5-.6c9.5 0 17.4 7.8 17.4 17.4 0 9.5-7.7 17.4-17.4 17.4a17.4 17.4 0 0 1-4.5-.6V324H528v-26.6a17.4 17.4 0 0 1-4.5.6c-9.5 0-17.4-7.8-17.4-17.4 0-9.5 7.7-17.4 17.4-17.4a17.4 17.4 0 0 1 4.5.6v-27.1c-1.5 0-2.9.2-4.5.2-26.5-.8-47.5-22.9-46.8-49.5.7-25.6 21.3-46.2 46.8-46.8 1.5 0 3 0 4.5.2v-26.2a17.4 17.4 0 0 1-4.5.6c-9.5 0-17.4-7.7-17.4-17.4.1-9.8 7.8-17.6 17.4-17.6z" stroke="#000"/><path d="M107.9 105.1h329v167h-329z" stroke="#78d2fa" stroke-dasharray="11.07,11.07"/></svg>