<svg xmlns="http://www.w3.org/2000/svg" viewBox="0 0 512 512"><path d="M333.7 370.5l120.7-67.4c12-7.1 27.8-6.2 37.8 3.6 14.9 14.5 12.1 37.5-3.7 48.3-103.8 95.9-255.3 130.2-391.9 94H76V329h20c14.4 0 28.1-6.1 37.8-16.8 9.4-10.5 22-18.2 36-21.3 27.7-6.2 53.2 4 69.2 22.7 7.9 9.3 18.7 15.5 30.9 15.5H306c16.6 0 30 13.4 30 30 0 4-.8 7.9-2.3 11.4z" fill="#fde4e4"/><path d="M502,149v100H202V149H502z" fill="#78d2fa"/><path d="M202,89h300v60H202V89z" fill="#383856"/><path d="M202,49h300v40H202V49z" fill="#76e2f8"/><path d="M10,329h66v120H10V329z" fill="#ff5a5a"/><path d="M10 459h85.3c35.7 9.4 72.8 14.1 110.2 14.1h1.6c5.5 0 10-4.5 10-10s-4.5-10-10-10c-36.6.1-72.9-4.5-107.8-13.8a10.9 10.9 0 0 0-2.6-.3H86V339h10c17.2 0 33.7-7.3 45.2-20.2 8.2-9.2 19.2-15.6 30.8-18.3 22.5-5.1 44.7 2.2 59.4 19.4 10.5 12.3 24.1 19 38.5 19H306c11 0 20 9 20 20s-8.9 20-20 20h-90c-5.5 0-10 4.5-10 10s4.5 10 10 10h90c15 0 28.4-8.2 35.3-21.3l118.2-66c8.5-5 19.4-4.1 25.8 2.1 10.3 10 8.2 25.6-2.4 32.8-5.1 3.5-72.3 74.9-198.1 98.9-5.4 1-9 6.3-7.9 11.7.9 4.8 5.1 8.1 9.8 8.1.6 0 1.3-.1 1.9-.2 78.4-15 149.7-50.4 206.3-102.5 20.9-14.9 23.3-44.9 4.4-63.3-12.9-12.5-33.3-14.6-49.7-5.1l-104 58.1c-3.1-19-19.6-33.5-39.5-33.5H270c-8.4 0-16.7-4.3-23.3-12-19.6-23-49.1-32.7-79-25.9-15.6 3.5-30.3 12.2-41.3 24.4-7.7 8.6-18.8 13.5-30.3 13.5h-86c-5.5 0-10 4.5-10 10v120C0 454.5 4.5 459 10 459zm10-120h46v100H20V339zM502 39H202c-5.5 0-10 4.5-10 10v200c0 5.5 4.5 10 10 10h300c5.5 0 10-4.5 10-10V49c0-5.5-4.5-10-10-10zM212 99h280v40H212V99zm280-40v20H212V59h280zM212 239v-80h280v80H212zm45 222c0-5.5-4.5-10-10-10s-10 4.5-10 10 4.5 10 10 10 10-4.5 10-10z"/></svg>