<svg xmlns="http://www.w3.org/2000/svg" viewBox="0 0 512 512"><path d="M438.85 458.1l58.475-103.955c2.896-5.15 4.298-11.917 4.224-18.668H157.262L87.034 470.858c5.718 3.63 12.32 5.902 18.357 5.902h301.544c11.778 0 26.138-8.396 31.916-18.66z" fill="#0084ff"/><path d="M245.565 165.934L175.32 40.67c-5.85 3.336-10.98 7.93-13.98 12.987L15.434 299.393c-6.015 10.13-6.625 27.037-1.356 37.573l60.318 120.64c2.57 5.136 7.207 9.806 12.643 13.255l158.526-304.928z" fill="#1eb615"/><path d="M340.05 335.476h161.5c-.073-6.71-1.605-13.4-4.583-18.46L342.074 53.69c-5.977-10.147-20.495-18.448-32.27-18.448h-116.1c-5.904 0-12.506 2.082-18.38 5.434l164.74 294.8z" fill="#ffaf00"/><path d="M511.997 335.36c-.096-8.8-2.237-17.205-6.024-23.642L351.077 48.386c-7.793-13.23-25.923-23.594-41.273-23.594h-116.1c-7.498 0-15.864 2.418-23.558 6.807-.01.006-.02.014-.03.02-7.644 4.368-13.946 10.3-17.75 16.704L6.45 294.06c-7.895 13.295-8.633 33.75-1.718 47.58l60.32 120.644c3.3 6.615 9.13 12.795 16.388 17.4.01.005.02.01.028.016 7.643 4.843 16.136 7.5 23.923 7.5h301.544c15.432 0 33.45-10.536 41.022-23.988l58.475-103.955c3.686-6.553 5.663-15.042 5.565-23.903zM193.694 45.7h116.1c8.076 0 19.167 6.34 23.266 13.298l154.895 263.327c.48.816.9 1.727 1.288 2.713H346.18L190.27 46.025c1.198-.22 2.347-.336 3.424-.336zm128.55 279.34h-147.6l71.142-136.844 76.47 136.844zm-298.82 7.266c-3.68-7.355-3.203-20.495.995-27.566L170.325 58.992a18.52 18.52 0 0 1 1.838-2.537l61.4 109.894L84.17 453.73a14.03 14.03 0 0 1-.429-.794l-60.318-120.64zM488.22 349.02l-58.474 103.953c-3.93 6.98-14.8 13.338-22.8 13.338H105.4c-1.242 0-2.578-.18-3.953-.496l62.33-119.893h325.816c-.387 1.132-.843 2.173-1.364 3.098zm-86.63 40.412h4.678a10.45 10.45 0 0 0 10.448-10.448 10.45 10.45 0 0 0-10.448-10.448H401.6a10.45 10.45 0 0 0-10.448 10.448 10.45 10.45 0 0 0 10.448 10.448zm-135.285-20.896a10.45 10.45 0 0 0-10.448 10.448 10.45 10.45 0 0 0 10.448 10.448h101.483a10.45 10.45 0 0 0 10.448-10.448 10.45 10.45 0 0 0-10.448-10.448H266.305z"/></svg>