<svg xmlns="http://www.w3.org/2000/svg" viewBox="0 0 394.5 478.6"><path d="M210.1,58.9h175.1v327.6H210.1V58.9z" fill="#f0f0fb"/><path d="M354.6 9.3h-114c-16.8 0-30.5 13.7-30.5 30.5v19.1h175.1V39.8c0-16.8-13.8-30.5-30.6-30.5zm30.6 426.1v-48.9H210.1v48.9c0 16.8 13.7 30.5 30.5 30.5h114c16.8 0 30.6-13.7 30.6-30.5z" fill="#78d2fa"/><path d="M91.6,157.7h149.7v129.9H91.6V157.7z" fill="#ff5a5a"/><path d="M255 407.6c-10.2 0-18.6 8.3-18.6 18.6 0 10.2 8.3 18.6 18.6 18.6s18.6-8.3 18.6-18.6c0-10.2-8.4-18.6-18.6-18.6zm139.5 27.8V39.8c0-22-17.9-39.8-39.8-39.8H155.8c-22 0-39.8 17.9-39.8 39.8v108.6H8.3c-.2 0-.3 0-.5.1-.1 0-.3 0-.4.1-.1 0-.1 0-.2.1-.6.1-1.2.3-1.7.6-.9.4-1.7 1-2.5 1.7l-.6.6c-.1.1-.2.3-.4.4v.1c-.1.1-.1.2-.2.2-.1.1-.2.3-.3.5-.1.1-.1.2-.2.3s-.2.3-.3.4-.1.3-.2.4-.1.3-.2.4-.1.3-.2.4c0 .1-.1.3-.1.4 0 .2-.1.3-.1.5 0 .1-.1.3-.1.4 0 .2-.1.3-.1.5 0 .1 0 .3-.1.4v130.8c0 5.1 4.2 9.3 9.3 9.3H116v138.4c0 22 17.9 39.8 39.8 39.8h198.8c22 0 39.9-17.9 39.9-39.8v-48.8c0-.1 0 48.8 0 48.8zM155.8 18.6h198.8c11.7 0 21.3 9.5 21.3 21.3v9.8H134.6v-9.8c0-11.8 9.5-21.3 21.2-21.3zM214.9 167l-89.6 71.6L35.7 167h179.2zM18.6 266.6h31.7c5.1 0 9.3-4.2 9.3-9.3s-4.2-9.3-9.3-9.3H18.6v-71l100.9 80.8c1.7 1.4 3.7 2 5.8 2s4.1-.7 5.8-2L232 177.1v101.3H18.6v-11.8zM241.3 297c5.1 0 9.3-4.2 9.3-9.3V156.8c0-.1 0-.3-.1-.4 0-.2 0-.3-.1-.5 0-.1-.1-.3-.1-.4 0-.2-.1-.3-.1-.5 0-.1-.1-.3-.1-.4-.1-.1-.1-.3-.2-.4s-.1-.3-.2-.4-.1-.3-.2-.4-.2-.3-.3-.4-.1-.2-.2-.3c-.1-.2-.2-.3-.3-.5-.1-.1-.1-.2-.2-.2v-.1c-.1-.1-.2-.3-.4-.4l-.6-.6c-.8-.7-1.6-1.3-2.5-1.7-.5-.2-1.1-.4-1.7-.6-.1 0-.1 0-.2-.1-.1 0-.3 0-.4-.1-.2 0-.3-.1-.5-.1H134.6V68.2h241.3v309H134.6V297h106.7zm113.3 159.6H155.8c-11.7 0-21.2-9.5-21.2-21.3v-39.6h241.3v39.6c0 11.8-9.5 21.3-21.3 21.3z"/><path d="M287.7 100.7h.2c5.1 0 9.3-4.2 9.3-9.3s-4.2-9.3-9.3-9.3h-.2c-5.1 0-9.3 4.2-9.3 9.3s4.2 9.3 9.3 9.3zm26.9 0h38.1c5.1 0 9.3-4.2 9.3-9.3s-4.2-9.3-9.3-9.3h-38.1c-5.1 0-9.3 4.2-9.3 9.3s4.2 9.3 9.3 9.3z" fill="#a5dc69"/><path d="M77.7 248.1h-.4c-5.1 0-9.3 4.2-9.3 9.3s4.2 9.3 9.3 9.3h.4c5.1 0 9.3-4.2 9.3-9.3 0-5.2-4.1-9.3-9.3-9.3z"/></svg>