<?xml version="1.0" encoding="utf-8"?>
<!-- Generator: Adobe Illustrator 22.1.0, SVG Export Plug-In . SVG Version: 6.00 Build 0)  -->
<svg version="1.1" id="Layer_1" xmlns="http://www.w3.org/2000/svg" xmlns:xlink="http://www.w3.org/1999/xlink" x="0px" y="0px"
	 viewBox="0 0 475.2 423.2" style="enable-background:new 0 0 475.2 423.2;" xml:space="preserve">
<style type="text/css">
	.st0{fill:#ED3237;stroke:#ED3237;stroke-width:4;stroke-miterlimit:10;}
	.st1{fill:#ED3237;stroke:#ED3237;stroke-width:2;stroke-miterlimit:10;}
</style>
<path class="st0" d="M430.1,90.8h-9.3V6.6c0-2-1.7-3.7-3.7-3.7H54.5c-2,0-3.7,1.7-3.7,3.7v84.3h-8.9c-22,0-38.7,17-38.7,39.4v249.1
	c0,23,17,41,38.7,41h388.2c22.3,0,41.9-19.2,41.9-41V130.3C472,108.9,452.8,90.8,430.1,90.8z M420.8,98.1h9.3c6.8,0,13.3,2,18.8,5.4
	l-28,22.7L420.8,98.1L420.8,98.1z M58.2,131V10.2h355.2v120.9c0,0.3,0,0.7,0.1,0.9l-56.7,46H203c-2,0-3.7,1.7-3.7,3.7
	c0,2,1.7,3.7,3.7,3.7h144.7l-46.1,37.3H171.7c-0.4,0-0.9,0.1-1.3,0.2L124.7,186h47c2,0,3.7-1.7,3.7-3.7c0-2-1.7-3.7-3.7-3.7h-55
	c-0.3,0-0.7,0.1-1,0.1L58,132.2C58.1,131.8,58.2,131.4,58.2,131z M292.5,229.9L236,275.7l-56.8-45.8L292.5,229.9L292.5,229.9z
	 M41.8,98.1h9.1v28.4l-27.7-22.3C28.3,100.3,34.7,98.1,41.8,98.1z M464.8,379.3h-0.1c0,8.5-3.7,16.5-9.5,22.7L292,269.8
	c-1.6-1.2-3.9-1-5.1,0.6s-1,3.9,0.6,5.1l162.2,131.3c-5.6,3.9-12.4,6.3-19.6,6.3H41.9c-7.2,0-13.7-2.5-19-6.7l161.7-130.8
	c1.6-1.2,1.8-3.6,0.6-5.1c-1.2-1.6-3.6-1.8-5.1-0.6L17.7,401.1c-4.5-5.8-7.3-13.4-7.3-21.8v-249c0-8.2,2.7-15.5,7.3-21.1
	l215.9,174.1c0.7,0.6,1.5,0.8,2.3,0.8s1.7-0.2,2.3-0.8l66-53.4c1.2-0.2,2.1-1,2.7-2.1l148-119.8c6,5.8,9.9,13.7,9.9,22.2
	L464.8,379.3L464.8,379.3z"/>
<path class="st1" d="M365.1,55.3H99.3c-1.9,0-3.6,1.6-3.6,3.6c0,1.9,1.6,3.6,3.6,3.6h265.8c1.9,0,3.6-1.6,3.6-3.6
	S367,55.3,365.1,55.3L365.1,55.3z M365.1,97.9H230.5c-1.9,0-3.6,1.6-3.6,3.6c0,1.9,1.6,3.6,3.6,3.6h134.6c1.9,0,3.6-1.6,3.6-3.6
	C368.7,99.4,367,97.9,365.1,97.9z M195,97.8H99.3c-1.9,0-3.6,1.6-3.6,3.6s1.6,3.6,3.6,3.6H195c1.9,0,3.6-1.6,3.6-3.6
	S196.9,97.8,195,97.8z M365.1,140.4h-63.8c-1.9,0-3.6,1.6-3.6,3.6c0,1.9,1.6,3.6,3.6,3.6h63.8c1.9,0,3.6-1.6,3.6-3.6
	S367,140.4,365.1,140.4z M265.8,140.4H99.3c-1.9,0-3.6,1.6-3.6,3.6s1.6,3.6,3.6,3.6h166.5c1.9,0,3.6-1.6,3.6-3.6
	S267.8,140.4,265.8,140.4z"/>
</svg>
