<svg xmlns="http://www.w3.org/2000/svg" xmlns:xlink="http://www.w3.org/1999/xlink" viewBox="0 0 512 512"><g fill="#4caf50"><path d="M294.656 13.013c-2.53-2.056-5.863-2.842-9.045-2.133l-277.333 64A10.67 10.67 0 0 0 0 85.376v362.667a10.67 10.67 0 0 0 9.045 10.539l277.333 42.667a10.67 10.67 0 0 0 12.164-8.921 10.68 10.68 0 0 0 .124-1.617V21.376a10.66 10.66 0 0 0-4.01-8.363z"/><use xlink:href="#B"/></g><g fill="#fafafa"><path d="M202.667 352.043c-3.678 0-7.096-1.895-9.045-5.013L86.955 176.362a10.67 10.67 0 0 1 2.925-14.799 10.67 10.67 0 0 1 14.799 2.925c.13.192.25.388.367.588l106.667 170.667a10.67 10.67 0 0 1-9.046 16.3z"/><path d="M96 352.043a10.67 10.67 0 0 1-9.024-16.32l106.667-170.667a10.67 10.67 0 0 1 14.577-3.88 10.67 10.67 0 0 1 3.88 14.577L105.067 347.008A10.67 10.67 0 0 1 96 352.043z"/></g><g fill="#4caf50"><use xlink:href="#C"/><use xlink:href="#D"/><use xlink:href="#E"/><use xlink:href="#F"/><use xlink:href="#G"/><use xlink:href="#H"/></g><path d="M288 501.376c-.543-.001-1.085-.044-1.62-.128L9.046 458.58a10.67 10.67 0 0 1-9.045-10.539V85.376c.003-4.968 3.435-9.276 8.277-10.39l277.333-64a10.67 10.67 0 0 1 12.785 8.006 10.62 10.62 0 0 1 .271 2.383V490.71A10.67 10.67 0 0 1 288 501.376zM21.334 438.9l256 39.38V34.773l-256 59.136V438.9z"/><use xlink:href="#B"/><path d="M202.667 352.043c-3.678 0-7.096-1.895-9.045-5.013L86.955 176.362a10.67 10.67 0 0 1 3.392-14.699 10.67 10.67 0 0 1 14.699 3.392l106.667 170.667a10.67 10.67 0 0 1-3.392 14.699 10.55 10.55 0 0 1-5.654 1.622z"/><path d="M96 352.043c-2 .007-3.96-.555-5.653-1.62a10.67 10.67 0 0 1-3.392-14.699l106.667-170.667a10.67 10.67 0 0 1 14.699-3.392 10.67 10.67 0 0 1 3.392 14.699L105.046 347.03c-1.95 3.12-5.368 5.014-9.046 5.014z"/><use xlink:href="#C"/><use xlink:href="#D"/><use xlink:href="#E"/><use xlink:href="#F"/><use xlink:href="#G"/><use xlink:href="#H"/><defs ><path id="B" d="M501.334 458.71H288a10.67 10.67 0 0 1-10.667-10.667A10.67 10.67 0 0 1 288 437.375h202.667V74.71H288a10.67 10.67 0 0 1-10.667-10.667A10.67 10.67 0 0 1 288 53.376h213.333A10.67 10.67 0 0 1 512 64.043v384a10.67 10.67 0 0 1-10.666 10.666z"/><path id="C" d="M373.334 458.71a10.67 10.67 0 0 1-10.667-10.667v-384a10.67 10.67 0 0 1 10.667-10.667 10.67 10.67 0 0 1 10.667 10.667v384a10.67 10.67 0 0 1-10.667 10.667z"/><path id="D" d="M501.334 394.71H288a10.67 10.67 0 0 1-10.667-10.667A10.67 10.67 0 0 1 288 373.375h213.333A10.67 10.67 0 0 1 512 384.042a10.67 10.67 0 0 1-10.666 10.667z"/><path id="E" d="M501.334 330.71H288a10.67 10.67 0 0 1-10.667-10.667A10.67 10.67 0 0 1 288 309.375h213.333A10.67 10.67 0 0 1 512 320.042a10.67 10.67 0 0 1-10.666 10.667z"/><path id="F" d="M501.334 266.71H288a10.67 10.67 0 0 1-10.667-10.667A10.67 10.67 0 0 1 288 245.375h213.333A10.67 10.67 0 0 1 512 256.042a10.67 10.67 0 0 1-10.666 10.667z"/><path id="G" d="M501.334 202.71H288a10.67 10.67 0 0 1-10.667-10.667A10.67 10.67 0 0 1 288 181.375h213.333A10.67 10.67 0 0 1 512 192.042a10.67 10.67 0 0 1-10.666 10.667z"/><path id="H" d="M501.334 138.71H288a10.67 10.67 0 0 1-10.667-10.667A10.67 10.67 0 0 1 288 117.375h213.333A10.67 10.67 0 0 1 512 128.042a10.67 10.67 0 0 1-10.666 10.667z"/></defs></svg>