<svg xmlns="http://www.w3.org/2000/svg" viewBox="0 0 512 512"><path d="M350.7 404.5l100.7-91.4c12-7.1 27.8-6.2 37.8 3.6 14.9 14.5 12.1 37.5-3.7 48.3-103.8 95.9-91.5 127.2-371.9 118H93V363h20c14.4 0 28.1-6.1 37.8-16.8 9.4-10.5 22-18.2 36-21.3 27.7-6.2 55.3-2.3 71.2 16.4 7.9 9.3 18.8 4 31 4l34 17.8c16.6 0 30 13.4 30 30 0 4-.8 7.9-2.3 11.4z" fill="#fde4e4"/><path d="M511.9 330.3c-.6-11.4-6.3-21.9-15.5-28.7-14.9-11-35.6-9.9-49.1 2.7l-82.6 76.9c.5-16.9-10.6-31.8-27.3-36.1l-100.8-25.6c-17.7-4.5-36.2-3.9-53.5 1.8l-69.7 22.6v-20.1c0-5.5-4.5-10-10-10H10c-5.5 0-10 4.5-10 10V502c0 5.5 4.5 10 10 10h93.4c5.5 0 10-4.5 10-10V365l75.9-24.6c13.8-4.5 28.4-4.9 42.5-1.4l100.8 25.6c7.8 2 12.9 9.3 12.1 17.3-.8 8.3-7.8 14.6-16.1 14.6h-80.3c-5.5 0-10 4.5-10 10s4.5 10 10 10h31.5c.4 0 .8.1 1.1.1h49.6a64.88 64.88 0 0 0 44.4-17.5l85.9-80c6.5-6.1 16.4-6.6 23.6-1.3 4.4 3.3 7.1 8.3 7.4 13.8s-1.8 10.8-5.9 14.5L367.7 456.2c-8.2 7.6-18.8 11.8-30 11.8h-155c-5.5 0-10 4.5-10 10s4.5 10 10 10h155c16.2 0 31.7-6.1 43.6-17.1l118.4-110.2c8.4-7.9 12.9-18.9 12.2-30.4zM93.4 492H20V333.9h73.4V492z"/><path d="M14 327.2h85v171H14z" fill="#a5dc69"/><path d="M149.5 470.9c-1.9-1.9-4.4-2.9-7.1-2.9-2.6 0-5.2 1.1-7.1 2.9-1.9 1.9-2.9 4.4-2.9 7.1s1.1 5.2 2.9 7.1c1.9 1.9 4.4 2.9 7.1 2.9 2.6 0 5.2-1.1 7.1-2.9 1.9-1.9 2.9-4.4 2.9-7.1s-1-5.2-2.9-7.1zm-85.7-10.3c-1.9-1.9-4.5-2.9-7.1-2.9s-5.2 1.1-7.1 2.9c-1.9 1.9-2.9 4.5-2.9 7.1s1.1 5.2 2.9 7.1c1.9 1.9 4.4 2.9 7.1 2.9 2.6 0 5.2-1.1 7.1-2.9 1.9-1.9 2.9-4.4 2.9-7.1s-1.1-5.3-2.9-7.1zM217.6 0h-10.9c-48.6 0-88.1 39.5-88.1 88.1v26c-31.4 3-56 29.5-56 61.7 0 34.2 27.8 62 62 62h4c5.5 0 10-4.5 10-10V88.1c0-37.6 30.6-68.1 68.1-68.1h10.9c5.5 0 10-4.5 10-10s-4.5-10-10-10zm-99 200.5v16.9c-20.3-2.9-36-20.4-36-41.6s15.7-38.6 36-41.6v66.3zM256.4 0h-.4c-5.5 0-10 4.5-10 10s4.5 10 10 10h.4c5.5 0 10-4.5 10-10s-4.5-10-10-10zm137 114.1v-26c0-48.6-39.5-88.1-88.1-88.1h-11.2c-5.5 0-10 4.5-10 10s4.5 10 10 10h11.2c37.6 0 68.1 30.6 68.1 68.1v167.7c0 3.4-2.8 6.2-6.2 6.2h-74.4c-3.9-9.4-13.2-16-24-16h-22.9c-14.3 0-26 11.7-26 26s11.7 26 26 26h22.9c10.8 0 20.1-6.6 24-16h74.4c14.4 0 26.2-11.7 26.2-26.2v-18.3c31.4-3 56-29.5 56-61.7s-24.6-58.6-56-61.7zM268.8 278h-22.9a6.02 6.02 0 0 1-6-6 6.02 6.02 0 0 1 6-6h22.9a6.02 6.02 0 0 1 6 6 6.02 6.02 0 0 1-6 6zm124.6-60.6v-83.2c20.3 2.9 36 20.4 36 41.6s-15.7 38.7-36 41.6z"/><path d="M344 110.8h-9.3a84.6 84.6 0 0 0-4.8-11.7l6.6-6.6c1.9-1.9 2.9-4.4 2.9-7.1s-1.1-5.2-2.9-7.1L314.2 56a9.96 9.96 0 0 0-14.1 0l-6.6 6.6a84.6 84.6 0 0 0-11.7-4.8v-9.3c0-5.5-4.5-10-10-10h-31.5c-5.5 0-10 4.5-10 10v9.4a84.6 84.6 0 0 0-11.7 4.8l-6.6-6.6a9.96 9.96 0 0 0-14.1 0l-22.3 22.3c-1.9 1.9-2.9 4.4-2.9 7.1s1.1 5.2 2.9 7.1l6.7 6.7c-1.9 3.8-3.5 7.6-4.8 11.6H168c-5.5 0-10 4.5-10 10v31.5c0 5.5 4.5 10 10 10h9.5c1.3 4 2.9 7.9 4.8 11.6l-6.7 6.7c-1.9 1.9-2.9 4.4-2.9 7.1s1.1 5.2 2.9 7.1l22.3 22.3a9.96 9.96 0 0 0 14.1 0l6.7-6.7c3.7 1.9 7.6 3.5 11.6 4.8v9.5c0 5.5 4.5 10 10 10h31.5c5.5 0 10-4.5 10-10v-9.4c4-1.3 7.9-2.9 11.6-4.8l6.7 6.7a9.96 9.96 0 0 0 14.1 0l22.3-22.3c1.9-1.9 2.9-4.4 2.9-7.1s-1.1-5.2-2.9-7.1l-6.6-6.6c1.9-3.8 3.5-7.6 4.8-11.7h9.4c5.5 0 10-4.5 10-10V121c-.1-5.7-4.6-10.2-10.1-10.2zm-10 31.5h-7c-4.7 0-8.8 3.3-9.8 7.9a64.3 64.3 0 0 1-8.3 20.1c-2.5 4-2 9.1 1.4 12.5l5 5-8.1 8.1-5-5c-3.3-3.3-8.5-3.9-12.4-1.4-6.2 3.9-12.9 6.7-20.1 8.3-4.6 1-7.9 5.1-7.9 9.8v7.1h-11.5v-7.1c0-4.7-3.3-8.7-7.8-9.8a64.3 64.3 0 0 1-20.1-8.3c-4-2.5-9.1-2-12.5 1.4l-5 5-8.1-8.1 5-5c3.3-3.3 3.9-8.5 1.4-12.5-3.9-6.2-6.7-12.9-8.3-20.1-1-4.6-5.1-7.8-9.8-7.8H178v-11.5h7c4.5 0 8.5-3 9.7-7.4 0-.2.1-.3.1-.5a64.3 64.3 0 0 1 8.3-20.1c2.5-4 2-9.1-1.4-12.4l-5-5 8.1-8.1 5 5c3.3 3.3 8.5 3.9 12.5 1.4 6.1-3.9 12.8-6.7 19.9-8.3 4.6-.9 8-5 8-9.8v-7h11.5v6.9c0 4.6 3.2 8.7 7.8 9.8h.1a64.3 64.3 0 0 1 20.1 8.3c4 2.5 9.1 2 12.4-1.4l4.9-4.9 8.1 8.1-4.9 4.9c-3.3 3.3-3.9 8.6-1.3 12.5 3.9 6.1 6.7 12.8 8.3 19.9.9 4.6 5 8 9.8 8h7v11.5z" fill="#ff5a5a"/><path d="M256 98.5c-21 0-38 17-38 38s17 38 38 38 38-17 38-38c0-20.9-17.1-38-38-38zm0 56c-9.9 0-18-8.1-18-18s8.1-18 18-18 18 8.1 18 18c0 10-8.1 18-18 18z" fill="#383856"/><path d="M56.7 352c-5.5 0-10 4.5-10 10v69c0 5.5 4.5 10 10 10s10-4.5 10-10v-69c0-5.5-4.5-10-10-10z"/></svg>