<svg xmlns="http://www.w3.org/2000/svg" viewBox="0 0 512 512"><path d="M501.55 387.058c0 28.498-23.312 51.808-51.81 51.808H62.258c-28.496 0-51.81-23.31-51.81-51.808V124.942c0-28.497 23.313-51.808 51.81-51.808h387.484c28.497 0 51.81 23.31 51.81 51.808v262.116z" fill="#fff"/><path d="M62.258 438.867h10.885v-276.32L255.86 309.734l182.716-147.187v276.32h11.166c26.683 0 48.816-20.435 51.528-46.43V124.942c0-28.498-23.313-51.808-51.81-51.808l-193.6 156.493-193.6-156.494c-28.496 0-51.81 23.31-51.81 51.808v262.117c0 28.498 23.313 51.81 51.81 51.81z" fill="#d50707"/><path d="M449.742 62.684H62.258C27.93 62.684 0 90.614 0 124.942V387.06c0 34.33 27.93 62.257 62.258 62.257h387.484c34.33 0 62.258-27.928 62.258-62.257V124.942c0-34.328-27.928-62.258-62.258-62.258zm-29.83 20.898L255.86 216.2 91.806 83.582h328.106zm8.214 344.836H83.592V184.382l165.712 133.5a10.45 10.45 0 0 0 13.11 0l165.7-133.5v244.036zm62.976-41.36c0 22.806-18.554 41.36-41.36 41.36h-.717v-265.87a10.45 10.45 0 0 0-5.939-9.425c-3.632-1.738-7.934-1.235-11.065 1.288L255.86 296.318 79.698 154.4a10.45 10.45 0 0 0-17.004 8.137v265.87h-.436c-22.805.001-41.36-18.553-41.36-41.358V124.942c0-21.626 16.688-39.418 37.86-41.2L249.3 237.754a10.42 10.42 0 0 0 6.568 2.323c2.326 0 4.653-.774 6.568-2.323L452.983 83.72c21.295 1.66 38.12 19.507 38.12 41.22v262.117zM398.522 263.1c2.3 0 4.634-.762 6.568-2.328l3.635-2.942a10.45 10.45 0 0 0-13.149-16.242l-3.636 2.942a10.45 10.45 0 0 0-1.546 14.696 10.43 10.43 0 0 0 8.128 3.874zM297.54 344.054a10.41 10.41 0 0 0 6.568-2.327l74.708-59.674a10.45 10.45 0 0 0-13.149-16.244l-74.708 59.674a10.45 10.45 0 0 0-1.546 14.695c2.063 2.55 5.082 3.876 8.127 3.876z"/></svg>