<?xml version="1.0" encoding="utf-8"?>
<!-- Generator: Adobe Illustrator 22.1.0, SVG Export Plug-In . SVG Version: 6.00 Build 0)  -->
<svg version="1.1" id="Layer_1" xmlns="http://www.w3.org/2000/svg" xmlns:xlink="http://www.w3.org/1999/xlink" x="0px" y="0px"
	 viewBox="0 0 424 424" style="enable-background:new 0 0 424 424;" xml:space="preserve">
<style type="text/css">
	.st0{fill:#ED3237;}
</style>
<path class="st0" d="M352.4,34c-32.4,0-58,26-58,58.4s26,58,58,58s58.4-26,58.4-58.4S384.8,34,352.4,34z M352.4,137.6
	c-25.2,0-45.6-20.4-45.6-45.6s20.8-45.2,45.6-45.2c25.2,0,45.6,20.4,45.6,45.6S377.6,137.6,352.4,137.6z M370.8,101.2
	c-0.4-1.2-0.4-2-1.2-3.2c-0.4-0.8-0.8-2-1.6-2.8s-1.2-1.6-2-2.4s-1.6-1.6-2.8-2c-0.8-0.8-2-1.2-2.8-1.6c-1.2-0.4-2-1.2-3.2-1.6
	l-3.2-1.2c-0.4,0-1.2-0.4-1.6-0.8s-1.2-0.4-1.6-0.8s-1.2-0.4-1.6-0.8l-1.2-1.2c-0.4-0.4-0.8-0.8-0.8-1.6c-0.4-0.4-0.4-1.2-0.4-1.6
	v-2c0-0.4,0.4-1.2,0.4-1.6c0.4-0.4,0.4-1.2,0.8-1.6l1.2-1.2c0.4-0.4,1.2-0.8,2-0.8c0.8-0.4,1.2-0.4,2-0.4h2.4c0.8,0,1.2,0,2,0.4
	c0.8,0,1.6,0.4,2,0.4s1.2,0.4,1.6,0.4c0.8,0,1.2,0.4,1.6,0.4l2,0.8l0.4-2.4l0.8-6.4V64l-1.6-0.4c-0.4,0-1.2-0.4-1.6-0.4
	s-0.8-0.4-1.6-0.4c-0.4,0-1.2-0.4-2-0.4s-1.2-0.4-2-0.4h-0.4v-7.6h-9.6v8h-0.4c-1.2,0.4-2.4,0.8-3.6,1.6c-1.2,0.4-2,1.2-2.8,2
	s-1.6,1.6-2.4,2.8c-0.8,0.8-1.2,2-1.6,3.2l-1.2,3.6c-0.4,1.2-0.4,2.8-0.4,4s0,2,0.4,3.2s0.4,2,1.2,3.2c0.4,0.8,1.2,2,1.6,2.8
	c0.8,0.8,1.2,1.6,2,2.4s1.6,1.6,2.8,2c0.8,0.8,2,1.2,2.8,1.6c1.2,0.4,2.4,1.2,3.2,1.6l3.2,1.2c0.4,0,1.2,0.4,1.6,0.8
	s1.2,0.4,1.6,0.8s0.8,0.8,1.2,0.8l1.2,1.2c0.4,0.4,0.4,0.8,0.8,1.6c0,0.4,0.4,1.2,0.4,2v2c0,0.4-0.4,1.2-0.8,1.6l-1.2,1.2
	c-0.4,0.4-0.8,0.8-1.6,1.2c-0.4,0.4-1.2,0.4-1.6,0.8c-0.4,0-1.2,0.4-2,0.4h-5.2c-0.8,0-1.6-0.4-2-0.4c-0.8,0-1.6-0.4-2.4-0.8
	s-1.6-0.4-2.4-0.8c-0.4,0-0.8-0.4-1.2-0.4s-0.8-0.4-1.2-0.4l-2.4-1.2l-0.4,2.8l-0.8,7.2v1.2l1.2,0.4c1.6-0.4,2.4,0,3.6,0.4
	c0.8,0.4,2,0.8,2.8,0.8c0.8,0.4,2,0.4,3.2,0.8s2,0.4,3.2,0.4h0.8v8h9.6v-8.4h0.4c1.2-0.4,2.4-0.8,3.6-1.6c1.2-0.4,2-1.2,3.2-2
	c0.8-0.8,1.6-1.6,2.4-2.8c0.8-0.8,1.2-2,2-3.2l1.2-3.6c0.4-1.2,0.4-2.4,0.4-4C371.2,103.2,371.2,102.4,370.8,101.2L370.8,101.2z
	 M324.4,158c-2-2.8-6.4-3.2-9.2-1.2l-64.8,51.6l-83.6-34.8c-2-0.8-4.4-0.4-6,0.8l-89.6,64c-2.8,2-3.6,6-1.6,8.8
	c1.2,2,3.2,2.8,5.2,2.8c1.2,0,2.4-0.4,3.6-1.2l86.8-62l84,34.8c2,0.8,4.8,0.4,6.4-0.8l67.6-53.6C326,165.2,326.4,160.8,324.4,158
	L324.4,158z M418,377.2h-29.6V192c0-3.6-2.8-6.4-6.4-6.4h-58.8c-3.6,0-6.4,2.8-6.4,6.4v185.2h-21.6V256c0-3.6-2.8-6.4-6.4-6.4h-59.2
	c-3.6,0-6.4,2.8-6.4,6.4v121.2h-21.6V246.4c0-3.6-2.8-6.4-6.4-6.4h-58.8c-3.6,0-6.4,2.8-6.4,6.4v130.8h-21.6V284
	c0-3.6-2.8-6.4-6.4-6.4H42.8c-3.6,0-6.4,2.8-6.4,6.4v93.2h-30c-3.6,0-6.4,2.8-6.4,6.4s2.8,6.4,6.4,6.4h411.2c3.6,0,6.4-2.8,6.4-6.4
	C424.4,380,421.6,377.2,418,377.2z M95.2,377.2h-46v-86.8h46V377.2z M188.8,377.2h-46V252.8h46V377.2z M282,377.2h-46V262.4h46
	V377.2z M375.6,377.2h-46V198.4h46V377.2z"/>
</svg>
