<svg xmlns="http://www.w3.org/2000/svg" viewBox="0 0 511.998 511.998" width="512" height="512"><path d="M445.75 56.308v203.97c0 42.72-13.3 84.68-38.97 118.82-64.52 85.78-151.03 122.9-151.03 122.9s-86.5-37.12-151.03-122.9c-25.68-34.13-38.97-76.1-38.97-118.8V56.308c0-15.5 17.18-25.62 30.18-17.18 17.22 11.18 37.76 17.68 59.82 17.68 33.86 0 64.14-15.3 84.32-39.36 8.33-9.93 23.03-9.93 31.36 0 20.18 24.06 50.46 39.36 84.32 39.36 22.06 0 42.6-6.5 59.82-17.68 13-8.44 30.18 1.68 30.18 17.18z" fill="#78d2fa"/><path d="M105.75 88.188c15.87 5.63 32.75 8.62 50 8.62 37.48 0 72.95-14.13 100-38.27 27.05 24.14 62.52 38.27 100 38.27 17.25 0 34.13-3 50-8.62v172.1c0 34.6-11 68.26-30.94 94.75-41.66 55.4-93.4 88.24-118.98 102.22-25.7-14.14-77.8-47.26-119.14-102.2-19.95-26.5-30.94-60.16-30.94-94.77v-172.1z" fill="#a5dc69"/><path d="M345.75 215.998v60h-60v60h-60v-60h-60v-60h60v-60h60v60z" fill="#ff5a5a"/><path d="M106 205.998c5.52 0 10-4.48 10-10s-4.48-10-10-10-10 4.48-10 10 4.48 10 10 10zm180-60h-60c-5.522 0-10 4.478-10 10v50h-50c-5.522 0-10 4.478-10 10v60c0 5.522 4.478 10 10 10h50v50c0 5.522 4.478 10 10 10h60c5.522 0 10-4.478 10-10v-50h50c5.522 0 10-4.478 10-10v-60c0-5.522-4.478-10-10-10h-50v-50c0-5.522-4.478-10-10-10zm50 80v40h-50c-5.522 0-10 4.478-10 10v50h-40v-50c0-5.522-4.478-10-10-10h-50v-40h50c5.522 0 10-4.478 10-10v-50h40v50c0 5.522 4.478 10 10 10h50zm120-169.7c0-23.293-25.858-38.4-45.625-25.567-16.2 10.512-34.993 16.067-54.375 16.067-29.642 0-57.583-13.043-76.658-35.786C273.465 4.018 264.957 0 256 0s-17.466 4.018-23.342 11.02C213.582 33.764 185.64 46.807 156 46.807c-19.382 0-38.185-5.556-54.375-16.067C81.85 17.907 56 33.016 56 56.307v203.97c0 45.37 14.554 89.7 40.978 124.82 65.37 86.92 151.447 124.53 155.08 126.1a10.01 10.01 0 0 0 3.943.81 10 10 0 0 0 3.943-.811c3.632-1.56 89.7-39.17 155.078-126.078 26.426-35.13 40.98-79.464 40.98-124.83V56.308zm-20 203.97c0 41.06-13.126 81.12-36.962 112.8-54.362 72.275-125.664 109.534-143.044 117.893-17.387-8.34-88.55-45.46-143.033-117.904C89.125 341.4 76 301.34 76 260.28V56.308c0-7.613 8.4-12.902 14.734-8.792 19.44 12.62 42 19.292 65.266 19.292 35.57 0 69.097-15.648 91.98-42.933 2.096-2.5 4.943-3.875 8.02-3.875s5.923 1.376 8.018 3.875C286.903 51.16 320.43 66.808 356 66.808c23.256 0 45.824-6.67 65.266-19.292C427.495 43.47 436 48.58 436 56.308v203.97zM411.77 80.02c-2.654-1.874-6.05-2.342-9.113-1.257-15.045 5.338-30.743 8.044-46.656 8.044-34.373 0-67.522-12.7-93.342-35.73a10 10 0 0 0-13.316 0c-25.82 23.04-58.97 35.73-93.342 35.73a139.18 139.18 0 0 1-46.656-8.044c-3.064-1.085-6.46-.617-9.113 1.257S96 84.94 96 88.2V156c0 5.522 4.478 10 10 10s10-4.478 10-10v-54.293a158.95 158.95 0 0 0 40 5.103c36.395 0 71.575-12.433 100-35.18 28.425 22.748 63.605 35.18 100 35.18a158.95 158.95 0 0 0 40-5.103V260.28c0 32.45-10.273 63.964-28.934 88.74-37.813 50.296-83.997 81.44-110.972 96.772-27.188-15.534-73.67-46.913-111.164-96.756-18.656-24.8-28.93-56.312-28.93-88.757V236c0-5.522-4.478-10-10-10s-10 4.478-10 10v24.28c0 36.756 11.702 72.548 32.95 100.78C171 416.96 223.63 450.8 251.26 466a10 10 0 0 0 4.82 1.238c1.65 0 3.302-.408 4.796-1.225 27.416-14.984 79.745-48.548 122.172-104.98 21.25-28.216 32.952-64 32.952-100.766v-172.1A10 10 0 0 0 411.77 80z"/></svg>