<svg xmlns="http://www.w3.org/2000/svg" xmlns:xlink="http://www.w3.org/1999/xlink" viewBox="0 0 470.3 473.6"><path d="M373.8 96.8H155.5V5.4h306.8v91.3h-88.5zm56.3-45.7c0-7.6-6.1-13.7-13.7-13.7s-13.7 6.1-13.7 13.7 6.1 13.7 13.7 13.7 13.7-6.1 13.7-13.7zm-53.8 0c0-7.6-6.1-13.7-13.7-13.7s-13.7 6.1-13.7 13.7 6.1 13.7 13.7 13.7 13.7-6.1 13.7-13.7zm-53.7 0c0-7.6-6.1-13.7-13.7-13.7s-13.7 6.1-13.7 13.7 6.1 13.7 13.7 13.7 13.7-6.1 13.7-13.7zm-53.7 0c0-7.6-6.1-13.7-13.7-13.7s-13.7 6.1-13.7 13.7 6.1 13.7 13.7 13.7 13.7-6.1 13.7-13.7zm-53.7 0c0-7.6-6.1-13.7-13.7-13.7s-13.7 6.1-13.7 13.7 6.1 13.7 13.7 13.7 13.7-6.1 13.7-13.7z" fill="#a5dc69"/><use xlink:href="#B" fill="#00acea"/><path d="M393 432c0 11.4-9.2 20.7-20.6 20.7s-20.7-9.2-20.7-20.7c0-11.4 9.2-20.6 20.7-20.6 11.4-.1 20.6 9.2 20.6 20.6zM201.4 220.3h147.3c13.8 0 25 11.2 25 25v75.4c0 13.8-11.2 25-25 25H54.1c-13.8 0-25-11.2-25-25v-75.4c0-13.8 11.2-25 25-25h147.3zM98 306.6c10.5 2.3 21.2-2.6 26.3-11.9 5.1-9.4 3.5-21.1-4.1-28.6-7.6-7.6-19.2-9.2-28.6-4.1a24.1 24.1 0 0 0-12 26.3c2.1 9.1 9.3 16.3 18.4 18.3zM259.3 96.8h114.5v47.8c0 13.8-11.2 25-25 25H54.1c-13.8 0-25-11.2-25-25V69.2c0-13.8 11.2-25 25-25h101.4v52.6h103.8zM98 130.4c10.5 2.3 21.2-2.6 26.3-11.9 5.1-9.4 3.5-21.1-4.1-28.6-7.6-7.6-19.2-9.2-28.6-4.1a24.1 24.1 0 0 0-12 26.3c2.1 9.1 9.3 16.3 18.4 18.3z" fill="#78d2fa"/><g fill="#00acea"><use xlink:href="#B" x="-53.8"/><use xlink:href="#B" x="-107.5"/><use xlink:href="#B" x="-161.2"/></g><path d="M225.8 407.6c11.7 11.6 13.6 30 4.5 43.7-9.1 13.8-26.7 19.2-42 12.9s-24-22.5-20.8-38.7 17.4-27.9 34-27.9c9.1-.1 17.8 3.5 24.3 10z" fill="#ff5a5a"/><use xlink:href="#B" x="-214.9" fill="#00acea"/><g fill="#00efd1"><use xlink:href="#C"/><use xlink:href="#C" y="176.2"/></g><path d="M51.2 432c0 11.4-9.2 20.7-20.6 20.7S9.9 443.5 9.9 432c0-11.4 9.2-20.6 20.7-20.6 11.3-.1 20.6 9.2 20.6 20.6z" fill="#78d2fa"/><path d="M110 76c-13.7-3-27.7 3.4-34.4 15.7S71 119.2 81 129.1s25.2 12.1 37.5 5.4 18.7-20.7 15.7-34.4C131.5 88 122.1 78.6 110 76zm4.7 42.5c-3.9 4-9.7 5.8-15.2 4.5-6.3-1.4-11.1-6.3-12.5-12.6-1-4.9.2-10 3.3-13.9s7.9-6.2 12.9-6.3c1.1 0 2.3.1 3.4.4a16.19 16.19 0 0 1 12.4 12.6c2.1 5.7-.2 11.3-4.3 15.3z"/><use xlink:href="#D"/><path d="M96.4 314c13.7 3 27.7-3.4 34.4-15.7s4.5-27.5-5.4-37.4-25.1-12.1-37.4-5.4-18.7 20.7-15.7 34.4A31.91 31.91 0 0 0 96.4 314zm-4.8-42.6c3.1-3.1 7.3-4.9 11.6-4.9 1.1 0 2.3.1 3.4.4a16.19 16.19 0 0 1 12.4 12.6c2.1 5.6-.2 11.2-4.3 15.3-3.9 4.1-9.7 5.8-15.2 4.5-6.3-1.4-11.1-6.3-12.5-12.6-1.2-5.6.5-11.3 4.6-15.3z"/><use xlink:href="#D" x="-32.2"/><path d="M324.2 307c4.2 0 7.5-3.4 7.5-7.5v-32.7c0-4.2-3.4-7.5-7.5-7.5-4.2 0-7.5 3.4-7.5 7.5v32.7c0 4.1 3.3 7.5 7.5 7.5zM462.3-1.6H155.5c-4.2 0-7.5 2.8-7.5 7v31.7H54.1c-18 0-33 14.1-33 32v75.4c0 18 15 32.2 33 32.2h140v36.5h-140c-18 0-33 14.1-33 32v75.4c0 18 15 32.2 33 32.2h140v37.7c-8.4 1.3-16.2 5.3-22.3 11.3-5.9 6-10 13.6-11.7 21.9H57.7c-4-14-18-22.7-32.3-20S1.1 419.5 2.5 434c1.3 14.5 13.5 25.6 28.1 25.6 12.9 0 23.8-7.9 27.1-20.8h102.5c3.3 20.1 20.8 34.9 41.2 34.7 11.2 0 21.8-4.5 29.7-12.4 6.1-6 10.1-13.8 11.6-22.3h102.5c3.3 12.9 14.2 20.9 27.1 20.9 14.6 0 26.7-11.1 28.1-25.6 1.3-14.5-8.6-27.6-22.9-30.3s-28.3 6-32.3 20H242.7a43.34 43.34 0 0 0-11.4-21.9c-6-6-13.7-10-22.1-11.3V353h139.5c8.6.1 16.8-3.3 22.9-9.4s9.5-14.3 9.5-22.9v-75.4c0-8.6-3.4-16.8-9.5-22.8s-14.3-9.3-22.9-9.2H209.2v-36.5h139.5c8.6.1 16.8-3.3 22.9-9.4s9.5-14.3 9.5-22.9v-39.8h81.1c4.4-.2 7.8-3.7 8-8.1V5.4c.1-4.1-3.8-7-7.9-7zM30.5 445.1c-7.3 0-13.1-5.9-13.1-13.1s5.9-13.1 13.1-13.1 13.1 5.9 13.1 13.1-5.8 13.1-13.1 13.1zm341.9-26.3c7.2 0 13.1 5.9 13.1 13.1 0 7.3-5.9 13.1-13.1 13.1-7.3 0-13.1-5.9-13.1-13.1-.1-7.2 5.8-13.1 13.1-13.1zM228.3 432c-.1 12.7-9.1 23.7-21.6 26.1s-25-4.3-29.8-16.1-.7-25.4 9.9-32.4 24.7-5.7 33.7 3.3c5 5 7.9 11.9 7.8 19.1zm137.8-110.5c0 9.7-7.8 17.5-17.5 17.5H53.7c-9.7 0-17.5-7.8-17.5-17.5v-75.6c0-9.7 7.8-17.5 17.5-17.5h294.8c9.7 0 17.5 7.8 17.5 17.5v75.6zm0-176.9c0 4.6-1.8 9-5.1 12.2a17.66 17.66 0 0 1-12.3 5H54.1c-9.7 0-17.9-7.5-17.9-17.2V69.2c0-9.7 8.3-17 17.9-17H148v44.6c0 4.2 3.4 8.1 7.5 8.1h96.7v18.4c0 4.2 3.4 7.5 7.5 7.5 4.2 0 7.5-3.4 7.5-7.5v-18.4h17.2v18.4c0 4.2 3.4 7.5 7.5 7.5 4.2 0 7.5-3.4 7.5-7.5v-18.4h17.2v18.4c0 4.2 3.4 7.5 7.5 7.5 4.2 0 7.5-3.4 7.5-7.5v-18.4H366v39.7zm89.2-54.8H163V13.5h292.3v76.3zM308.9 72.3c11.7 0 21.3-9.5 21.3-21.3s-9.5-21.3-21.3-21.3c-11.7 0-21.3 9.5-21.3 21.3s9.6 21.3 21.3 21.3zm0-27.4c3.4 0 6.2 2.8 6.2 6.2s-2.8 6.2-6.2 6.2-6.2-2.8-6.2-6.2 2.8-6.2 6.2-6.2zm-53.7 27.4c11.7 0 21.3-9.5 21.3-21.3s-9.5-21.3-21.3-21.3c-11.7 0-21.3 9.5-21.3 21.3s9.5 21.3 21.3 21.3zm0-27.4c3.4 0 6.2 2.8 6.2 6.2s-2.8 6.2-6.2 6.2-6.2-2.8-6.2-6.2 2.7-6.2 6.2-6.2z"/><use xlink:href="#E"/><use xlink:href="#E" x="214.9"/><use xlink:href="#E" x="161.2"/><defs ><path id="B" d="M430.1 51.1c0 7.6-6.1 13.7-13.7 13.7s-13.7-6.1-13.7-13.7 6.1-13.7 13.7-13.7 13.7 6.1 13.7 13.7z"/><path id="C" d="M126.8 101.7c2.3 10.5-2.6 21.2-12 26.3s-21.1 3.5-28.6-4.1c-7.6-7.6-9.2-19.2-4.1-28.6a24.1 24.1 0 0 1 26.3-12 24.36 24.36 0 0 1 18.4 18.4z"/><path id="D" d="M291.9 307c4.2 0 7.5-3.4 7.5-7.5v-32.7c0-4.2-3.4-7.5-7.5-7.5-4.2 0-7.5 3.4-7.5 7.5v32.7c0 4.1 3.4 7.5 7.5 7.5z"/><path id="E" d="M201.4 72.3c11.7 0 21.3-9.5 21.3-21.3s-9.5-21.3-21.3-21.3c-11.7 0-21.3 9.5-21.3 21.3.1 11.8 9.6 21.3 21.3 21.3zm0-27.4c3.4 0 6.2 2.8 6.2 6.2s-2.8 6.2-6.2 6.2-6.2-2.8-6.2-6.2 2.8-6.2 6.2-6.2z"/></defs></svg>