<?xml version="1.0" encoding="utf-8"?>
<!-- Generator: Adobe Illustrator 22.1.0, SVG Export Plug-In . SVG Version: 6.00 Build 0)  -->
<svg version="1.1" id="Layer_1" xmlns="http://www.w3.org/2000/svg" xmlns:xlink="http://www.w3.org/1999/xlink" x="0px" y="0px"
	 viewBox="0 0 472.6 480.8" style="enable-background:new 0 0 472.6 480.8;" xml:space="preserve">
<style type="text/css">
	.st0{fill:#ED3237;}
</style>
<g>
	<path class="st0" d="M132.3,103.2c-3.1-14.4-15.6-24.9-30.3-25.4s-27.9,9-32.1,23.1s1.8,29.3,14.5,36.8s28.8,5.5,39.2-4.9
		C131.3,125,134.6,113.9,132.3,103.2z M112.8,122c-4,4.1-9.9,5.8-15.5,4.6c-6.4-1.4-11.3-6.4-12.8-12.8c-1.1-5,0.2-10.2,3.3-14.1
		c3.2-4,8-6.3,13.1-6.4c1.2,0,2.5,0.1,3.7,0.4c6.4,1.4,11.3,6.4,12.8,12.8C118.6,112.1,116.9,117.9,112.8,122z M292.5,313.3
		c4.2,0,7.6-3.4,7.6-7.6l0,0v-33.2c0-4.2-3.4-7.6-7.6-7.6s-7.6,3.4-7.6,7.6v33.2C284.9,309.9,288.3,313.3,292.5,313.3L292.5,313.3z
		 M94,320.4c10.7,2.3,21.8-1,29.6-8.7c7.7-7.7,11-18.9,8.7-29.6c-3.4-15.6-17.8-26.3-33.7-25.1c-15.9,1.2-28.6,13.8-29.7,29.7
		C67.7,302.6,78.4,317,94,320.4L94,320.4z M89,277.2c3.1-3.2,7.4-5,11.8-5c1.2,0,2.5,0.1,3.7,0.4c6.4,1.4,11.3,6.4,12.8,12.8
		c1.2,5.6-0.5,11.5-4.6,15.5c-4.1,4.1-9.9,5.8-15.5,4.6c-6.4-1.4-11.3-6.4-12.8-12.8C83.2,287.1,84.9,281.2,89,277.2z M259.8,313.3
		c4.2,0,7.6-3.4,7.6-7.6l0,0v-33.2c0-4.2-3.4-7.6-7.6-7.6c-4.2,0-7.6,3.4-7.6,7.6v33.2C252.2,309.9,255.6,313.3,259.8,313.3z"/>
	<path class="st0" d="M325.3,313.3c4.2,0,7.6-3.4,7.6-7.6l0,0v-33.2c0-4.2-3.4-7.6-7.6-7.6s-7.6,3.4-7.6,7.6v33.2
		C317.6,309.9,321,313.3,325.3,313.3z M465.5,0H154c-4.2,0-7.7,2.9-7.7,7.1v32.2H51c-18.2,0-33.5,14.3-33.5,32.5v76.6
		c0,18.2,15.2,32.7,33.5,32.7h142.2v37.1H51c-18.2,0-33.5,14.3-33.5,32.5v76.6c0,18.2,15.2,32.7,33.5,32.7h142.2v38.3
		c-17.5,3.2-31.3,17.4-34.5,33.7H54.6c-4-14.2-18.2-23-32.8-20.3s-24.6,16-23.3,30.8s13.7,26,28.5,26c13.1,0,24.2-8.1,27.6-21.2
		h104.1c3.6,20.7,21,34.9,41.9,34.9s38.3-14.2,41.9-34.9h104.1c3.4,13.1,14.4,21.2,27.6,21.2c14.8,0,27.1-11.3,28.5-26
		s-8.7-28.1-23.2-30.8s-28.7,6.1-32.8,20.3H242.5c-3.4-17.1-16.9-30.4-34-33.7V360h141.7c8.7,0.1,17.1-3.4,23.3-9.5
		s9.6-14.5,9.6-23.2v-76.6c0-8.7-3.5-17-9.6-23.1c-6.2-6.1-14.6-9.5-23.2-9.4H208.5v-37.1h141.7c8.7,0.1,17.1-3.4,23.3-9.5
		s9.6-14.5,9.6-23.2V108h82.4c4.4-0.2,8-3.8,8.2-8.2V7.1C473.7,2.9,469.7,0,465.5,0z M27.1,453.6c-7.4,0-13.3-6-13.3-13.3
		c0-7.4,6-13.3,13.3-13.3c7.4,0,13.3,6,13.3,13.3S34.4,453.6,27.1,453.6z M374.2,426.9c7.4,0,13.3,6,13.3,13.3
		c0,7.4-6,13.3-13.3,13.3s-13.3-6-13.3-13.3S366.8,426.9,374.2,426.9z M227.9,440.2c0,15.1-12.2,27.3-27.3,27.3
		s-27.3-12.2-27.3-27.3s12.2-27.3,27.3-27.3c7.3-0.1,14.3,2.8,19.4,7.9C225.2,426,228,433,227.9,440.2L227.9,440.2z M367.8,328.1
		c0,9.8-8,17.8-17.8,17.8H50.6c-9.8,0-17.8-8-17.8-17.8v-76.8c0-9.8,8-17.8,17.8-17.8H350c9.8,0,17.8,8,17.8,17.8V328.1z
		 M367.8,148.4c0,4.7-1.8,9.1-5.1,12.4s-7.8,5.1-12.5,5H51c-9.8,0-18.2-7.6-18.2-17.5V71.8c0-9.8,8.4-17.3,18.2-17.3h95.3v45.3
		c0,4.2,3.4,8.2,7.7,8.2h98.2v18.7c0,4.2,3.4,7.6,7.6,7.6c4.2,0,7.6-3.4,7.6-7.6V108h17.5v18.7c0,4.2,3.4,7.6,7.6,7.6
		s7.6-3.4,7.6-7.6V108h17.5v18.7c0,4.2,3.4,7.6,7.6,7.6s7.6-3.4,7.6-7.6V108h34.9L367.8,148.4L367.8,148.4z M458.4,92.7H161.6V15.3
		h296.8V92.7L458.4,92.7z"/>
	<g>
		<path id="B" class="st0" d="M309.7,75c11.9,0,21.6-9.7,21.6-21.6s-9.7-21.6-21.6-21.6s-21.6,9.7-21.6,21.6
			C288.2,65.4,297.8,75,309.7,75z M309.7,47.2c3.5,0,6.3,2.8,6.3,6.3s-2.8,6.3-6.3,6.3s-6.3-2.8-6.3-6.3S306.3,47.2,309.7,47.2z"/>
	</g>
	<g>
		<path id="C" class="st0" d="M255.2,75c11.9,0,21.6-9.7,21.6-21.6s-9.7-21.6-21.6-21.6s-21.6,9.7-21.6,21.6
			C233.6,65.4,243.3,75,255.2,75L255.2,75z M255.2,47.2c3.5,0,6.3,2.8,6.3,6.3s-2.8,6.3-6.3,6.3s-6.3-2.8-6.3-6.3
			S251.7,47.2,255.2,47.2z"/>
	</g>
	<path class="st0" d="M200.6,75c11.9,0,21.6-9.7,21.6-21.6s-9.7-21.6-21.6-21.6S179,41.5,179,53.4C179.1,65.4,188.7,75,200.6,75z
		 M200.6,47.2c3.5,0,6.3,2.8,6.3,6.3s-2.8,6.3-6.3,6.3s-6.3-2.8-6.3-6.3S197.1,47.2,200.6,47.2z"/>
	<g>
		<path id="B_1_" class="st0" d="M418.8,75c11.9,0,21.6-9.7,21.6-21.6s-9.7-21.6-21.6-21.6s-21.6,9.7-21.6,21.6
			C397.3,65.4,406.9,75,418.8,75z M418.8,47.2c3.5,0,6.3,2.8,6.3,6.3s-2.8,6.3-6.3,6.3s-6.3-2.8-6.3-6.3S415.4,47.2,418.8,47.2z"/>
	</g>
	<g>
		<path id="C_1_" class="st0" d="M364.3,75c11.9,0,21.6-9.7,21.6-21.6s-9.7-21.6-21.6-21.6s-21.6,9.7-21.6,21.6
			C342.7,65.4,352.4,75,364.3,75L364.3,75z M364.3,47.2c3.5,0,6.3,2.8,6.3,6.3s-2.8,6.3-6.3,6.3c-3.5,0-6.3-2.8-6.3-6.3
			S360.8,47.2,364.3,47.2z"/>
	</g>
</g>
</svg>
