<svg xmlns="http://www.w3.org/2000/svg" viewBox="0 0 395.6 395.6"><path d="M197.8 150.8c-41.4 0-75.4-34-75.4-75.4S156.4 0 197.8 0s75.4 34 75.4 75.4-33.9 75.4-75.4 75.4z" fill="#fdbf5e"/><g fill="#fff"><circle cx="197.8" cy="66.1" r="32.1"/><path d="M234.9 98.9h-74.2c-13 0-23.5 10.5-23.5 23.5v34c16.7 13 37.7 20.4 60.6 20.4s43.9-7.4 60.6-20.4v-34c0-13-10.5-23.5-23.5-23.5z"/></g><path d="M259.6 288.7c.6-.6 1.2-.6 1.9-.6L204 230.6v-48.2c21-1.2 40.8-8.7 58.1-21.7l2.5-1.9v-36.5c0-16.7-13-29.7-29.7-29.7h-8.7c6.2-6.8 10.5-16.1 10.5-26 0-21-17.3-38.3-38.3-38.3s-38.3 17.3-38.3 38.3c0 9.9 3.7 19.1 10.5 26h-9.9c-16.1 0-29.7 13.6-29.7 29.7v36.5l2.5 1.9c17.3 13 37.1 20.4 58.1 21.7v48.2l-85.3 85.3 8.7 8.7 82.8-82.9 55 55c1.3-3.1 3.7-6.2 6.8-8zM197.8 40.2c14.2 0 26 11.8 26 26s-11.8 26.6-26 26.6-26-11.8-26-26 11.8-26.6 26-26.6zm-54.3 112.5v-30.3c0-9.2 8-17.3 17.3-17.3H235c9.2 0 17.3 8 17.3 17.3v30.3c-16.2 11.1-34.7 17.3-54.5 17.3s-38.3-6.2-54.3-17.3z"/><path d="M320.2 390.7c-41.4 0-75.4-34-75.4-75.4s34.1-75.4 75.4-75.4 75.4 33.4 75.4 75.4c0 41.4-34 75.4-75.4 75.4z" fill="#f16051"/><g fill="#fff"><circle cx="320.2" cy="306" r="32.1"/><path d="M357.3 338.2h-74.1c-13 0-23.5 10.5-23.5 23.5v34h121.1v-34c0-13.1-10.5-23.5-23.5-23.5z"/></g><path d="M357.3 332h-8.7c6.2-6.8 10.5-16.1 10.5-26 0-21-17.3-38.3-38.3-38.3S282.5 285 282.5 306c0 9.9 3.7 19.1 10.5 26h-8.7c-16.1 0-29.7 13.6-29.7 29.7v34h12.3v-34c0-9.2 8-17.3 17.3-17.3h74.1c9.2 0 17.3 8 17.3 17.3v34h12.3v-34C387 345.5 374 332 357.3 332zm-63-26c0-14.2 11.8-26 26-26s26 11.8 26 26-11.8 26-26 26-26-11.8-26-26z"/><path d="M285 370.9h12.3v13H285zm29.1 0h12.3v13h-12.3zm29.6 0H356v13h-12.3zM161.9 131h12.3v13h-12.3zm29.7 0h12.3v13h-12.3zm29.7 0h12.3v13h-12.3z" fill="#193651"/><path d="M75.4 390.7C34 390.7 0 356.7 0 315.3s34-75.4 75.4-75.4 75.4 34 75.4 75.4-34 75.4-75.4 75.4z" fill="#2ea2db"/><g fill="#fff"><circle cx="75.4" cy="306" r="32.1"/><circle cx="75.4" cy="306" r="32.1"/><path d="M112.5 338.2H38.4c-13 0-23.5 10.5-23.5 23.5v34H136v-34c0-13.1-10.5-23.5-23.5-23.5z"/></g><path d="M112.5 332h-8.7c6.2-6.8 10.5-16.1 10.5-26 0-21-17.3-38.3-38.3-38.3S37.7 285 37.7 306c0 9.9 3.7 19.1 10.5 26h-9.9c-16.1 0-29.7 13.6-29.7 29.7v34H21v-34c0-9.2 8-17.3 17.3-17.3h74.1c9.2 0 17.3 8 17.3 17.3v34H142v-34c.2-16.2-13.4-29.7-29.5-29.7zm-63-26c0-14.2 11.8-26 26-26s26 11.8 26 26-11.8 26-26 26-26-11.8-26-26z"/><path d="M39.6 370.9h12.3v13H39.6zm29.6 0h12.3v13H69.2zm29.1 0h12.3v13H98.3z" fill="#193651"/></svg>