<?xml version="1.0" encoding="utf-8"?>
<!-- Generator: Adobe Illustrator 22.1.0, SVG Export Plug-In . SVG Version: 6.00 Build 0)  -->
<svg version="1.1" id="Layer_1" xmlns="http://www.w3.org/2000/svg" xmlns:xlink="http://www.w3.org/1999/xlink" x="0px" y="0px"
	 viewBox="0 0 480 480" style="enable-background:new 0 0 480 480;" xml:space="preserve">
<style type="text/css">
	.st0{fill:#ED3237;}
</style>
<path class="st0" d="M224,296V8c0-4.4-3.6-8-8-8H8C3.6,0,0,3.6,0,8v288c0,4.4,3.6,8,8,8h208C220.4,304,224,300.4,224,296z M208,288
	H16v-32h192V288z M208,184h-28.7l-11.1-11.1c24.9-31.1,19.8-76.6-11.3-101.5S80.3,51.6,55.4,82.7s-19.8,76.6,11.3,101.5
	c26.4,21.1,63.8,21.1,90.1,0l13.5,13.5c1.5,1.5,3.5,2.3,5.7,2.3h32v40H16V16h192V184z M106.3,133.7l39.1,39.1
	c-24.9,18.6-60.1,13.5-78.7-11.3S53.2,101.4,78,82.8s60.1-13.5,78.7,11.3c14.9,20,14.9,47.4,0,67.4l-39.1-39.1
	c-3.2-3.1-8.2-3-11.3,0.2C103.3,125.6,103.3,130.6,106.3,133.7z M184,216h16v16h-16V216z M24,216h16v16H24V216z M24,24h16v16H24V24z
	 M184,24h16v16h-16V24z M64,264h16v16H64V264z M32,264h16v16H32V264z M120,96c0-4.4-3.6-8-8-8c-22.1,0-40,17.9-40,40
	c0,4.4,3.6,8,8,8s8-3.6,8-8c0-13.3,10.7-24,24-24C116.4,104,120,100.4,120,96z M96,264h96v16H96V264z M472,176H264c-4.4,0-8,3.6-8,8
	v288c0,4.4,3.6,8,8,8h208c4.4,0,8-3.6,8-8V184C480,179.6,476.4,176,472,176z M464,464H272v-32h192V464z M464,360h-28.7l-11.1-11.1
	c24.9-31.1,19.8-76.6-11.3-101.5s-76.6-19.8-101.5,11.3s-19.8,76.6,11.3,101.5c26.4,21.1,63.8,21.1,90.1,0l13.5,13.5
	c1.5,1.5,3.5,2.3,5.7,2.3h32v40H272V192h192V360z M362.3,309.7l39.1,39.1c-24.9,18.6-60.1,13.5-78.7-11.3s-13.5-60.1,11.3-78.7
	s60.1-13.5,78.7,11.3c14.9,20,14.9,47.4,0,67.4l-39.1-39.1c-3.2-3.1-8.2-3-11.3,0.2C359.3,301.6,359.3,306.6,362.3,309.7
	L362.3,309.7z M440,392h16v16h-16V392z M280,392h16v16h-16V392z M280,200h16v16h-16V200z M440,200h16v16h-16V200z M320,440h16v16
	h-16V440z M288,440h16v16h-16V440z M376,272c0-4.4-3.6-8-8-8c-22.1,0-40,17.9-40,40c0,4.4,3.6,8,8,8s8-3.6,8-8c0-13.3,10.7-24,24-24
	C372.4,280,376,276.4,376,272z M352,440h96v16h-96V440z M287.6,76.3L267.3,56H336c13.3,0,24,10.7,24,24v80h16V80
	c0-22.1-17.9-40-40-40h-68.7l20.3-20.3L276.3,8.4L236.7,48l39.6,39.6L287.6,76.3L287.6,76.3z M192.4,403.7l20.3,20.3H144
	c-13.3,0-24-10.7-24-24v-80h-16v80c0,22.1,17.9,40,40,40h68.7l-20.3,20.3l11.3,11.3l39.6-39.6l-39.6-39.6L192.4,403.7L192.4,403.7z"
	/>
</svg>
