<svg xmlns="http://www.w3.org/2000/svg" viewBox="0 0 512 512"><path d="M198,320v96c0,17.7,14.3,32,32,32h145l66,54v-54h29c17.7,0,32-14.3,32-32V222c0-17.7-14.3-32-32-32H320L198,320 z" fill="#91def5"/><path d="M165 10C79.4 10 10 79.4 10 165c0 34.1 11 65.6 29.6 91.1l-19.1 42 47.3-12.4C94.4 307.2 128.2 320 165 320c85.6 0 155-69.4 155-155S250.6 10 165 10z" fill="#b4dd7f"/><path d="M470 180H329.4c.4-4.9.7-9.9.7-15C330 74 256 0 165 0c-29 0-57.5 7.6-82.5 22-4.8 2.8-6.4 8.9-3.7 13.7 2.8 4.8 8.9 6.4 13.7 3.7 22-12.7 47-19.4 72.5-19.4 80 0 145 65.1 145 145s-65 145-145 145c-33.5 0-64.9-11.1-90.9-32.1-2.6-2.1-6.1-2.7-9.2-1.8L38.4 283l10.4-22.9c1.5-3.3 1.1-7.1-1-10C29.6 225.4 20 195.9 20 165c0-25.5 6.7-50.7 19.5-72.6 2.8-4.8 1.1-10.9-3.6-13.7S25 77.6 22.2 82.3C7.7 107.4 0 136 0 165c0 33.2 9.7 64.9 28.2 92.2L11.4 294c-1.6 3.5-1 7.6 1.4 10.6s6.4 4.2 10.2 3.2l42.5-11.1C94.1 318.2 129.2 330 165 330c7.8 0 15.5-.6 23-1.6V416c0 23.2 18.8 42 42 42h141.4l63.2 51.7c1.8 1.5 4.1 2.3 6.3 2.3 1.5 0 2.9-.3 4.3-1 3.5-1.7 5.7-5.2 5.7-9v-44h19c23.2 0 42-18.8 42-42V222c.1-23.2-18.7-42-41.9-42zm22 236c0 12.1-9.9 22-22 22h-29c-5.5 0-10 4.5-10 10v32.9l-49.4-40.4c-2.7-2.5-5.1-2.5-10.5-2.5H230c-12.1 0-22-9.9-22-22v-91.6c59.2-16 105.2-64.1 118.3-124.4H470c12.1 0 22 9.9 22 22v194zm-92.2-67.4c3.4-1.6 5.7-5 5.7-9 0-5.5-4.5-10-10-10h-4.1l-32.3-73.5c-1.6-3.6-5.2-6-9.2-6s-7.6 2.3-9.2 6l-32.3 73.5h-4.1c-5.5 0-10 4.5-10 10 0 4 2.4 7.4 5.7 9L288 376c-2.2 5.1.1 11 5.1 13.2 5.1 2.2 11-.1 13.2-5.1l15.1-34.4h56.7l15.1 34.4c1.6 3.8 5.3 6 9.2 6 1.3 0 2.7-.3 4-.8 5.1-2.2 7.4-8.1 5.1-13.2l-11.7-27.5zm-69.4-19L350 285l19.6 44.6h-39.2zM55.4 65.4c2.6 0 5.2-1.1 7.1-2.9 1.9-1.9 2.9-4.4 2.9-7.1 0-2.6-1.1-5.2-2.9-7.1-1.9-1.9-4.4-2.9-7.1-2.9-2.6 0-5.2 1.1-7.1 2.9-1.9 1.9-2.9 4.4-2.9 7.1 0 2.6 1.1 5.2 2.9 7.1 1.9 1.8 4.5 2.9 7.1 2.9zm49.9 160.5c-4.8 2.7-6.6 8.7-4 13.6 1.8 3.3 5.2 5.2 8.8 5.2 1.6 0 3.3-.4 4.8-1.2 22.3-12.2 39.5-31.3 49.5-53.7 10 22.4 27.2 41.5 49.5 53.7 1.5.8 3.2 1.2 4.8 1.2 3.5 0 7-1.9 8.8-5.2 2.7-4.8.9-10.9-4-13.6-26.1-14.3-43.7-39.9-48-68.8h44.4c5.5 0 10-4.5 10-10s-4.5-10-10-10h-45.5V95.4c0-5.5-4.5-10-10-10s-10 4.5-10 10v41.7h-36.1c-5.5 0-10 4.5-10 10s4.5 10 10 10h35.1c-4.4 28.9-22 54.5-48.1 68.8z"/></svg>