<svg xmlns="http://www.w3.org/2000/svg" viewBox="0 0 471.1 475.2"><circle cx="289.7" cy="148.3" r="89.3" fill="#ffefd0"/><path d="M319.4 222.7c-49.3 0-89.3-40-89.3-89.3 0-29 13.8-54.7 35.2-71-37.5 10.6-65 45-65 85.9 0 49.3 40 89.3 89.3 89.3a89.23 89.23 0 0 0 54.1-18.2c-7.7 2.2-15.8 3.3-24.3 3.3z" fill="#ffe8b8"/><path d="M296.9 7.2l.2-.2H175.9l38.6 29.1c-.4.3-.7.7-1.1 1l-35.3 7.1v133.9l74.4-74.4 37.2 22.3 37.2-22.3 74.4 74.4v-59.5c0-59.2-46.1-107.7-104.4-111.4z" fill="#755a67"/><path d="M178.1 44.2v133.9l29.8-29.8V44.2l35.3-7.1c.4-.3.7-.7 1.1-1L205.7 7h-29.8l38.6 29.1c-.4.3-.7.7-1.1 1l-35.3 7.1z" fill="#664756"/><path d="M312 423.6l-22.3 14.9-22.3-14.9 7.4-141.4h29.8z" fill="#59d4fd"/><path d="M304.6 282.2h-29.8l-7.4-37.2H312z" fill="#83dffd"/><path d="M401.3 185.5H379v-44.6h22.3c4.1 0 7.4 3.3 7.4 7.4v29.8c0 4.1-3.3 7.4-7.4 7.4zm-223.2 0h22.3v-44.6h-22.3c-4.1 0-7.4 3.3-7.4 7.4v29.8c-.1 4.1 3.3 7.4 7.4 7.4z" fill="#a5dc69"/><path d="M393.8 468.2h-52.1c-4.1 0-7.4-3.3-7.4-7.4V431c0-8.2 6.7-14.9 14.9-14.9h37.2c8.2 0 14.9 6.7 14.9 14.9v29.8c0 4.1-3.4 7.4-7.5 7.4z" fill="#ffefd0"/><path d="M356.6 460.8V431c0-8.2 6.7-14.9 14.9-14.9h-22.3c-8.2 0-14.9 6.7-14.9 14.9v29.8c0 4.1 3.3 7.4 7.4 7.4H364c-4 0-7.4-3.3-7.4-7.4z" fill="#ffe8b8"/><circle cx="252" cy="155.8" r="7"/><circle cx="327.3" cy="155.8" r="7"/><path d="M274.8 207.4h29.8c3.9 0 7-3.1 7-7s-3.1-7-7-7h-29.8c-3.9 0-7 3.1-7 7s3.1 7 7 7zm194.4 219.5l-54.6-163.7c-5-15-19-25.1-34.8-25.1h-55.3c11-4.3 21.1-10.5 30-18.6 8.8-8 15.9-17.4 21.1-27.8 1 .5 2.1.8 3.3.8h22.3c7.9 0 14.4-6.5 14.4-14.4v-29.8c0-5.4-3-10.1-7.4-12.6v-17.2C408.2 56.8 360.6 5.3 299.4.3c-.7-.3-1.5-.4-2.3-.4H175.9a6.93 6.93 0 0 0-6.5 4.5c-1.1 2.9-.1 6.2 2.3 8l27 20.4-22 4.4c-3.3.7-5.6 3.5-5.6 6.8v91.5c-4.4 2.5-7.4 7.2-7.4 12.6v29.8c0 7.9 6.5 14.4 14.4 14.4h15.3v22.8c0 3.9 3.1 7 7 7H228c8.1 6.7 17.1 12.1 26.8 15.8H63.1c-3.9 0-7 3.1-7 7s3.1 7 7 7h160.1v164.6H13.9V252h16.3c3.9 0 7-3.1 7-7s-3.1-7-7-7H7c-3.9 0-7 3.1-7 7v178.5c0 3.9 3.1 7 7 7h82.3v30.7h-7.9c-3.9 0-7 3.1-7 7s3.1 7 7 7h74.4c3.9 0 7-3.1 7-7s-3.1-7-7-7h-7.9v-30.7h30.7v37.7c0 3.9 3.1 7 7 7h248.9c12 0 22.8-5.6 29.8-15.3 6.9-9.6 8.7-21.7 4.9-33zM281.4 289.2h16.5l6.9 130.8-15.1 10.1-15.2-10.1 6.9-130.8zm17.4-13.9h-18.3l-4.6-23.2h27.6l-4.7 23.2zm-91.4-136.4c1.1-36.2 30.9-65.4 67.4-65.4h29.8c36.5 0 66.3 29.2 67.4 65.4l-40.1-40.1c-2.3-2.3-5.8-2.7-8.5-1L289.8 118l-33.6-20.2c-2.7-1.6-6.3-1.2-8.5 1l-40.3 40.1zm194.3 39.2a.47.47 0 0 1-.5.5h-15.3v-30.7h15.3a.47.47 0 0 1 .5.5v29.7zM214.8 43.9c2.7-.5 5.4-3 6.3-5.6 1-2.8 0-6-2.4-7.8l-22-16.6h98.4c.4.1.9.2 1.4.2 54.9 3.5 97.8 49.4 97.8 104.4v15.3h-8.7c-3.5-41.6-38.5-74.4-81.1-74.4h-29.8c-42.5 0-77.5 32.8-81.1 74.4h-8.7v-84l29.9-5.9zm-37.2 134.2v-29.8a.47.47 0 0 1 .5-.5h15.3v30.7h-15.3c-.3 0-.5-.2-.5-.4zm29.8 20.2c2.1 3.5 4.5 6.8 7 10.1h-7v-10.1zm52.5 10h-26.3c-13.8-12.9-23.3-30.5-25.6-50.3.1-.1.3-.2.4-.4l45.2-45.2 32.5 19.5c2.2 1.3 5 1.3 7.2 0l32.5-19.5 45.4 45.4c.1.1.1.1.2.1-4.9 41.5-39.7 72.6-81.7 72.6-12.8 0-24.9-3-35.9-8.4h6.1c3.9 0 7-3.1 7-7s-3.1-6.8-7-6.8zm-126 253h-30.7v-30.7h30.7v30.7zm252 0v-7.9c0-3.9-3.1-7-7-7s-7 3.1-7 7v7.9h-8.4v-7.9c0-3.9-3.1-7-7-7s-7 3.1-7 7v7.9h-7.9a.47.47 0 0 1-.5-.5V431a7.85 7.85 0 0 1 7.9-7.9h37.2c4.3 0 7.9 3.6 7.9 7.9v29.8a.47.47 0 0 1-.5.5h-7.7zm67-9.5a22.61 22.61 0 0 1-18.5 9.5h-26.2V431c0-10.3-7.2-18.9-16.7-21.2l-28.3-77.9c-1.3-3.6-5.3-5.5-8.9-4.2s-5.5 5.3-4.2 8.9l26.4 72.5h-27.2c-12 0-21.9 9.8-21.9 21.9v30.3H192.5v-30.7h37.7c3.9 0 7-3.1 7-7V252h24.5l6.1 30.7-7.4 140.5c-.1 2.5 1 4.8 3.1 6.2l22.3 14.9c2.3 1.5 5.4 1.5 7.7 0l22.3-14.9c2-1.4 3.2-3.7 3.1-6.2l-7.4-140.5 6.1-30.7h62.1c9.8 0 18.5 6.3 21.6 15.6L456 431.3c2.3 7 1.2 14.5-3.1 20.5z"/><g fill="#ff5a5a"><circle cx="118.6" cy="364.5" r="7"/><path d="M134 351.5c2.7-2.7 2.7-7.1 0-9.9-4.1-4.1-9.6-6.4-15.5-6.4-5.8 0-11.3 2.3-15.5 6.4-2.7 2.7-2.7 7.1 0 9.9 2.7 2.7 7.1 2.7 9.9 0 1.5-1.5 3.5-2.3 5.6-2.3s4.1.8 5.6 2.3c2.7 2.7 7.2 2.7 9.9 0zm10.9-13.7c6.1 0 9.2-7.6 4.9-11.9-8.3-8.3-19.4-12.9-31.2-12.9s-22.9 4.6-31.2 12.9c-2.7 2.7-2.7 7.1 0 9.9 2.7 2.7 7.1 2.7 9.9 0 5.7-5.7 13.3-8.9 21.4-8.9s15.7 3.1 21.4 8.9c1.2 1.3 3 2 4.8 2z"/></g></svg>