<svg xmlns="http://www.w3.org/2000/svg" viewBox="0 0 480.002 480.002" width="512" height="512"><path d="M192 344l-88-88-24 24 96 96h272v-32H192z" fill="#78d2fa"/><path d="M176 24C90.025 24 34.585 80.528 32.09 151.256a11.77 11.77 0 0 0 4.2 9.304c10.564 9.32 26.216 9.95 37.496 1.512a10.72 10.72 0 0 1 12.432 0c10.534 7.917 25.034 7.917 35.568 0a10.72 10.72 0 0 1 12.432 0c10.534 7.917 25.034 7.917 35.568 0a10.72 10.72 0 0 1 12.432 0c10.534 7.917 25.034 7.917 35.568 0a10.72 10.72 0 0 1 12.432 0c10.534 7.917 25.034 7.917 35.568 0a10.72 10.72 0 0 1 12.432 0 29.74 29.74 0 0 0 37.496-1.52c2.744-2.29 4.286-5.714 4.184-9.288C317.065 80.536 254.17 24 176 24z" fill="#a5dc69"/><circle cx="408.001" cy="72" r="28.448" fill="#ff5a5a"/><path d="M472 392H163.313L53.657 282.344a8 8 0 0 0-11.508 11.116l38.724 38.724L36 392H8a8 8 0 1 0 0 16h41.056l-39.71 59.56c-2.452 3.676-1.46 8.644 2.216 11.096s8.644 1.46 11.096-2.216L68.28 408H168v64a8 8 0 1 0 16 0v-64h219.72l45.6 68.44c2.452 3.676 7.42 4.668 11.096 2.216s4.668-7.42 2.216-11.096L422.945 408H472a8 8 0 1 0 0-16zM92.297 343.608L140.7 392H56l36.296-48.392zM200 168c6.407-.036 12.636-2.113 17.784-5.928 3.72-2.656 8.713-2.656 12.432 0 10.534 7.917 25.034 7.917 35.568 0 3.72-2.656 8.713-2.656 12.432 0a29.73 29.73 0 0 0 37.496-1.52c2.744-2.3 4.286-5.714 4.184-9.288C317.065 80.536 254.17 24 176 24 90.025 24 34.585 80.528 32.1 151.248c-.1 3.58 1.456 7.008 4.2 9.312 5.477 4.746 12.466 7.383 19.712 7.44 6.407-.036 12.636-2.113 17.784-5.928 3.72-2.656 8.713-2.656 12.432 0 10.534 7.917 25.034 7.917 35.568 0 3.72-2.656 8.713-2.656 12.432 0a29.29 29.29 0 0 0 33.784 1.128v145.52l-58.344-58.344a8 8 0 0 0-11.312 0l-24 24a8 8 0 0 0 0 11.312l96 96a8 8 0 0 0 5.656 2.312h272a8 8 0 0 0 8-8v-32a8 8 0 0 0-8-8h-252.69L184 324.688V163.2a29.9 29.9 0 0 0 16 4.8zm-8 184h248v16H179.313l-88-88L104 267.312l82.336 82.336A8 8 0 0 0 192 352zm-40-200a14.25 14.25 0 0 1-8.368-2.864 26.71 26.71 0 0 0-31.264 0 13.64 13.64 0 0 1-16.736 0 26.71 26.71 0 0 0-31.264 0c-2.414 1.82-5.345 2.824-8.368 2.864-2.795-.03-5.517-.898-7.816-2.488C51.64 84.912 103.865 40 176 40c68.336 0 124 47.92 127.792 109.536-2.296 1.576-5.008 2.433-7.792 2.464a14.25 14.25 0 0 1-8.368-2.864 26.71 26.71 0 0 0-31.264 0 13.64 13.64 0 0 1-16.736 0 26.71 26.71 0 0 0-31.264 0 13.64 13.64 0 0 1-16.736 0 26.71 26.71 0 0 0-31.264 0c-2.414 1.82-5.345 2.824-8.368 2.864zm219.553-80c0 20.13 16.318 36.448 36.448 36.448S444.45 92.13 444.45 72 428.13 35.552 408 35.552c-20.12.022-36.426 16.327-36.448 36.448zM408 51.552c11.293 0 20.448 9.155 20.448 20.448S419.294 92.448 408 92.448A20.45 20.45 0 0 1 387.553 72c.013-11.288 9.16-20.435 20.448-20.448zM336 72a8 8 0 0 0 8 8h14.216a8 8 0 1 0 0-16H344a8 8 0 0 0-8 8zm32.4-50.912a8 8 0 0 0-11.312.196c-2.994 3.1-2.994 8.016 0 11.116l10.064 10.064a8 8 0 0 0 11.312-.196c2.994-3.1 2.994-8.016 0-11.116L368.4 21.088zm47.6 1.128V8a8 8 0 1 0-16 0v14.216a8 8 0 1 0 16 0zm42.913-1.128a8 8 0 0 0-11.312 0l-10.064 10.064a8 8 0 0 0 11.116 11.508l10.26-10.26a8 8 0 0 0 0-11.312zM472 64h-14.216a8 8 0 1 0 0 16H472a8 8 0 1 0 0-16zm-34.463 37.536a8 8 0 0 0 0 11.312l10.064 10.064a8 8 0 0 0 11.312-.196c2.994-3.1 2.994-8.015 0-11.116l-10.064-10.064a8 8 0 0 0-11.312 0zM400 121.784V136a8 8 0 1 0 16 0v-14.216a8 8 0 1 0-16 0zm-32.847-20.248L357.1 111.6a8 8 0 0 0 11.116 11.508l10.26-10.26a8 8 0 0 0-.196-11.312c-3.1-2.994-8.016-2.994-11.116 0z"/></svg>