<svg xmlns="http://www.w3.org/2000/svg" viewBox="0 0 475.2 475.2"><path d="M198 451.4H23.8C15 451.4 8 444.3 8 435.6s7.1-15.8 15.8-15.8H198v31.6zm253.4 0H277.2v-31.7h174.2c8.8 0 15.8 7.1 15.8 15.8s-7 15.9-15.8 15.9zM221.8 332.6h31.7v87.1h-31.7v-87.1zM308.9 7.9H166.4c-17.5 0-31.7 14.2-31.7 31.7V95h31.7V55.5c0-8.8 7.1-15.9 15.8-15.9H293a15.88 15.88 0 0 1 15.9 15.9V95h31.7V39.6c0-17.5-14.2-31.7-31.7-31.7z" fill="#e7eced"/><path d="M356.4 356.4H118.8c-13.1 0-23.8-10.6-23.8-23.8v-7.9h285.1v7.9c.1 13.2-10.6 23.8-23.7 23.8z" fill="#78d2fa"/><path d="M190.1,403.9h95v63.4h-95V403.9z" fill="#ff5a5a"/><path d="M261.4 261.4c0 13.1-10.6 23.8-23.8 23.8-13.1 0-23.8-10.6-23.8-23.8 0-13.1 10.6-23.8 23.8-23.8 13.1 0 23.8 10.6 23.8 23.8z" fill="#a5dc69"/><path d="M356.4 364.3H118.8c-8.5 0-16.4-3.3-22.4-9.3s-9.3-14-9.3-22.4V110.9c0-8.5 3.3-16.4 9.3-22.4s13.9-9.3 22.4-9.3h237.6c17.5 0 31.7 14.2 31.7 31.7v221.7c0 17.5-14.2 31.7-31.7 31.7zM118.8 95c-4.2 0-8.2 1.6-11.2 4.6s-4.6 7-4.6 11.2v221.7c0 4.2 1.6 8.2 4.6 11.2s7 4.6 11.2 4.6h237.6c8.7 0 15.8-7.1 15.8-15.9V110.9c0-8.7-7.1-15.9-15.8-15.9H118.8z"/><path d="M356.4 364.3H118.8c-17.5 0-31.7-14.2-31.7-31.7v-7.9a7.85 7.85 0 0 1 7.9-7.9h285.1a7.85 7.85 0 0 1 7.9 7.9v7.9c.1 17.5-14.1 31.7-31.6 31.7zM103 332.6c0 8.7 7.1 15.8 15.8 15.8h237.6c8.7 0 15.8-7.1 15.8-15.8H103zm182.1 142.6h-95a7.85 7.85 0 0 1-7.9-7.9v-63.4a7.85 7.85 0 0 1 7.9-7.9h95a7.85 7.85 0 0 1 7.9 7.9v63.4a7.85 7.85 0 0 1-7.9 7.9zM198 459.4h79.2v-47.5H198v47.5z"/><path d="M190.1 459.4H23.8C10.7 459.4 0 448.7 0 435.6s10.7-23.8 23.8-23.8h166.3a7.85 7.85 0 0 1 7.9 7.9v31.7c0 4.4-3.5 8-7.9 8zM23.8 427.7a7.9 7.9 0 1 0 0 15.8h158.4v-15.8H23.8zm427.6 31.7H285.1a7.85 7.85 0 0 1-7.9-7.9v-31.7a7.85 7.85 0 0 1 7.9-7.9h166.3c13.1 0 23.8 10.7 23.8 23.8 0 13-10.7 23.7-23.8 23.7zM293 443.5h158.4a7.9 7.9 0 1 0 0-15.8H293v15.8zm-39.6-31.7h-31.7a7.85 7.85 0 0 1-7.9-7.9v-47.5a7.85 7.85 0 0 1 7.9-7.9h31.7a7.85 7.85 0 0 1 7.9 7.9v47.5c.1 4.4-3.5 7.9-7.9 7.9zM229.7 396h15.8v-31.7h-15.8V396zm95-182.2a7.85 7.85 0 0 1-7.9-7.9c0-43.7-35.5-79.2-79.2-79.2s-79.2 35.5-79.2 79.2a7.9 7.9 0 1 1-15.8 0c0-52.4 42.6-95 95-95s95 42.6 95 95a7.85 7.85 0 0 1-7.9 7.9zm-31.7 0a7.85 7.85 0 0 1-7.9-7.9c0-26.2-21.3-47.5-47.5-47.5s-47.5 21.3-47.5 47.5a7.9 7.9 0 1 1-15.8 0c0-34.9 28.4-63.4 63.4-63.4S301 171 301 205.9c0 4.4-3.6 7.9-8 7.9zm-31.6 0a7.85 7.85 0 0 1-7.9-7.9c0-8.7-7.1-15.8-15.8-15.8s-15.8 7.1-15.8 15.8a7.9 7.9 0 1 1-15.8 0c0-17.5 14.2-31.7 31.7-31.7s31.7 14.2 31.7 31.7c-.2 4.4-3.8 7.9-8.1 7.9zM237.6 293c-17.5 0-31.7-14.2-31.7-31.7s14.2-31.7 31.7-31.7 31.7 14.2 31.7 31.7-14.2 31.7-31.7 31.7zm0-47.5c-8.7 0-15.8 7.1-15.8 15.8s7.1 15.8 15.8 15.8 15.8-7.1 15.8-15.8-7.1-15.8-15.8-15.8zM340.6 95h-206a7.85 7.85 0 0 1-7.9-7.9V39.6c0-21.9 17.8-39.6 39.6-39.6h142.5c21.9 0 39.6 17.8 39.6 39.6v47.5c.1 4.4-3.4 7.9-7.8 7.9zm-198-15.8h190.1V39.6c0-13.1-10.7-23.8-23.8-23.8H166.4c-13.1 0-23.8 10.7-23.8 23.8v39.6z"/><path d="M308.9 95H166.3a7.85 7.85 0 0 1-7.9-7.9V55.5c0-6.3 2.4-12.3 6.9-16.8s10.5-7 16.8-7H293c13.1 0 23.8 10.7 23.8 23.8v31.7c0 4.3-3.5 7.8-7.9 7.8zM174.2 79.2H301V55.5c0-4.4-3.6-8-8-8H182.2c-2.1 0-4.1.8-5.6 2.3s-2.3 3.5-2.3 5.6v23.8z"/></svg>