<svg xmlns="http://www.w3.org/2000/svg" viewBox="0 0 512 493.3"><path d="M295.2 144H191.1c-46.4 37.6-75.6 92.2-75.6 153 0 54.5 23.5 104.1 61.8 140.9 16.7 4.1 34.5 6.4 52.8 6.4 21.7 0 42.6-3.1 62-8.8V465h62v-60.1c38-28.4 62-69.6 62-115.5 0-66.7-50.3-123.4-120.9-145.4z" fill="#78d2fa"/><path d="M230.2 10.3c-45.6 0-82.6 37-82.6 82.6 0 19.3 6.6 37 17.6 51.1 15.1 19.2 38.6 31.6 65 31.6s49.9-12.4 65-31.6c11.1-14.1 17.7-31.8 17.7-51.1-.1-45.6-37.1-82.6-82.7-82.6z" fill="#fff"/><path d="M295.2 144c11.1-14.1 17.7-31.8 17.7-51.1 0-37-24.3-68.3-57.8-78.9-33.7 10.7-58 42-58 79 0 19.3 6.6 37 17.6 51.1 10.2 12.9 24.1 22.8 40.2 27.8C271 166.8 285 157 295.2 144z" fill="#a5dc69"/><path d="M364.5 299.6c0 5.7 4.6 10.3 10.3 10.3s10.3-4.6 10.3-10.3-4.6-10.3-10.3-10.3-10.3 4.6-10.3 10.3z"/><path d="M230.2 289.3c-5.7 0-10.3-4.6-10.3-10.3s4.6-10.3 10.3-10.3c3.7 0 7.5 1.9 11.2 5.4 4.1 4 10.6 3.9 14.6-.2s3.9-10.6-.2-14.6c-5.2-5.1-10.5-7.9-15.2-9.5v-12c0-5.7-4.6-10.3-10.3-10.3s-10.3 4.6-10.3 10.3v12.1c-12 4.3-20.7 15.7-20.7 29.2 0 17.1 13.9 31 31 31 5.7 0 10.3 4.6 10.3 10.3s-4.6 10.3-10.3 10.3c-4.4 0-9.2-2.8-13.4-7.8-3.7-4.4-10.2-4.9-14.6-1.3-4.4 3.7-4.9 10.2-1.3 14.6 5.5 6.6 12 11.1 18.9 13.5v12.1c0 5.7 4.6 10.3 10.3 10.3s10.3-4.6 10.3-10.3v-12.1c12-4.3 20.7-15.7 20.7-29.2 0-17.3-13.9-31.2-31-31.2z" fill="#ff5a5a"/><path d="M126.9 227.3c-17.1 0-31 13.9-31 31 0 5.7 4.6 10.3 10.3 10.3s10.3-4.6 10.3-10.3 4.6-10.3 10.3-10.3c2.8 0 5.4 1.1 7.3 3 2 2 3 4.5 3 7.3 0 5.7 4.6 10.3 10.3 10.3s10.3-4.6 10.3-10.3c0-8.3-3.2-16.1-9.1-21.9-5.7-5.9-13.5-9.1-21.7-9.1zm207.6-29.7c-4.6-3.4-11.1-2.3-14.4 2.3-3.4 4.6-2.3 11.1 2.3 14.4 19.2 14 32.5 31.7 38.5 51.2 1.4 4.4 5.5 7.3 9.9 7.3 1 0 2-.2 3.1-.5 5.4-1.7 8.5-7.5 6.8-12.9-7.4-23.8-23.4-45.2-46.2-61.8zM509.1 155c0-5.7-4.6-10.3-10.3-10.3s-10.3 4.6-10.3 10.3c0 8.3-2 16.3-5.7 23.5-5.6-8-14.9-13.2-25.3-13.2-17.1 0-31 13.9-31 31s13.9 31 31 31c3.3 0 6.5-.5 9.5-1.5-1.5 8.7-5.1 16.9-10.8 23.8-8 9.8-19.1 16.3-31.4 18.3-4.1-26.9-15.9-52.3-34.8-74.6-20.3-23.9-47.4-42.6-78.8-54.6 7.9-13.9 12-29.4 12-45.7 0-51.3-41.7-93-93-93s-93 41.7-93 93c0 16.3 4.1 31.8 12 45.7-6.7 2.5-13.2 5.4-19.5 8.6-10.6-13.1-25.3-22-42-25.4-18.9-3.8-38.2 0-54.3 10.7-4.7 3.2-6 9.6-2.9 14.3l35 52.5c-9.2 11.9-16.5 24.7-21.8 38.3H13.2c-5.7 0-10.3 4.6-10.3 10.3v82.6c0 5.7 4.6 10.3 10.3 10.3h30.4c10.2 26.3 28.1 49.9 52.2 68.9v55c0 5.7 4.6 10.3 10.3 10.3h62c5.7 0 10.3-4.6 10.3-10.3v-16.1c16.8 3.8 34.1 5.8 51.7 5.8s34.9-1.9 51.6-5.8v16.1c0 5.7 4.6 10.3 10.3 10.3h62c5.7 0 10.3-4.6 10.3-10.3v-55c39.5-31.2 62-74.9 62-120.6v-.8c17.9-2.6 34.2-11.7 45.8-25.9 12.8-15.7 18.3-36 15.4-56.2 13.8-13.5 21.6-32 21.6-51.3zM230.2 20.7c39.9 0 72.3 32.4 72.3 72.3 0 16.4-5.3 31.8-15.4 44.7-13.8 17.6-34.5 27.6-56.9 27.6-22.3 0-43-10.1-56.9-27.6-10.1-12.9-15.4-28.3-15.4-44.7 0-39.9 32.4-72.3 72.3-72.3zM348 396.5c-2.6 2-4.2 5-4.2 8.3v49.8h-41.3v-19.2a10.37 10.37 0 0 0-4.1-8.3c-2.6-2-6-2.6-9.1-1.6-18.9 5.6-38.8 8.4-59.1 8.4s-40.1-2.8-59.1-8.4a10.54 10.54 0 0 0-9.1 1.6 10.37 10.37 0 0 0-4.1 8.3v19.2h-41.3v-49.8c0-3.3-1.5-6.3-4.2-8.3-25-18.7-42.9-42.6-51.7-69.2-1.4-4.2-5.4-7.1-9.8-7.1H23.6v-62h27.3c4.5 0 8.4-2.9 9.8-7.1 5.3-16 13.9-31 25.4-44.5a10.38 10.38 0 0 0 .8-12.4l-4.3-6.5L54 144.9c9.3-3.8 19.5-4.8 29.6-2.8 13.5 2.7 25.2 10.5 32.9 22 0 0 1.1 1.7 1.5 2.2 3 4.5 9 6 13.7 3.3 9.5-5.3 19.7-9.9 30.2-13.6 5.9 6.4 12.7 11.9 20 16.4l-2.9.9c-5.4 1.8-8.4 7.6-6.6 13 1.4 4.4 5.5 7.1 9.8 7.1 1.1 0 2.1-.2 3.2-.5 14.4-4.7 29.5-7 44.9-7 15.3 0 30.4 2.3 44.6 7 5.4 1.8 11.3-1.2 13-6.6 1.8-5.4-1.2-11.2-6.6-13-.9-.3-1.8-.6-2.6-.8 7.3-4.5 14-10 20-16.4C363.1 178.6 406 231.4 406 289.3c-.2 40.7-21.3 79.8-58 107.2zm109.4-189.9c-5.7 0-10.3-4.6-10.3-10.3s4.6-10.3 10.3-10.3 10.3 4.6 10.3 10.3c0 .9-.1 1.9-.4 2.8l-.3.9v.1c-1.4 3.8-5.3 6.5-9.6 6.5zm-227.2-62c28.5 0 51.6-23.2 51.6-51.7s-23.2-51.6-51.6-51.6c-28.5 0-51.7 23.2-51.7 51.6 0 28.6 23.2 51.7 51.7 51.7zm0-82.6c17.1 0 31 13.9 31 31s-13.9 31-31 31-31-13.9-31-31 13.9-31 31-31z"/></svg>