<svg xmlns="http://www.w3.org/2000/svg" xmlns:xlink="http://www.w3.org/1999/xlink" viewBox="0 0 512 512"><g fill="#ff5722"><path d="M373.334 117.376a10.67 10.67 0 0 0-10.667 10.667v64a10.67 10.67 0 0 0 10.667 10.667h64a10.67 10.67 0 0 0 10.667-10.667c-.001-41.238-33.43-74.667-74.667-74.667zm0 106.666c-17.673 0-32-14.327-32-32v-52.245c-40.733 5.794-69.056 43.512-63.262 84.245s43.512 69.056 84.245 63.262a74.5 74.5 0 0 0 63.262-63.262h-52.245z"/><path d="M294.656 13.013c-2.53-2.056-5.863-2.842-9.045-2.133l-277.333 64A10.67 10.67 0 0 0 0 85.376v362.667a10.67 10.67 0 0 0 9.045 10.539l277.333 42.667a10.67 10.67 0 0 0 12.164-8.921 10.68 10.68 0 0 0 .124-1.617V21.376a10.66 10.66 0 0 0-4.01-8.363z"/><use xlink:href="#B"/><use xlink:href="#C"/><use xlink:href="#D"/></g><use xlink:href="#E" fill="#fafafa"/><path d="M288 501.376c-.543-.001-1.085-.044-1.62-.128L9.046 458.58a10.67 10.67 0 0 1-9.045-10.539V85.376c.003-4.968 3.435-9.276 8.277-10.39l277.333-64a10.67 10.67 0 0 1 12.785 8.006 10.62 10.62 0 0 1 .271 2.383V490.71A10.67 10.67 0 0 1 288 501.376zM21.334 438.9l256 39.38V34.794l-256 59.115V438.9z"/><use xlink:href="#B"/><use xlink:href="#C"/><use xlink:href="#D"/><use xlink:href="#E"/><path d="M437.334 202.71h-64a10.67 10.67 0 0 1-10.667-10.667v-64a10.67 10.67 0 0 1 10.667-10.667c41.237 0 74.667 33.43 74.667 74.667a10.67 10.67 0 0 1-10.667 10.667zM384 181.376h41.6a53.55 53.55 0 0 0-41.6-41.6v41.6z"/><path d="M352 288.042c-41.237 0-74.667-33.43-74.667-74.667s33.43-74.667 74.667-74.667a10.67 10.67 0 0 1 10.667 10.667A10.67 10.67 0 0 1 352 160.042c-29.455 0-53.333 23.878-53.333 53.333s23.878 53.333 53.333 53.333 53.333-23.878 53.333-53.333A10.67 10.67 0 0 1 416 202.708a10.67 10.67 0 0 1 10.667 10.667c0 41.238-33.43 74.667-74.667 74.667z"/><defs ><path id="B" d="M501.334 458.71H288a10.67 10.67 0 0 1-10.667-10.667A10.67 10.67 0 0 1 288 437.375h202.667V74.71H288a10.67 10.67 0 0 1-10.667-10.667A10.67 10.67 0 0 1 288 53.376h213.333A10.67 10.67 0 0 1 512 64.043v384a10.67 10.67 0 0 1-10.666 10.666z"/><path id="C" d="M437.334 394.71H288a10.67 10.67 0 0 1-10.667-10.667A10.67 10.67 0 0 1 288 373.375h149.333A10.67 10.67 0 0 1 448 384.042a10.67 10.67 0 0 1-10.666 10.667z"/><path id="D" d="M437.334 330.71H288a10.67 10.67 0 0 1-10.667-10.667A10.67 10.67 0 0 1 288 309.375h149.333A10.67 10.67 0 0 1 448 320.042a10.67 10.67 0 0 1-10.666 10.667z"/><path id="E" d="M96 352.043a10.67 10.67 0 0 1-10.667-10.667V170.71A10.67 10.67 0 0 1 96 160.042h42.667c29.455 0 53.333 23.878 53.333 53.333v21.333c0 29.455-23.878 53.333-53.333 53.333h-32v53.333A10.67 10.67 0 0 1 96 352.043zm10.667-85.334h32c17.673 0 32-14.327 32-32v-21.333c0-17.673-14.327-32-32-32h-32v85.333z"/></defs></svg>