<svg xmlns="http://www.w3.org/2000/svg" viewBox="0 0 475.2 475.2"><path d="M467.3 467.3V277.2H396l3.3-10c5-14.9-3-31.1-18-36.1a28.01 28.01 0 0 0-9.1-1.5c-15.7 0-28.5 12.7-28.6 28.5a28.01 28.01 0 0 0 1.5 9.1l3.3 10h-71.3v71.3l10-3.3c14.9-5 31.1 3 36.1 18a28.01 28.01 0 0 1 1.5 9.1c0 15.7-12.7 28.5-28.5 28.6a28.01 28.01 0 0 1-9.1-1.5l-10-3.3v71.3l190.2-.1z" fill="#78d2fa"/><path d="M277.2 277.2v71.3l10-3.3c14.9-5 31.1 3 36.1 18a28.01 28.01 0 0 1 1.5 9.1c0 15.7-12.7 28.5-28.5 28.6a28.01 28.01 0 0 1-9.1-1.5l-10-3.3v71.3H87.1V277.2h71.3l-3.3 10c-5 14.9 3 31.1 18 36.1a28.01 28.01 0 0 0 9.1 1.5c15.7 0 28.5-12.7 28.6-28.5a28.01 28.01 0 0 0-1.5-9.1l-3.3-10h71.2z" fill="#383856"/><path d="M467.3 277.2H396l3.3-10c5-14.9-3-31.1-18-36.1a28.01 28.01 0 0 0-9.1-1.5c-15.7 0-28.5 12.7-28.6 28.5a28.01 28.01 0 0 0 1.5 9.1l3.3 10h-71.3v-71.3l10 3.3c14.9 5 31.1-3 36.1-18a28.01 28.01 0 0 0 1.5-9.1c0-15.7-12.7-28.5-28.5-28.6a28.01 28.01 0 0 0-9.1 1.5l-10 3.3V87.1h190.1l.1 190.1z" fill="#ff5a5a"/><path d="M7.9 7.9V198h71.3l-3.3 10c-5 14.9 3 31.1 18 36.1a28.01 28.01 0 0 0 9.1 1.5c15.7 0 28.5-12.7 28.6-28.5a28.01 28.01 0 0 0-1.5-9.1l-3.3-10H198v-71.3l10 3.3c14.9 5 31.1-3 36.1-18a28.01 28.01 0 0 0 1.5-9.1c0-15.7-12.7-28.5-28.5-28.6a28.01 28.01 0 0 0-9.1 1.5l-10 3.3V7.9H7.9z" fill="#a5dc69"/><path d="M277.2 398.9l3.2-1.8-3.2-1.1v2.9z" fill="#91cece"/><path d="M324.6 369.6l.2 2.7c0 15.7-12.7 28.5-28.5 28.6a28.01 28.01 0 0 1-9.1-1.5l-6.8-2.3-3.2 1.8v68.4h190.1V277.2H426c-29 35.7-63.2 66.9-101.4 92.4z" fill="#78d2fa"/><path d="M287.2 399.3c14.9 5 31.1-3 36.1-18a28.01 28.01 0 0 0 1.5-9.1c0-.9-.1-1.8-.2-2.7-14.6 9.9-29.4 19.1-44.2 27.5l6.8 2.3zm-171.6 68h161.6v-68.4c-51.3 28.4-105.5 51.3-161.6 68.4z" fill="#383856"/><path d="M426 277.2h41.3v-68.3c-10.8 24.4-24.7 47.4-41.3 68.3z" fill="#ff5a5a"/><path d="M198,25.1V7.9H7.9v126.6C36.9,98.7,95.4,46.2,198,25.1z" fill="#a5dc69"/><path d="M467.3 79.2H277.2a7.85 7.85 0 0 0-7.9 7.9v71.3a7.85 7.85 0 0 0 7.9 7.9c.8 0 1.7-.1 2.5-.4l10-3.3c10.8-3.5 22.4 2.4 26 13.2 3.5 10.8-2.4 22.4-13.2 26a20.03 20.03 0 0 1-12.8 0l-10-3.3c-4.1-1.4-8.6.9-10 5-.3.8-.4 1.6-.4 2.5v63.4h-63.4a7.85 7.85 0 0 0-7.9 7.9c0 .8.1 1.7.4 2.5l3.3 10c3.5 10.8-2.4 22.4-13.2 26-10.8 3.5-22.4-2.4-26-13.2a20.03 20.03 0 0 1 0-12.8l3.3-10c1.4-4.1-.9-8.6-5-10-.8-.3-1.6-.4-2.5-.4H87.1a7.85 7.85 0 0 0-7.9 7.9v190.1a7.85 7.85 0 0 0 7.9 7.9h380.2a7.85 7.85 0 0 0 7.9-7.9V87.1a7.85 7.85 0 0 0-7.9-7.9zM317.5 211.7c16.4-11.7 20.2-34.4 8.5-50.8-9.2-12.9-25.8-18.4-40.9-13.5V95h174.2v174.2H407c6.1-19.2-4.6-39.6-23.8-45.7s-39.6 4.6-45.7 23.8a37.16 37.16 0 0 0 0 21.9h-52.4v-52.4c11 3.7 23.1 1.7 32.4-5.1zM95 285.1h52.4c-6.1 19.2 4.6 39.6 23.8 45.7s39.6-4.6 45.7-23.8a37.16 37.16 0 0 0 0-21.9h52.4v63.4a7.85 7.85 0 0 0 7.9 7.9c.8 0 1.7-.1 2.5-.4l10-3.3c10.8-3.5 22.4 2.4 26 13.2 3.5 10.8-2.4 22.4-13.2 26a20.03 20.03 0 0 1-12.8 0l-10-3.3c-4.1-1.4-8.6.9-10 5-.3.8-.4 1.6-.4 2.5v63.4H95V285.1zm364.4 174.3H285.1V407c19.2 6.1 39.6-4.6 45.7-23.8s-4.6-39.6-23.8-45.7a37.16 37.16 0 0 0-21.9 0v-52.4h63.4a7.85 7.85 0 0 0 7.9-7.9c0-.8-.1-1.7-.4-2.5l-3.3-10c-3.5-10.8 2.4-22.4 13.2-26 10.8-3.5 22.4 2.4 26 13.2a20.03 20.03 0 0 1 0 12.8l-3.3 10c-1.4 4.1.9 8.6 5 10 .8.3 1.6.4 2.5.4h63.4l-.1 174.3z"/><path d="M7.9 205.9h60.3c-6.1 19.2 4.6 39.6 23.8 45.7s39.6-4.6 45.7-23.8a37.16 37.16 0 0 0 0-21.9H198a7.85 7.85 0 0 0 7.9-7.9v-60.3c19.2 6.1 39.6-4.6 45.7-23.8s-4.6-39.6-23.8-45.7a37.16 37.16 0 0 0-21.9 0V7.9A7.85 7.85 0 0 0 198 0H7.9A7.85 7.85 0 0 0 0 7.9V198a7.85 7.85 0 0 0 7.9 7.9zm7.9-190.1H190v63.4a7.85 7.85 0 0 0 7.9 7.9c.8 0 1.7-.1 2.5-.4l10-3.3c10.8-3.5 22.4 2.4 26 13.2 3.5 10.8-2.4 22.4-13.2 26a20.03 20.03 0 0 1-12.8 0l-10-3.3c-4.1-1.4-8.6.9-10 5-.3.8-.4 1.6-.4 2.5v63.4h-63.4a7.85 7.85 0 0 0-7.9 7.9c0 .8.1 1.7.4 2.5l3.3 10c3.5 10.8-2.4 22.4-13.2 26-10.8 3.5-22.4-2.4-26-13.2a20.03 20.03 0 0 1 0-12.8l3.3-10c1.4-4.1-.9-8.6-5-10-.8-.3-1.6-.4-2.5-.4H15.8V15.8z"/></svg>