<?xml version="1.0" encoding="utf-8"?>
<!-- Generator: Adobe Illustrator 22.1.0, SVG Export Plug-In . SVG Version: 6.00 Build 0)  -->
<svg version="1.1" id="Layer_1" xmlns="http://www.w3.org/2000/svg" xmlns:xlink="http://www.w3.org/1999/xlink" x="0px" y="0px"
	 viewBox="0 0 750 750" style="enable-background:new 0 0 750 750;" xml:space="preserve">
<style type="text/css">
	.st0{fill:#ED3237;}
</style>
<path class="st0" d="M693.5,0h-375c-27.6,0-50,22.4-50,50v200h25V50c0-13.8,11.2-25,25-25h375c13.8,0,25,11.2,25,25v225H506v25
	h212.5v12.5c0,13.8-11.2,25-25,25H506v25h40l19.4,87.5H506v25h112.5v-25H591l-19.4-87.5h121.9c27.6,0,50-22.4,50-50V50
	C743.5,22.4,721.1,0,693.5,0z M431,275H56c-27.6,0-50,22.4-50,50v262.5c0,27.6,22.4,50,50,50h121.9L158.5,725H131v25h225v-25h-27.5
	l-19.4-87.5H431c27.6,0,50-22.4,50-50V325C481,297.4,458.6,275,431,275z M56,300h375c13.8,0,25,11.2,25,25v225H31V325
	C31,311.2,42.2,300,56,300z M302.9,725H184.1l19.4-87.5h80L302.9,725z M431,612.5H56c-13.8,0-25-11.2-25-25V575h425v12.5
	C456,601.3,444.8,612.5,431,612.5z M118.5,225h25v25h-25V225z M118.5,175h25v25h-25V175z M118.5,125h25v25h-25V125z M168.5,125h25
	v25h-25V125z M218.5,125h25v25h-25V125z M656,487.5h25v25h-25V487.5z M656,437.5h25v25h-25V437.5z M656,387.5h25v25h-25V387.5z
	 M656,537.5h25v25h-25V537.5z M656,587.5h25v25h-25V587.5z M606,587.5h25v25h-25V587.5z M556,587.5h25v25h-25V587.5z M506,587.5h25
	v25h-25V587.5z M106,525h200c13.8,0,25-11.2,25-25v-25h50c13.8,0,25-11.2,25-25V350c0-13.8-11.2-25-25-25H181c-13.8,0-25,11.2-25,25
	v25h-50c-13.8,0-25,11.2-25,25v100C81,513.8,92.2,525,106,525z M181,350h200v100h-50v-50c0-13.8-11.2-25-25-25H181V350z M106,400
	h200v100H106V400z M568.5,250c13.8,0,25-11.2,25-25v-25h50c13.8,0,25-11.2,25-25V75c0-13.8-11.2-25-25-25h-200
	c-13.8,0-25,11.2-25,25v25h-50c-13.8,0-25,11.2-25,25v100c0,13.8,11.2,25,25,25H568.5z M443.5,75h200v100h-50v-50
	c0-13.8-11.2-25-25-25h-125V75z M368.5,125h200v100h-200V125z"/>
</svg>
