<?xml version="1.0" encoding="utf-8"?>
<!-- Generator: Adobe Illustrator 22.1.0, SVG Export Plug-In . SVG Version: 6.00 Build 0)  -->
<svg version="1.1" id="Layer_1" xmlns="http://www.w3.org/2000/svg" xmlns:xlink="http://www.w3.org/1999/xlink" x="0px" y="0px"
	 viewBox="0 0 198 198" style="enable-background:new 0 0 198 198;" xml:space="preserve">
<style type="text/css">
	.st0{fill:#ED3237;}
	.st1{fill:#6B6B6B;stroke:#ED3237;stroke-width:6;stroke-linecap:round;stroke-linejoin:round;}
</style>
<g>
	<path class="st0" d="M194.6,184.3c-1.9,0-3.4,1.5-3.4,3.3c0,0,0,0,0,0.1v3.4h-3.4c-1.9,0-3.4,1.5-3.4,3.4c0,1.9,1.5,3.4,3.4,3.4
		h6.8c1.9,0,3.4-1.5,3.4-3.3c0,0,0,0,0-0.1v-6.8C198,185.8,196.5,184.3,194.6,184.3L194.6,184.3z M171.6,191.1h-16.1
		c-1.9,0-3.4,1.5-3.4,3.4c0,1.9,1.5,3.4,3.4,3.4h16.1c1.9,0,3.4-1.5,3.4-3.4C175,192.6,173.5,191.1,171.6,191.1z M139.3,191.1h-16.1
		c-1.9,0-3.4,1.5-3.4,3.4c0,1.9,1.5,3.4,3.4,3.4h16.1c1.9,0,3.4-1.5,3.4-3.4C142.7,192.6,141.2,191.1,139.3,191.1z M42.5,191.1H26.4
		c-1.9,0-3.4,1.5-3.4,3.4c0,1.9,1.5,3.4,3.4,3.4h16.1c1.9,0,3.4-1.5,3.4-3.4C45.9,192.6,44.4,191.1,42.5,191.1z M74.8,191.1H58.6
		c-1.9,0-3.4,1.5-3.4,3.4c0,1.9,1.5,3.4,3.4,3.4h16.1c1.9,0,3.4-1.5,3.4-3.3c0,0,0,0,0-0.1C78.1,192.6,76.7,191.1,74.8,191.1
		L74.8,191.1z M107.1,191.1H90.9c-1.9,0-3.4,1.5-3.4,3.4c0,1.9,1.5,3.4,3.4,3.4H107c1.9,0,3.4-1.5,3.4-3.3c0,0,0,0,0-0.1
		C110.4,192.6,108.9,191.1,107.1,191.1L107.1,191.1z M10.2,191.1H6.8v-3.4c0-1.9-1.5-3.4-3.3-3.4c0,0,0,0-0.1,0
		c-1.9,0-3.4,1.5-3.4,3.3c0,0,0,0,0,0.1v6.8c0,1.9,1.5,3.4,3.3,3.4c0,0,0,0,0.1,0h6.8c1.9,0,3.4-1.5,3.4-3.4
		C13.6,192.6,12.1,191.1,10.2,191.1z M3.4,152c-1.9,0-3.4,1.5-3.4,3.3c0,0,0,0,0,0.1v16.1c0,1.9,1.5,3.4,3.3,3.4c0,0,0,0,0.1,0
		c1.9,0,3.4-1.5,3.4-3.3c0,0,0,0,0-0.1v-16.1C6.8,153.5,5.3,152,3.4,152z M3.4,119.8c-1.9,0-3.4,1.5-3.4,3.3c0,0,0,0,0,0.1v16.1
		c0,1.9,1.5,3.4,3.3,3.4c0,0,0,0,0.1,0c1.9,0,3.4-1.5,3.4-3.3c0,0,0,0,0-0.1v-16.1C6.8,121.3,5.3,119.8,3.4,119.8
		C3.4,119.8,3.4,119.8,3.4,119.8z M3.4,87.5C1.5,87.5,0,89,0,90.8c0,0,0,0,0,0.1V107c0,1.9,1.5,3.4,3.3,3.4c0,0,0,0,0.1,0
		c1.9,0,3.4-1.5,3.4-3.3c0,0,0,0,0-0.1V90.9C6.8,89,5.3,87.5,3.4,87.5C3.4,87.5,3.4,87.5,3.4,87.5z M3.4,23C1.5,23,0,24.5,0,26.3
		c0,0,0,0,0,0.1v16.1c0,1.9,1.5,3.4,3.3,3.4c0,0,0,0,0.1,0c1.9,0,3.4-1.5,3.4-3.3c0,0,0,0,0-0.1V26.4C6.8,24.5,5.3,23,3.4,23
		C3.4,23,3.4,23,3.4,23z M3.4,55.2c-1.9,0-3.4,1.5-3.4,3.3c0,0,0,0,0,0.1v16.1c0,1.9,1.5,3.4,3.3,3.4c0,0,0,0,0.1,0
		c1.9,0,3.4-1.5,3.4-3.3c0,0,0,0,0-0.1V58.6C6.8,56.7,5.3,55.2,3.4,55.2z M10.2,0H3.4C1.5,0,0,1.5,0,3.3c0,0,0,0,0,0.1v6.8
		c0,1.9,1.5,3.4,3.3,3.4c0,0,0,0,0.1,0c1.9,0,3.4-1.5,3.4-3.3c0,0,0,0,0-0.1V6.8h3.4c1.9,0,3.4-1.5,3.4-3.3c0,0,0,0,0-0.1
		C13.7,1.5,12.1,0,10.2,0z M74.8,0H58.6c-1.9,0-3.4,1.5-3.4,3.3c0,0,0,0,0,0.1c0,1.9,1.5,3.4,3.3,3.4c0,0,0,0,0.1,0h16.1
		c1.9,0,3.4-1.5,3.4-3.3c0,0,0,0,0-0.1C78.2,1.5,76.7,0,74.8,0z M42.5,0H26.4C24.5,0,23,1.5,23,3.3c0,0,0,0,0,0.1
		c0,1.9,1.5,3.4,3.3,3.4c0,0,0,0,0.1,0h16.1c1.9,0,3.4-1.5,3.4-3.3c0,0,0,0,0-0.1C45.9,1.5,44.4,0,42.5,0C42.5,0,42.5,0,42.5,0z
		 M107.1,0H90.9c-1.9,0-3.4,1.5-3.4,3.3c0,0,0,0,0,0.1c0,1.9,1.5,3.4,3.3,3.4c0,0,0,0,0.1,0H107c1.9,0,3.4-1.5,3.4-3.3
		c0,0,0,0,0-0.1C110.5,1.5,108.9,0,107.1,0z"/>
	<path class="st0" d="M171.6,0h-16.1c-1.9,0-3.4,1.5-3.4,3.3c0,0,0,0,0,0.1c0,1.9,1.5,3.4,3.3,3.4c0,0,0,0,0.1,0h16.1
		c1.9,0,3.4-1.5,3.4-3.3c0,0,0,0,0-0.1C175,1.5,173.5,0,171.6,0C171.6,0,171.6,0,171.6,0z M139.3,0h-16.1c-1.9,0-3.4,1.5-3.4,3.3
		c0,0,0,0,0,0.1c0,1.9,1.5,3.4,3.3,3.4c0,0,0,0,0.1,0h16.1c1.9,0,3.4-1.5,3.4-3.3c0,0,0,0,0-0.1C142.7,1.5,141.2,0,139.3,0
		C139.3,0,139.3,0,139.3,0z M194.6,0h-6.8c-1.9,0-3.4,1.5-3.4,3.3c0,0,0,0,0,0.1c0,1.9,1.5,3.4,3.3,3.4c0,0,0,0,0.1,0h3.4v3.4
		c0,1.9,1.5,3.4,3.4,3.4c1.9,0,3.4-1.5,3.4-3.4V3.4C198,1.5,196.5,0,194.6,0z M194.6,55.2c-1.9,0-3.4,1.5-3.4,3.3c0,0,0,0,0,0.1
		v16.1c0,1.9,1.5,3.4,3.4,3.4c1.9,0,3.4-1.5,3.4-3.4V58.6C198,56.8,196.4,55.2,194.6,55.2L194.6,55.2z M194.6,23
		c-1.9,0-3.4,1.5-3.4,3.3c0,0,0,0,0,0.1v16.1c0,1.9,1.5,3.4,3.4,3.4c1.9,0,3.4-1.5,3.4-3.4V26.4C198,24.5,196.5,23,194.6,23
		L194.6,23z M194.6,152.1c-1.9,0-3.4,1.5-3.4,3.3c0,0,0,0,0,0.1v16.1c0,1.9,1.5,3.4,3.4,3.4c1.9,0,3.4-1.5,3.4-3.4v-16.1
		C198,153.6,196.5,152.1,194.6,152.1L194.6,152.1z M194.6,119.8c-1.9,0-3.4,1.5-3.4,3.3c0,0,0,0,0,0.1v16.1c0,1.9,1.5,3.4,3.4,3.4
		c1.9,0,3.4-1.5,3.4-3.4v-16.1C198,121.3,196.5,119.8,194.6,119.8L194.6,119.8z M194.6,87.5c-1.9,0-3.4,1.5-3.4,3.3c0,0,0,0,0,0.1
		V107c0,1.9,1.5,3.4,3.4,3.4c1.9,0,3.4-1.5,3.4-3.4V90.9C198,89,196.5,87.5,194.6,87.5L194.6,87.5z M99,95.6H3.4
		c-1.9,0-3.4,1.5-3.4,3.3c0,0,0,0,0,0.1v95.6c0,1.9,1.5,3.4,3.3,3.4c0,0,0,0,0.1,0H99c1.9,0,3.4-1.5,3.4-3.3c0,0,0,0,0-0.1V99
		C102.4,97.1,100.9,95.6,99,95.6C99,95.6,99,95.6,99,95.6z M95.6,191.1H6.8v-88.7h88.7C95.6,102.4,95.6,191.1,95.6,191.1z"/>
</g>
<path class="st1" d="M110.7,87.3l42.6-42.7"/>
<path class="st0" d="M153.6,75.9c-1.7-0.1-3-1.5-2.9-3.1l1-26.5l-26.3,1c-1.8,0.1-3.4-1.4-3.4-3.2c-0.1-1.5,1.1-2.8,2.7-2.9
	l30.3-1.1c1.6-0.1,2.9,1.2,2.8,2.8L156.7,73C156.6,74.7,155.3,76,153.6,75.9L153.6,75.9z"/>
</svg>
