<?xml version="1.0" encoding="utf-8"?>
<!-- Generator: Adobe Illustrator 22.1.0, SVG Export Plug-In . SVG Version: 6.00 Build 0)  -->
<svg version="1.1" id="Layer_1" xmlns="http://www.w3.org/2000/svg" xmlns:xlink="http://www.w3.org/1999/xlink" x="0px" y="0px"
	 viewBox="0 0 492.9 503.2" style="enable-background:new 0 0 492.9 503.2;" xml:space="preserve">
<style type="text/css">
	.st0{fill:#ED3237;}
</style>
<g>
	<path class="st0" d="M489.3,376l-11.9-2.3c-5.6-1.1-10-4.8-12.1-10.2c-2.1-5.3-1.3-11.2,2-15.8l7.5-10.4c2.4-3.3,2.1-8-0.8-10.9
		L457.8,310c-2.8-2.8-7.2-3.3-10.5-1l-10.1,6.9c-4.7,3.3-10.4,3.8-15.7,1.5c-5.2-2.3-8.7-6.9-9.6-12.7L410,292
		c-0.6-4.1-4.1-7.1-8.2-7.1H379c-4,0-7.4,2.9-8.1,6.8l-3,15.7c-1,5.6-4.6,10-9.8,12.2s-10.8,1.6-15.4-1.6l-13-8.9
		c-3.3-2.3-7.7-1.8-10.5,1L303,326.5c-2.9,2.9-3.2,7.6-0.8,10.9l7.5,10.4c3.4,4.7,4.1,10.4,2,15.8s-6.5,9.1-12.1,10.2l-11.9,2.3
		c-3.9,0.8-6.7,4.2-6.7,8.2v23.3c0,4.1,3,7.7,7,8.3l12.5,2c5.6,0.9,10.2,4.4,12.5,9.7s1.8,11.1-1.4,15.9l-6.8,10.2
		c-2.2,3.3-1.8,7.8,1,10.7l16.2,16.5c2.9,2.9,7.4,3.3,10.7,0.8L343,474c4.6-3.4,10.3-4.2,15.6-2.1s9,6.6,10.1,12.3l2.3,12.1
		c0.7,3.9,4.1,6.8,8.1,6.8H402c4.1,0,7.5-3,8.2-7.1l1.4-8.9c0.9-5.8,4.6-10.6,9.9-12.8s11.3-1.5,15.9,1.9l7.2,5.4
		c3.3,2.5,7.9,2.1,10.7-0.8l16.2-16.5c2.8-2.8,3.2-7.3,1-10.7l-6.8-10.2c-3.2-4.8-3.7-10.6-1.4-15.9s6.8-8.9,12.5-9.7l12.5-2
		c4-0.6,7-4.2,7-8.3v-23.3C496,380.3,493.2,376.8,489.3,376L489.3,376z M479.5,400.4l-5.5,0.9c-11.2,1.7-20.6,9.1-25.1,19.6
		c-4.5,10.6-3.4,22.5,2.9,32l3,4.5l-6.3,6.5l-1.5-1.1c-9.3-6.9-21.3-8.4-32-3.9s-18.1,14.1-19.9,25.7l-0.3,1.8h-9l-1-5.3
		c-2.1-11.3-9.7-20.6-20.2-24.8s-22.3-2.6-31.4,4.1l-4.5,3.4l-6.3-6.5l3-4.5c6.3-9.5,7.4-21.5,2.9-32c-4.5-10.5-13.9-17.9-25.1-19.6
		l-5.5-0.9v-9.1l5.2-1c11.1-2.2,20.2-9.9,24.4-20.6c4.1-10.7,2.6-22.6-4.1-31.9l-3.3-4.6l6.3-6.5l7.3,5.1c9.2,6.3,20.7,7.5,31,3.2
		c10.2-4.3,17.6-13.5,19.7-24.5l1.7-8.9h9l0.9,5.6c1.7,11.4,8.9,20.9,19.3,25.5s22.2,3.5,31.5-3l4.4-3l6.3,6.5l-3.3,4.6
		c-6.7,9.3-8.2,21.2-4.1,31.9s13.2,18.4,24.4,20.6l5.2,1V400.4L479.5,400.4z M388.5,352c-22.8,0-41.3,18.8-41.3,42s18.5,42,41.3,42
		s41.3-18.8,41.3-42C429.9,370.8,411.3,352,388.5,352z M388.5,419.2c-13.7,0-24.8-11.3-24.8-25.2s11.1-25.2,24.8-25.2
		s24.8,11.3,24.8,25.2S402.2,419.2,388.5,419.2z M86.8,49.6c-20.5,0-37.2,17-37.2,37.8s16.7,37.8,37.2,37.8s37.2-17,37.2-37.8
		S107.3,49.6,86.8,49.6z M86.8,108.4c-11.4,0-20.7-9.4-20.7-21s9.3-21,20.7-21s20.7,9.4,20.7,21S98.2,108.4,86.8,108.4z"/>
	<ellipse class="st0" cx="413.3" cy="74.8" rx="8.3" ry="8.4"/>
	<ellipse class="st0" cx="380.3" cy="74.8" rx="8.3" ry="8.4"/>
	<ellipse class="st0" cx="429.9" cy="100" rx="8.3" ry="8.4"/>
	<ellipse class="st0" cx="396.8" cy="100" rx="8.3" ry="8.4"/>
	<ellipse class="st0" cx="347.2" cy="74.8" rx="8.3" ry="8.4"/>
	<ellipse class="st0" cx="363.7" cy="100" rx="8.3" ry="8.4"/>
	<ellipse class="st0" cx="314.1" cy="74.8" rx="8.3" ry="8.4"/>
	<ellipse class="st0" cx="330.7" cy="100" rx="8.3" ry="8.4"/>
	<ellipse class="st0" cx="281.1" cy="74.8" rx="8.3" ry="8.4"/>
	<ellipse class="st0" cx="297.6" cy="100" rx="8.3" ry="8.4"/>
	<path class="st0" d="M496,136.9v-99c0-21.3-17.1-38.7-38.1-38.7H38.1C17.1-0.8,0,16.6,0,37.9v99c0,12.3,5.8,23.2,14.7,30.3
		C5.8,174.3,0,185.2,0,197.5v99c0,12.3,5.8,23.2,14.7,30.3C5.8,333.9,0,344.8,0,357.1v99c0,21.4,17.1,38.7,38.1,38.7h234.7V478H38.1
		c-11.9,0-21.6-9.8-21.6-21.9v-99c0-12.1,9.7-21.9,21.6-21.9h193.4v-16.8H38.1c-11.9,0-21.6-9.8-21.6-21.9v-99
		c0-12.1,9.7-21.9,21.6-21.9h419.8c11.9,0,21.6,9.8,21.6,21.9v95.7H496v-95.7c0-12.3-5.8-23.2-14.7-30.3
		C490.2,160.1,496,149.2,496,136.9L496,136.9z M38.1,158.8c-11.9,0-21.6-9.8-21.6-21.9v-99c0-12.1,9.7-21.9,21.6-21.9h419.8
		c11.9,0,21.6,9.8,21.6,21.9v99c0,12.1-9.7,21.9-21.6,21.9H38.1z"/>
	<g>
		<path id="B" class="st0" d="M49.6,247c0,20.8,16.7,37.8,37.2,37.8s37.2-17,37.2-37.8s-16.7-37.8-37.2-37.8S49.6,226.2,49.6,247
			L49.6,247z M107.5,247c0,11.6-9.3,21-20.7,21s-20.7-9.4-20.7-21s9.3-21,20.7-21S107.5,235.4,107.5,247z"/>
	</g>
	<ellipse class="st0" cx="413.3" cy="234.4" rx="8.3" ry="8.4"/>
	<ellipse class="st0" cx="380.3" cy="234.4" rx="8.3" ry="8.4"/>
	<ellipse class="st0" cx="429.9" cy="259.6" rx="8.3" ry="8.4"/>
	<ellipse class="st0" cx="396.8" cy="259.6" rx="8.3" ry="8.4"/>
	<ellipse class="st0" cx="347.2" cy="234.4" rx="8.3" ry="8.4"/>
	<ellipse class="st0" cx="363.7" cy="259.6" rx="8.3" ry="8.4"/>
	<ellipse class="st0" cx="314.1" cy="234.4" rx="8.3" ry="8.4"/>
	<ellipse class="st0" cx="330.7" cy="259.6" rx="8.3" ry="8.4"/>
	<ellipse class="st0" cx="281.1" cy="234.4" rx="8.3" ry="8.4"/>
	<ellipse class="st0" cx="297.6" cy="259.6" rx="8.3" ry="8.4"/>
	<g>
		<path id="B_1_" class="st0" d="M49.6,406.6c0,20.8,16.7,37.8,37.2,37.8s37.2-17,37.2-37.8c0-20.8-16.7-37.8-37.2-37.8
			S49.6,385.8,49.6,406.6L49.6,406.6z M107.5,406.6c0,11.6-9.3,21-20.7,21s-20.7-9.4-20.7-21s9.3-21,20.7-21S107.5,395,107.5,406.6z
			"/>
	</g>
</g>
</svg>
