<svg xmlns="http://www.w3.org/2000/svg" viewBox="0 0 380 480"><path d="M174.3 57.8l-8.3 5.1C129 85.6 84.8 93.5 42.3 84.8v193.1c0 23.7 6.3 47 18.2 67.4a129.22 129.22 0 0 0 59.4 53.1l54.3 23.8.1-364.4z" fill="#ff5a5a"/><path d="M95 255.8l63.4 63.4L293 184.6l-31.7-31.7-103 103-31.7-31.7L95 255.8z" fill="#59ce41"/><path d="M102.7 446.9l68.4 30a7.69 7.69 0 0 0 6.3 0l68.4-30c3.8-1.7 7.6-3.5 11.3-5.5 3.9-2.1 5.3-6.8 3.3-10.7-2.1-3.9-6.8-5.3-10.7-3.3-3.3 1.8-6.8 3.4-10.3 5L174.3 461 109 432.4a154.03 154.03 0 0 1-71.3-63.6c-14.4-24.6-21.9-52.6-21.9-81v-234c52.7 8.4 106.7-2.4 152.1-30.4l6.3-3.9 6.3 3.9c45.4 28 99.4 38.8 152.1 30.4v234a7.9 7.9 0 1 0 15.8 0V44.3a7.92 7.92 0 0 0-7.9-7.9c-.5 0-1.1.1-1.6.2-51.5 10.6-105.2 1-150.1-26.6l-10.4-6.4c-2.5-1.6-5.7-1.6-8.3 0L159.7 10C114.8 37.6 61.1 47.1 9.5 36.6 5.2 35.7 1 38.5.2 42.8c-.1.5-.2 1-.2 1.5v243.5c0 31.3 8.3 62 24.1 89 18.1 31.1 45.6 55.7 78.6 70.1zm69.7-376.1c3.9-2 5.3-6.8 3.3-10.7s-6.8-5.3-10.7-3.3c-.2.1-.4.2-.6.4-36.5 21.4-79.6 28.7-121.1 20.5-4.3-.9-8.5 1.9-9.3 6.2-.1.5-.2 1.1-.2 1.6v189.2c0 24.8 6.9 49.1 19.9 70.2 15.2 24.7 37.8 44 64.6 55.1 4 1.7 8.7-.2 10.4-4.2s-.2-8.7-4.2-10.4c-23.7-9.8-43.8-26.9-57.2-48.8-11.5-18.6-17.5-40.1-17.6-61.9V94.9c42.4 6.1 85.7-2.3 122.7-24.1z"/><path d="M316.8 469.7c8.7 0 15.8-7.1 15.8-15.8 0-1.4-.2-2.7-.6-4l37.9-37.9c2.9-3.3 2.5-8.3-.8-11.2-3-2.6-7.4-2.6-10.4 0l-37.9 37.9a13.97 13.97 0 0 0-8.1 0L243.3 369c-3.1-3-8.2-3-11.2.2-3 3.1-3 7.9 0 11l69.5 69.6c-2.3 8.3 2.5 17 10.8 19.3 1.5.4 2.9.6 4.4.6z" fill="#78d2fa"/><path d="M158.4 327.1c2.1 0 4.1-.8 5.6-2.3l134.6-134.6a7.91 7.91 0 0 0 0-11.2L267 147.2a7.91 7.91 0 0 0-11.2 0l-97.4 97.4-26.1-26.1a7.91 7.91 0 0 0-11.2 0l-31.7 31.7a7.91 7.91 0 0 0 0 11.2l63.4 63.4c1.5 1.5 3.5 2.3 5.6 2.3zm-31.7-91.8l26.1 26.1a7.91 7.91 0 0 0 11.2 0l97.3-97.4 20.5 20.5L158.4 308l-52.1-52.2 20.4-20.5z"/></svg>