<svg xmlns="http://www.w3.org/2000/svg" viewBox="0 0 487 480.3"><path d="M268.8 75.4c-.1 21.7-14.7 40.6-35.6 46-21-5.4-35.6-24.3-35.6-46s14.7-40.6 35.6-46c20.9 5.5 35.5 24.4 35.6 46z" fill="#a5dc69"/><path d="M450.9 301.4s-96.5 62.9-217.7 66.9h-.2c-121.2-4-217.7-66.9-217.7-66.9 28.2-12.2 57.7-20.9 88-25.8 11.1-2.1 20.2-10 23.9-20.6 10.4-30 29.1-79.4 56-90.2 5.4 1.7 10.2 4 14.3 5.7 11.4 4.8 24 6.1 36.2 3.7 4.2-.8 8.4-2.1 12.4-3.7 8.1-4.5 17-7.2 26.2-7.9 3.8 0 7.5.8 10.9 2.3C310 175.7 328.7 225 339 255c3.7 10.6 12.8 18.5 23.9 20.6 30.3 4.9 59.9 13.6 88 25.8z" fill="#ff5a5a"/><path d="M371.7 379.8v28.3c0 29.2-11.6 58.4-61.6 62.7-2.5.2-5.3.4-8.1.5-.3.1-.6.1-.9.1H300l-.1.1s-.1 0-.1-.1c-1 .1-2.1.1-3.2.1-18.8-.6-37.2-6.1-53.2-16-3.2-1.9-6.6-3.3-10.1-4.3-11.4-3.3-23.7-1.8-33.9 4.3-13.2 8-27.9 13.2-43.2 15.4-10.4-.6-20.6-3.1-30.1-7.3-2.1-1-4.1-2.1-6.1-3.3-19.7-12-25.3-32-25.3-52.1v-28.3c0-.6.1-1.3.2-1.9l2.1.7 13.3 4.2c5.4 1.7 11.2 3.3 17.4 4.9a252.04 252.04 0 0 0 14.3 3.3c26 5.9 52.6 9 79.3 9.1 3.9 0 7.7-.1 11.5-.2 20.1-.7 40.1-3.1 59.8-7.1 5.3-1 10.4-2.1 15.3-3.3 5.8-1.3 11.2-2.9 16.4-4.2l14.9-4.6h.1c9.9-3.2 17.9-6.2 23.4-8.4 1.9-.6 4-.4 5.7.7s2.9 2.9 3.1 4.9a8.16 8.16 0 0 1 .2 1.8z" fill="#78d2fa"/><path d="M252.9 75.4a7.9 7.9 0 1 1-15.8 0 7.9 7.9 0 1 1 15.8 0zm0 229.7a7.9 7.9 0 1 1-15.8 0 7.9 7.9 0 1 1 15.8 0zm225.3-10.8c-28.8-12.5-59-21.4-90-26.5-8.3-1.6-15.1-7.5-17.9-15.4-15.7-45.5-38.4-97.7-74.2-97.7-8.8.3-17.5 2.6-25.3 6.8-1.4.6-2.7 1.2-4 1.8a54.95 54.95 0 0 1-42.5 0l-3.2-1.4c-8.4-4.3-17.7-6.7-27.1-7.1-35.8 0-58.5 52.2-74.2 97.7-2.8 8-9.6 13.9-17.9 15.4-31 5.1-61.2 14-90 26.5-2.5 1.3-4.2 3.8-4.4 6.6s1.2 5.5 3.6 7.1c4.3 2.8 106.4 68.4 234 68.4s229.7-65.6 234-68.4c2.4-1.6 3.7-4.3 3.6-7.1s-1.9-5.5-4.5-6.7zM245 360.5c-96.7 0-180.3-40.5-211.9-57.9 23.3-8.4 47.3-14.8 71.7-19.3 13.9-2.7 25.3-12.5 29.9-25.8 7.4-21.5 30.1-87.1 59.2-87.1 7.2.5 14.3 2.4 20.7 5.8l3.5 1.5c17.5 7.4 37.2 7.4 54.7 0 1.4-.6 2.9-1.3 4.4-2 5.8-3.2 12.2-5 18.7-5.4 29.1 0 51.8 65.5 59.2 87.1 4.7 13.3 16.1 23.2 29.9 25.8 24.4 4.4 48.4 10.9 71.7 19.3-31.3 17.6-114.8 58-211.7 58zm151.5 5.9c-3.8-2.7-8.7-3.2-13.1-1.5-44.1 17.4-91.1 26.6-138.5 27.3-47.4-.7-94.3-9.9-138.5-27.3-4.3-1.8-9.2-1.2-13.1 1.5-4.4 3-6.9 8.1-6.8 13.4v28.3c0 46.6 28.8 71.3 83.2 71.3 20.2-.6 40-6.5 57.2-17a34.93 34.93 0 0 1 36.1 0c17.3 10.6 37 16.5 57.2 17 54.4 0 83.2-24.6 83.2-71.3v-28.3c.1-5.4-2.5-10.4-6.9-13.4zm-294.1 41.7l.1-27.7c4.2 1.6 9.5 3.6 15.8 5.7v63.3a51.39 51.39 0 0 1-15.9-41.3zM245 441.5c-9.1 0-18.1 2.5-26 7.1-14.9 9.1-31.8 14.2-49.2 14.9-12.3.3-24.5-1.5-36.1-5.4.3-.8.5-1.7.5-2.5v-64.5c4.9 1.5 10.2 2.9 15.8 4.4v36.3a7.9 7.9 0 1 0 15.8 0v-32.6a383.73 383.73 0 0 0 79.2 8.9c23.9-.1 47.8-2.5 71.3-7.2v62.5c-16-1.4-31.5-6.4-45.3-14.7-7.9-4.7-16.9-7.2-26-7.2zm142.6-33.4c0 22.1-6.1 51-55.4 54.9v-65.6c5.6-1.3 10.8-2.7 15.8-4.1v38.4a7.9 7.9 0 1 0 15.8 0v-43.1a385.34 385.34 0 0 0 23.8-8.4v27.9z"/><path d="M245 4.1a7.85 7.85 0 0 0-7.9 7.9v8.6a55.37 55.37 0 0 0-46.9 46.9h-8.6a7.85 7.85 0 0 0-7.9 7.9 7.85 7.85 0 0 0 7.9 7.9h8.6a55.37 55.37 0 0 0 46.9 46.9v8.6a7.9 7.9 0 1 0 15.8 0v-8.6a55.37 55.37 0 0 0 46.9-46.9h8.6a7.85 7.85 0 0 0 7.9-7.9 7.85 7.85 0 0 0-7.9-7.9h-8.6a55.37 55.37 0 0 0-46.9-46.9V12a7.92 7.92 0 0 0-7.9-7.9zm38.8 63.4h-7.1a7.85 7.85 0 0 0-7.9 7.9 7.85 7.85 0 0 0 7.9 7.9h7.1a39.86 39.86 0 0 1-30.9 30.9v-7.1a7.9 7.9 0 1 0-15.8 0v7.1c-15.5-3.2-27.7-15.3-30.9-30.9h7.1a7.85 7.85 0 0 0 7.9-7.9 7.85 7.85 0 0 0-7.9-7.9h-7.1c3.2-15.5 15.3-27.7 30.9-30.9v7.1a7.9 7.9 0 1 0 15.8 0v-7.1c15.6 3.2 27.7 15.4 30.9 30.9zM245 218a7.85 7.85 0 0 0-7.9 7.9v47.5a7.9 7.9 0 1 0 15.8 0v-47.5a7.85 7.85 0 0 0-7.9-7.9z"/></svg>