<?xml version="1.0" encoding="utf-8"?>
<!-- Generator: Adobe Illustrator 22.1.0, SVG Export Plug-In . SVG Version: 6.00 Build 0)  -->
<svg version="1.1" id="Layer_1" xmlns="http://www.w3.org/2000/svg" xmlns:xlink="http://www.w3.org/1999/xlink" x="0px" y="0px"
	 viewBox="0 0 489.6 503.5" style="enable-background:new 0 0 489.6 503.5;" xml:space="preserve">
<style type="text/css">
	.st0{fill:#ED3237;}
</style>
<path class="st0" d="M85.7,52.1C65.4,52.1,49,69.7,49,91.2s16.5,39.1,36.7,39.1s36.7-17.5,36.7-39.1S105.9,52.1,85.7,52.1z
	 M85.7,113c-11.2,0-20.4-9.7-20.4-21.7s9.2-21.7,20.4-21.7s20.4,9.7,20.4,21.7S96.9,113,85.7,113z"/>
<ellipse class="st0" cx="408" cy="78.2" rx="8.2" ry="8.7"/>
<ellipse class="st0" cx="375.4" cy="78.2" rx="8.2" ry="8.7"/>
<ellipse class="st0" cx="424.3" cy="104.3" rx="8.2" ry="8.7"/>
<ellipse class="st0" cx="391.7" cy="104.3" rx="8.2" ry="8.7"/>
<ellipse class="st0" cx="342.7" cy="78.2" rx="8.2" ry="8.7"/>
<ellipse class="st0" cx="359" cy="104.3" rx="8.2" ry="8.7"/>
<ellipse class="st0" cx="310.1" cy="78.2" rx="8.2" ry="8.7"/>
<ellipse class="st0" cx="326.4" cy="104.3" rx="8.2" ry="8.7"/>
<ellipse class="st0" cx="277.4" cy="78.2" rx="8.2" ry="8.7"/>
<ellipse class="st0" cx="293.8" cy="104.3" rx="8.2" ry="8.7"/>
<path class="st0" d="M489.6,142.4V40c0-22.1-16.9-40-37.6-40H37.6C16.9,0,0,18,0,40v102.4c0,12.8,5.7,24,14.5,31.4
	C5.7,181.1,0,192.4,0,205.1v102.4c0,22.1,16.9,40.1,37.6,40.1h199V418c-16,3.5-28.6,16.9-31.8,33.9H8.2c-4.5,0-8.2,3.9-8.2,8.7
	s3.7,8.7,8.2,8.7h196.7c3.8,19.8,20.3,34.8,40,34.8s36.2-15,40-34.8h196.7c4.5,0,8.2-3.9,8.2-8.7s-3.7-8.7-8.2-8.7H284.8
	c-3.3-17-15.9-30.4-31.8-33.9v-70.4h199c20.7,0,37.6-18,37.6-40V205.1c0-12.8-5.7-24-14.5-31.4C483.9,166.5,489.6,155.2,489.6,142.4
	L489.6,142.4z M269.3,460.6c0,14.4-11,26.1-24.5,26.1s-24.5-11.7-24.5-26.1s11-26.1,24.5-26.1S269.3,446.2,269.3,460.6z
	 M473.3,205.1v102.4c0,12.5-9.5,22.7-21.3,22.7H37.6c-11.7,0-21.3-10.2-21.3-22.7V205.1c0-12.5,9.5-22.7,21.3-22.7H452
	C463.7,182.5,473.3,192.6,473.3,205.1z M37.6,165.1c-11.7,0-21.3-10.2-21.3-22.7V40c0-12.5,9.5-22.7,21.3-22.7H452
	c11.7,0,21.3,10.2,21.3,22.7v102.4c0,12.5-9.5,22.7-21.3,22.7L37.6,165.1L37.6,165.1z M85.7,295.4c20.2,0,36.7-17.5,36.7-39.1
	s-16.5-39.1-36.7-39.1S49,234.8,49,256.3C49,277.9,65.4,295.4,85.7,295.4L85.7,295.4z M85.7,234.6c11.2,0,20.4,9.7,20.4,21.7
	S96.9,278,85.7,278s-20.4-9.7-20.4-21.7C65.3,244.4,74.4,234.6,85.7,234.6L85.7,234.6z"/>
<ellipse class="st0" cx="408" cy="243.3" rx="8.2" ry="8.7"/>
<ellipse class="st0" cx="375.4" cy="243.3" rx="8.2" ry="8.7"/>
<ellipse class="st0" cx="424.3" cy="269.4" rx="8.2" ry="8.7"/>
<ellipse class="st0" cx="391.7" cy="269.4" rx="8.2" ry="8.7"/>
<ellipse class="st0" cx="342.7" cy="243.3" rx="8.2" ry="8.7"/>
<ellipse class="st0" cx="359" cy="269.4" rx="8.2" ry="8.7"/>
<ellipse class="st0" cx="310.1" cy="243.3" rx="8.2" ry="8.7"/>
<ellipse class="st0" cx="326.4" cy="269.4" rx="8.2" ry="8.7"/>
<ellipse class="st0" cx="277.4" cy="243.3" rx="8.2" ry="8.7"/>
<ellipse class="st0" cx="293.8" cy="269.4" rx="8.2" ry="8.7"/>
</svg>
