<svg xmlns="http://www.w3.org/2000/svg" viewBox="0 0 475.2 419.8"><path d="M365.7 397.9h-53a12.04 12.04 0 0 1-12-12v-68.3a12.04 12.04 0 0 1 12-12h53a12.04 12.04 0 0 1 12 12v68.3a12.04 12.04 0 0 1-12 12z" fill="#ff5a5a"/><path d="M433.1 186.2l-8.7 83s-45.8 38.9-60.5 41.5c-63.2 11.1-106.5-31-110.5-73.1-11.2-119 96.2-101.7 118.8-108.5 11.5-3.5 25.9 23.8 25.9 23.8l35 33.3z" fill="#78d2fa"/><path d="M435.6 0h-396C17.7 0 0 17.7 0 39.6v285.1c0 21.9 17.7 39.6 39.6 39.6H293v47.5c0 2.9 1.5 5.5 4 6.9s5.5 1.4 8-.1l35.5-21.3 35.5 21.3c2.4 1.5 5.5 1.5 8 .1s4-4 4-6.9v-47.5h47.5c21.9 0 39.6-17.7 39.6-39.6V39.6C475.2 17.7 457.5 0 435.6 0zm-63.4 397.9l-27.6-16.6c-.3-.1-.7-.3-1-.4-.5-.2-1-.4-1.6-.6-.5-.1-1-.1-1.5-.1-1.1-.1-2.1.1-3.1.6-.3.1-.7.2-1 .4l-27.6 16.6v-76.6c2.6 0 5.1-.3 7.6-1.1l21.6-7a8.19 8.19 0 0 1 4.9 0l21.7 7a23.4 23.4 0 0 0 7.4 1.2h.2v76.6zm6.9-96.7c-1.8 3.5-5.8 5.2-9.5 4l-21.7-7c-4.8-1.6-9.9-1.6-14.6 0l-21.6 7c-3.7 1.2-7.8-.5-9.5-4l-10.4-20.3c-2.3-4.5-5.9-8.1-10.3-10.3l-20.3-10.4c-3.5-1.8-5.2-5.8-4-9.5l7-21.7c1.6-4.8 1.6-9.9 0-14.6l-7-21.6c-1.2-3.7.5-7.8 4-9.5l20.3-10.4c4.5-2.3 8.1-5.9 10.3-10.3l10.4-20.3c1.8-3.5 5.8-5.2 9.5-4l21.7 7c4.8 1.6 9.9 1.6 14.6 0l21.6-7c3.7-1.2 7.8.5 9.5 4l10.4 20.3c2.3 4.5 5.9 8.1 10.3 10.3l20.3 10.4c3.5 1.8 5.2 5.8 4 9.5l-7 21.7c-1.6 4.8-1.6 9.9 0 14.6l7 21.6c1.2 3.7-.5 7.8-4 9.5l-20.3 10.4c-4.5 2.3-8.1 5.9-10.3 10.3l-10.4 20.3zm80.3 23.5c0 13.1-10.6 23.8-23.8 23.8h-47.5V315c2.1-1.9 3.8-4.1 5-6.6l10.3-20.3c.8-1.5 2-2.7 3.4-3.5l20.3-10.3c10.4-5.3 15.4-17.4 11.8-28.5l-7-21.6a8.19 8.19 0 0 1 0-4.9l7-21.7c3.6-11.1-1.4-23.2-11.8-28.5l-20.3-10.3c-1.5-.8-2.7-2-3.5-3.4L393 135.1c-5.3-10.4-17.4-15.4-28.5-11.8l-21.6 7a8.19 8.19 0 0 1-4.9 0l-21.7-7c-11.1-3.6-23.2 1.4-28.5 11.8l-10.3 20.3c-.8 1.5-2 2.7-3.4 3.5l-20.3 10.3c-10.4 5.3-15.5 17.4-11.8 28.5l7 21.6a8.19 8.19 0 0 1 0 4.9l-7 21.7c-3.6 11.1 1.4 23.2 11.8 28.5l20.3 10.3c1.5.8 2.7 2 3.5 3.4l10.3 20.3c1.3 2.5 3 4.7 5 6.7v33.4H39.6c-13.1 0-23.8-10.6-23.8-23.8V39.6c0-13.1 10.6-23.8 23.8-23.8h396c13.1 0 23.8 10.6 23.8 23.8v285.1z"/><circle cx="340.6" cy="221.8" r="57.5" fill="#ff5a5a"/><path d="M340.6 158.4c-35 0-63.4 28.4-63.4 63.4s28.4 63.3 63.4 63.4c35 0 63.4-28.4 63.4-63.4s-28.4-63.4-63.4-63.4zm0 110.9c-26.2 0-47.5-21.3-47.5-47.5s21.3-47.5 47.5-47.5 47.5 21.3 47.5 47.5-21.3 47.5-47.5 47.5zM63.4 126.7c-8.7 0-15.8-7.1-15.8-15.8a7.85 7.85 0 0 0-7.9-7.9 7.85 7.85 0 0 0-7.9 7.9c0 17.5 14.2 31.7 31.7 31.7S95 128.4 95 110.9 80.9 79.2 63.4 79.2c-6.4 0-12.2-3.9-14.6-9.8-2.5-5.9-1.1-12.7 3.4-17.3 6.3-6 16.1-6 22.4 0 3 3 4.6 7 4.6 11.2a7.85 7.85 0 0 0 7.9 7.9 7.85 7.85 0 0 0 7.9-7.9c0-17.5-14.2-31.7-31.7-31.7S31.7 45.9 31.7 63.4 45.9 95 63.4 95c8.7 0 15.8 7.1 15.8 15.8s-7.1 15.9-15.8 15.9zm79.2 0c-8.7 0-15.8-7.1-15.8-15.8a7.9 7.9 0 1 0-15.8 0c0 17.5 14.2 31.7 31.7 31.7s31.7-14.2 31.7-31.7-14.2-31.7-31.7-31.7c-6.4 0-12.2-3.9-14.6-9.8-2.5-5.9-1.1-12.7 3.4-17.3 6.3-6 16.1-6 22.4 0 3 3 4.6 7 4.6 11.2a7.9 7.9 0 1 0 15.8 0c0-17.5-14.2-31.7-31.7-31.7s-31.7 14.2-31.7 31.7S125.1 95 142.6 95c8.7 0 15.8 7.1 15.8 15.8s-7.1 15.9-15.8 15.9zm102.9 0h-39.6V39.6a7.9 7.9 0 1 0-15.8 0v87.1c0 8.7 7.1 15.8 15.8 15.8h39.6a7.9 7.9 0 1 0 0-15.8zM39.6 174.2h23.8a7.9 7.9 0 1 0 0-15.8H39.6a7.9 7.9 0 1 0 0 15.8zm174.2-15.8H95a7.9 7.9 0 1 0 0 15.8h118.8a7.85 7.85 0 0 0 7.9-7.9c.1-4.4-3.5-7.9-7.9-7.9zm0 39.6H190a7.9 7.9 0 1 0 0 15.8h23.8a7.85 7.85 0 0 0 7.9-7.9c.1-4.4-3.5-7.9-7.9-7.9zM39.6 213.8h118.8a7.9 7.9 0 1 0 0-15.8H39.6a7.9 7.9 0 1 0 0 15.8zm174.2 23.8H39.6a7.9 7.9 0 1 0 0 15.8h174.2a7.85 7.85 0 0 0 7.9-7.9c.1-4.4-3.5-7.9-7.9-7.9z"/><path d="M197.8 321.8H59.5a12.04 12.04 0 0 1-12-12v-9.4a12.04 12.04 0 0 1 12-12h138.2a12.04 12.04 0 0 1 12 12v9.4c.1 6.6-5.3 12-11.9 12z" fill="#a5dc69"/><path d="M194 277.2H59.4c-15.3 0-27.7 12.4-27.7 27.7s12.4 27.7 27.7 27.7H194c15.3 0 27.7-12.4 27.7-27.7.1-15.3-12.4-27.7-27.7-27.7zm0 39.6H59.4c-6.6 0-11.9-5.3-11.9-11.9S52.8 293 59.4 293H194c6.6 0 11.9 5.3 11.9 11.9s-5.3 11.9-11.9 11.9z"/></svg>