<?xml version="1.0" encoding="utf-8"?>
<!-- Generator: Adobe Illustrator 22.1.0, SVG Export Plug-In . SVG Version: 6.00 Build 0)  -->
<svg version="1.1" id="Layer_1" xmlns="http://www.w3.org/2000/svg" xmlns:xlink="http://www.w3.org/1999/xlink" x="0px" y="0px"
	 viewBox="0 0 512 512" style="enable-background:new 0 0 512 512;" xml:space="preserve">
<style type="text/css">
	.st0{fill:#ED3237;}
</style>
<path class="st0" d="M469.3,29.9H42.7C19.1,29.9,0,49,0,72.5v307.2c0,23.6,19.1,42.6,42.7,42.7h273.1v51.2c0,3.1,1.7,5.9,4.3,7.4
	c2.7,1.5,6,1.5,8.6-0.1l38.3-23l38.3,23c2.6,1.6,5.9,1.6,8.6,0.1s4.3-4.4,4.3-7.4v-51.2h51.2c23.6,0,42.6-19.1,42.7-42.7V72.5
	C512,49,492.9,29.9,469.3,29.9z M401.1,458.5l-29.7-17.8c-0.4-0.2-0.7-0.3-1.1-0.4c-0.5-0.3-1.1-0.5-1.7-0.6
	c-0.5-0.1-1.1-0.1-1.6-0.1c-1.1-0.1-2.3,0.1-3.3,0.7c-0.4,0.1-0.7,0.2-1.1,0.4l-29.7,17.8V376c2.8,0,5.5-0.4,8.2-1.2l23.3-7.5
	c1.7-0.6,3.5-0.6,5.3,0l23.3,7.6c2.6,0.8,5.3,1.3,8,1.3h0.2L401.1,458.5L401.1,458.5z M408.4,354.4c-1.9,3.8-6.2,5.6-10.2,4.3
	l-23.3-7.6c-5.1-1.7-10.6-1.7-15.8,0l-23.3,7.5c-4,1.3-8.4-0.5-10.2-4.3l-11.2-21.8c-2.4-4.8-6.3-8.7-11.1-11.1l-21.8-11.2
	c-3.8-1.9-5.6-6.2-4.3-10.2l7.6-23.3c1.7-5.1,1.7-10.6,0-15.8l-7.5-23.3c-1.3-4,0.5-8.4,4.3-10.2l21.8-11.2
	c4.8-2.4,8.7-6.3,11.1-11.1l11.2-21.8c1.9-3.8,6.2-5.6,10.2-4.3l23.3,7.6c5.1,1.7,10.6,1.7,15.8,0l23.3-7.5c4-1.3,8.4,0.5,10.2,4.3
	l11.2,21.8c2.4,4.8,6.3,8.7,11.1,11.1l21.8,11.2c3.8,1.9,5.6,6.2,4.3,10.2l-7.6,23.3c-1.7,5.1-1.7,10.6,0,15.8l7.5,23.3
	c1.3,4-0.5,8.4-4.3,10.2l-21.8,11.2c-4.8,2.4-8.7,6.3-11.1,11.1L408.4,354.4z M494.9,379.7c0,14.1-11.5,25.6-25.6,25.6h-51.2v-36.1
	c2.2-2,4.1-4.4,5.4-7.1l11.1-21.8c0.8-1.6,2.1-2.9,3.7-3.7l21.8-11.1c11.2-5.7,16.6-18.7,12.7-30.7l-7.5-23.3
	c-0.6-1.7-0.6-3.5,0-5.3l7.6-23.3c3.9-12-1.5-25-12.7-30.7L438.4,201c-1.6-0.8-2.9-2.1-3.7-3.7l-11.1-21.8
	c-5.7-11.2-18.7-16.6-30.7-12.7l-23.3,7.5c-1.7,0.6-3.5,0.6-5.3,0l-23.3-7.6c-12-3.9-25,1.5-30.7,12.7l-11.1,21.8
	c-0.8,1.6-2.1,2.9-3.7,3.7L273.7,212c-11.2,5.7-16.6,18.7-12.7,30.7l7.5,23.3c0.6,1.7,0.6,3.5,0,5.3l-7.6,23.3
	c-3.9,12,1.5,25,12.7,30.7l21.8,11.1c1.6,0.8,2.9,2.1,3.7,3.7l11.1,21.8c1.4,2.7,3.2,5.1,5.4,7.2v36H42.7
	c-14.1,0-25.6-11.5-25.6-25.6v-307c0-14.1,11.5-25.6,25.6-25.6h426.7c14.1,0,25.6,11.5,25.6,25.6L494.9,379.7L494.9,379.7z
	 M366.9,200.5c-37.7,0-68.3,30.6-68.3,68.3s30.6,68.2,68.3,68.3c37.7,0,68.3-30.6,68.3-68.3S404.6,200.5,366.9,200.5z M366.9,320
	c-28.3,0-51.2-22.9-51.2-51.2s22.9-51.2,51.2-51.2s51.2,22.9,51.2,51.2S395.2,320,366.9,320z M68.3,166.4c-9.4,0-17.1-7.6-17.1-17.1
	c0-4.7-3.8-8.5-8.5-8.5s-8.5,3.8-8.5,8.5c0,18.9,15.3,34.1,34.1,34.1s34.1-15.3,34.1-34.1s-15.3-34.1-34.1-34.1
	c-6.9,0-13.1-4.2-15.8-10.5c-2.6-6.4-1.2-13.7,3.7-18.6c6.8-6.4,17.4-6.4,24.1,0c3.2,3.2,5,7.5,5,12.1c0,4.7,3.8,8.5,8.5,8.5
	s8.5-3.8,8.5-8.5c0-18.9-15.3-34.1-34.1-34.1s-34.1,15.2-34.1,34s15.3,34.1,34.1,34.1c9.4,0,17.1,7.6,17.1,17.1
	S77.7,166.4,68.3,166.4z M153.6,166.4c-9.4,0-17.1-7.6-17.1-17.1c0-4.7-3.8-8.5-8.5-8.5s-8.5,3.8-8.5,8.5
	c0,18.9,15.3,34.1,34.1,34.1s34.1-15.3,34.1-34.1s-15.3-34.1-34.1-34.1c-6.9,0-13.1-4.2-15.8-10.5c-2.6-6.4-1.2-13.7,3.7-18.6
	c6.8-6.4,17.4-6.4,24.1,0c3.2,3.2,5,7.5,5,12.1c0,4.7,3.8,8.5,8.5,8.5s8.5-3.8,8.5-8.5c0-18.9-15.3-34.1-34.1-34.1
	s-34.1,15.3-34.1,34.1s15.3,34.1,34.1,34.1c9.4,0,17.1,7.6,17.1,17.1c0,9.3-7.5,17-16.8,17C153.7,166.4,153.7,166.4,153.6,166.4z
	 M264.5,166.4h-42.7V72.5c0-4.7-3.8-8.5-8.5-8.5s-8.5,3.8-8.5,8.5v93.9c0,9.4,7.6,17.1,17.1,17.1h42.7c4.7,0,8.5-3.8,8.5-8.5
	S269.2,166.4,264.5,166.4z M42.7,217.6h25.6c4.7,0,8.5-3.8,8.5-8.5s-3.8-8.5-8.5-8.5H42.7c-4.7,0-8.5,3.8-8.5,8.5
	S38,217.6,42.7,217.6z M230.4,200.5h-128c-4.7,0-8.5,3.8-8.5,8.5s3.8,8.5,8.5,8.5h128c4.7,0,8.5-3.8,8.5-8.5
	S235.1,200.5,230.4,200.5z M230.4,243.2h-25.6c-4.7,0-8.5,3.8-8.5,8.5s3.8,8.5,8.5,8.5h25.6c4.7,0,8.5-3.8,8.5-8.5
	S235.1,243.2,230.4,243.2L230.4,243.2z M42.7,260.3h128c4.7,0,8.5-3.8,8.5-8.5s-3.8-8.5-8.5-8.5h-128c-4.7,0-8.5,3.8-8.5,8.5
	C34.2,256.5,38,260.3,42.7,260.3z M230.4,285.9H42.7c-4.7,0-8.5,3.8-8.5,8.5s3.8,8.5,8.5,8.5h187.7c4.7,0,8.5-3.8,8.5-8.5
	S235.1,285.9,230.4,285.9z M209.1,328.5H64c-16.5,0-29.9,13.4-29.9,29.9s13.4,29.9,29.9,29.9h145.1c16.5,0,29.9-13.4,29.9-29.9
	C238.9,341.9,225.6,328.5,209.1,328.5L209.1,328.5z M209.1,371.2H64c-7.1,0-12.8-5.7-12.8-12.8c0-7.1,5.7-12.8,12.8-12.8h145.1
	c7,0,12.8,5.7,12.8,12.7c0,0,0,0.1,0,0.1C221.9,365.5,216.1,371.2,209.1,371.2L209.1,371.2z"/>
</svg>
