<svg xmlns="http://www.w3.org/2000/svg" xmlns:xlink="http://www.w3.org/1999/xlink" viewBox="0 0 512 512"><path d="M228.5 398H334v59H228.5z" fill="#e4eaf8"/><path d="M228.5 398h20v59h-20z" fill="#c2c7d0"/><path d="M472.7 24.3H89.8C72.3 24.3 58 38.5 58 56.1v313.8c0 17.5 14.2 31.8 31.8 31.8h382.9c17.5 0 31.8-14.2 31.8-31.8V56.1c0-17.5-14.2-31.8-31.8-31.8z" fill="#afb5bc"/><path d="M78.1 369.9V56.1c0-17.5 14.2-31.8 31.8-31.8h-20c-17.5 0-31.8 14.2-31.8 31.8v313.8c0 17.5 14.2 31.8 31.8 31.8h20c-17.6 0-31.8-14.3-31.8-31.8z" fill="#969a9f"/><path d="M93.4 110.7v252.8c0 1.6 1.3 2.8 2.8 2.8h370.2c1.6 0 2.8-1.3 2.8-2.8V110.7H93.4z" fill="#fff"/><path d="M113.4 363.5V110.7h-20v252.8c0 1.6 1.3 2.8 2.8 2.8h20c-1.6.1-2.8-1.2-2.8-2.8z" fill="#e4eaf8"/><path d="M466.4 59.6H153.5v53.1h315.7V62.4c0-1.5-1.3-2.8-2.8-2.8z" fill="#92e0c0"/><path d="M155.5 59.6H96.2c-1.6 0-2.8 1.3-2.8 2.8v50.3h62.1V59.6z" fill="#6dc296"/><path d="M116.2 59.6h-20c-1.6 0-2.8 1.3-2.8 2.8v50.3h20V62.4c0-1.5 1.2-2.8 2.8-2.8z" fill="#5fa77e"/><path d="M365.9 487.7H196.7c-6.9 0-12.4-5.6-12.4-12.4v-11.1c0-6.9 5.6-12.4 12.4-12.4h169.1c6.9 0 12.4 5.6 12.4 12.4v11.1c.1 6.8-5.5 12.4-12.3 12.4z" fill="#afb5bc"/><path d="M365.9 467.7H196.7c-5.3 0-9.8-3.3-11.6-8a13.3 13.3 0 0 0-.8 4.5v11.1c0 6.9 5.6 12.4 12.4 12.4h169.1c6.9 0 12.4-5.6 12.4-12.4v-11.1a13.3 13.3 0 0 0-.8-4.5c-1.7 4.7-6.3 8-11.5 8z" fill="#969a9f"/><path d="M136.2 487.7H26.8c-10.6 0-19.3-8.7-19.3-19.3v-215c0-10.6 8.7-19.3 19.3-19.3h109.4c10.6 0 19.3 8.7 19.3 19.3v215c0 10.6-8.7 19.3-19.3 19.3z" fill="#e4eaf8"/><path d="M30.8 468.4v-215c0-10.6 8.7-19.3 19.3-19.3H26.8c-10.6 0-19.3 8.7-19.3 19.3v215c0 10.6 8.7 19.3 19.3 19.3h23.3c-10.6 0-19.3-8.7-19.3-19.3z" fill="#c2c7d0"/><path d="M7.5 316.9h148v116H7.5z" fill="#fea82f"/><path d="M7.5 316.9h23.3v116H7.5z" fill="#ff9052"/><path d="M37.8 285.9h117.7v33.3H37.8z" fill="#abffdb"/><path d="M7.5 285.9h33.7v33.3H7.5z" fill="#92e0c0"/><path d="M7.5 285.9h23.3v33.3H7.5z" fill="#5fa77e"/><path d="M415.8 198.7H146.5a12.04 12.04 0 0 1-12-12v-17.4a12.04 12.04 0 0 1 12-12h269.3a12.04 12.04 0 0 1 12 12v17.4a12.04 12.04 0 0 1-12 12z" fill="#ff9052"/><path d="M415.8 178.4H146.5c-6.1 0-11.2-4.6-11.9-10.5-.1.5-.1 1-.1 1.5v17.4a12.04 12.04 0 0 0 12 12h269.3a12.04 12.04 0 0 0 12-12v-17.4c0-.5 0-1-.1-1.5-.7 5.9-5.8 10.5-11.9 10.5z" fill="#ff8031"/><path d="M167.5 328.6h119a12.04 12.04 0 0 0 12-12V243a12.04 12.04 0 0 0-12-12h-119a12.04 12.04 0 0 0-12 12v73.6a12.04 12.04 0 0 0 12 12z" fill="#ffc850"/><path d="M176,316.6V243c0-6.6,5.4-12,12-12h-20.5c-6.6,0-12,5.4-12,12v73.6c0,6.6,5.4,12,12,12H188 C181.4,328.6,176,323.2,176,316.6z" fill="#fea82f"/><path d="M86.4 467.8h-9.9c-4.1 0-7.5-3.4-7.5-7.5s3.4-7.5 7.5-7.5h9.9c4.1 0 7.5 3.4 7.5 7.5s-3.3 7.5-7.5 7.5zm0-199.4h-9.9c-4.1 0-7.5-3.4-7.5-7.5s3.4-7.5 7.5-7.5h9.9c4.1 0 7.5 3.4 7.5 7.5s-3.3 7.5-7.5 7.5z" fill="#fff"/><g fill="#afb5bc"><use xlink:href="#B"/><use xlink:href="#B" y="38.9"/><use xlink:href="#B" y="77.8"/></g><path d="M96.2 52.1c-5.7 0-10.3 4.6-10.3 10.3v50.3c0 4.1 3.4 7.5 7.5 7.5h375.8c4.1 0 7.5-3.4 7.5-7.5V62.4c0-5.7-4.6-10.3-10.3-10.3H96.2zm4.7 53.1V67.1H148v38.1h-47.1zm360.8 0H163V67.1h298.7v38.1zm42.8 97.8c4.1 0 7.5-3.4 7.5-7.5V56.1c0-21.7-17.6-39.3-39.3-39.3H89.8c-21.7 0-39.3 17.6-39.3 39.3v170.5H26.8C12 226.6 0 238.6 0 253.4v215c0 14.8 12 26.8 26.8 26.8h109.4c14.8 0 26.8-12 26.8-26.8v-59.2h58v35.1h-24.3a19.89 19.89 0 0 0-19.9 19.9v11.1a19.89 19.89 0 0 0 19.9 19.9h169.1a19.89 19.89 0 0 0 19.9-19.9v-11.1a19.89 19.89 0 0 0-19.9-19.9h-24.3v-35.1h131.2c21.6 0 39.3-17.6 39.3-39.3V230.5c0-4.1-3.4-7.5-7.5-7.5s-7.5 3.4-7.5 7.5v139.4c0 13.4-10.9 24.3-24.3 24.3H163V253.4c0-14.8-12-26.8-26.8-26.8H65.6V56.1c0-13.4 10.9-24.3 24.3-24.3h382.9c13.4 0 24.3 10.9 24.3 24.3v139.4c-.1 4.1 3.3 7.5 7.4 7.5zM370.8 464.2v11.1a4.91 4.91 0 0 1-4.9 4.9H196.7a4.91 4.91 0 0 1-4.9-4.9v-11.1a4.91 4.91 0 0 1 4.9-4.9h169.1c2.8-.1 5 2.2 5 4.9zm-44.2-55v35.1H236v-35.1h90.6zM148 293.4v18.3H48.7v-18.3H148zM33.7 311.7H15v-18.3h18.7v18.3zM148 468.4c0 6.5-5.3 11.8-11.8 11.8H26.8c-6.5 0-11.8-5.3-11.8-11.8V326.7h133v141.7zm-15.2-226.8c8.4 0 15.2 6.8 15.2 15.2v21.6H15v-25c0-6.5 5.3-11.8 11.8-11.8h106z"/><defs ><path id="B" d="M417.6 248.4h-82.8c-4.1 0-7.5-3.4-7.5-7.5s3.4-7.5 7.5-7.5h82.8c4.1 0 7.5 3.4 7.5 7.5s-3.3 7.5-7.5 7.5z"/></defs></svg>