<svg xmlns="http://www.w3.org/2000/svg" viewBox="0 0 496 368"><path d="M440 320h-40c-8.8 0-16 7.2-16 16v-49.8c0-22.3-15.4-41.7-37.2-46.7l-50.2-11.6c2-1.1 4.1-2 6.2-2.7L360 208s8 16 24 16 24-16 24-16l57.2 17.1c13.5 4.1 22.8 16.6 22.8 30.7V320h-48zm-240.8-92.1l-50 11.5c-21.8 5-37.2 24.4-37.2 46.7V336c0-8.8-7.2-16-16-16H8v-64.2c0-14.1 9.3-26.6 22.8-30.7L88 208s8 16 24 16 24-16 24-16l57.2 17.1c2.2.7 4.3 1.6 6.2 2.7l-.2.1z" fill="#ff826e"/><path d="M168 360h-56v-73.8c0-22.3 15.4-41.7 37.2-46.7l50-11.5 16.8-4h64l16.8 4.1.1-.2 49.9 11.5c21.8 5 37.2 24.4 37.2 46.7V360H168z" fill="#e6e9ed"/><g fill="#59d4fd"><path d="M264 288l8 72h-48l8-72h32z"/><path d="M272.7 262.8l-.7 1.2-8 24h-32l-8-24-.7-1.2L248 248l24.7 14.8z"/></g><g fill="#ccd1d9"><path d="M296.6 227.8l.3.1-.1.2L288 272l-15.3-9.2L248 248l32-24 16.6 3.8z"/><path d="M199.4 227.8L216 224l32 24-24.7 14.8L208 272l-8.8-44.1.2-.1z"/></g><path d="M368 120a27.24 27.24 0 0 1-19.3 8H336v-8c0-26.5 21.5-48 48-48s48 21.5 48 48v8h-44.7a27.24 27.24 0 0 1-19.3-8zm-220.7 8c-7.2 0-14.2-2.9-19.3-8a27.24 27.24 0 0 1-19.3 8H64v-8c0-26.5 21.5-48 48-48s48 21.5 48 48v8h-12.7z" fill="#b27946"/><path d="M186.6 31.2c24.3-23 59.8-29.6 90.7-16.7 10.3 4.3 19.6 10.5 27.5 18.4L312 40c7 2.3 13.1 6.8 17.4 12.8 4.3 5.9 6.7 13.1 6.6 20.5V136c0-1-.1-2.1-.2-3.1-1.5-16.2-15.7-28.2-31.8-28.8-.5-.1-.9-.1-1.4-.1H288l-8-16c-15.7 10.4-34.1 16-52.9 16h-33.8c-.5 0-.9 0-1.4.1-16.2.6-30.3 12.6-31.8 28.8-.1 1-.2 2.1-.2 3.1V92.9c.1-23.4 9.7-45.7 26.7-61.7z" fill="#fcd770"/><g fill="#f0d0b4"><path d="M360 185.5a47.88 47.88 0 0 0 48 0V208s-8 16-24 16-24-16-24-16v-22.5zm-272 0l24 6.5c8.4 0 16.7-2.2 24-6.5V208s-8 16-24 16-24-16-24-16v-22.5z"/><path d="M136 185.5c-7.3 4.3-15.6 6.5-24 6.5l-24-6.5c-3.6-2.1-7-4.6-9.9-7.6C69 169 64 156.7 64 144v-16h44.7c7.2 0 14.2-2.9 19.3-8a27.24 27.24 0 0 0 19.3 8H160v16c0 17.1-9.1 33-24 41.5zm224 0c-14.9-8.5-24-24.4-24-41.5v-16h12.7c7.2 0 14.2-2.9 19.3-8a27.24 27.24 0 0 0 19.3 8H432v16c0 12.7-5 25-14.1 33.9-2.9 3-6.3 5.5-9.9 7.6-14.8 8.7-33.2 8.7-48 0z"/><path d="M216 224v-24l.7-1.5c23.6 9.1 27.4 9.5 31.3 9.5 11.1 0 22-3.3 31.3-9.5l.7 1.5v24l-32 24-32-24zm120-88c0 17.7-14.4 32-32 32l-2.2-.6c1.5-5 2.2-10.2 2.2-15.4v-47.9c16.2.6 30.3 12.6 31.8 28.8.1 1 .2 2.1.2 3.1zm-144 16c0 5.2.7 10.4 2.2 15.4l-2.2.6c-17.6 0-32-14.3-32-31.9v-.1c0-1 .1-2.1.2-3.1 1.5-16.2 15.7-28.2 31.8-28.8V152z"/><path d="M304 104.1V152c0 5.2-.7 10.4-2.2 15.4C295 191.5 273 208 248 208c-3.8 0-7.7-.4-31.3-9.5-3-2-5.8-4.3-8.3-6.9-6.7-6.7-11.6-15-14.2-24.2-1.5-5-2.2-10.2-2.2-15.4v-47.9c.5-.1.9-.1 1.4-.1h33.8c18.8 0 37.2-5.6 52.9-16l8 16h14.6c.4 0 .8 0 1.3.1z"/></g><path d="M306.6 23.7c-34.5-31-86.7-31.6-121.9-1.4l-12.5 13c-10.7 13.4-17.4 29.5-19.5 46.5-21.1-22.5-56.5-23.7-79-2.6C62.4 89.7 56 104.5 56 120v24c0 18.3 9 35.4 24 45.9V202l-51.5 15.5c-17 5-28.6 20.6-28.5 38.3V328h96c4.4 0 8 3.6 8 8v32h288v-32c0-4.4 3.6-8 8-8h96v-72.2c.1-17.7-11.5-33.3-28.5-38.3L416 202.1v-12.2c15-10.4 24-27.6 24-45.9v-24c0-30.9-25.1-56-56.1-55.9-15 0-29.4 6.1-39.9 16.8v-7.6a42.89 42.89 0 0 0-22-37.5l-15.4-12.1zm25.3 140.7c4.1 10.3 11 19.1 20.1 25.5v12.2l-51.5 15.4a34.05 34.05 0 0 0-5 1.9l-7.6-1.7v-15.8c8.6-6.9 15.3-16 19.4-26.2 9.3-.8 18-4.8 24.6-11.3zM248 216a63.73 63.73 0 0 0 24-4.7v8.7l-24 18-24-18v-8.7a63.73 63.73 0 0 0 24 4.7zm-33.8 16.6l19.5 14.6-20.1 12-5.1-25.4 5.7-1.2zm25 63.4h17.7l6.2 56H233l6.2-56zm19.1-16h-20.5l-4.6-13.8 14.8-8.9 14.8 8.9-4.5 13.8zm4-32.7l19.5-14.6 5.6 1.3-5.1 25.4-20-12.1zm59.5-95.2c-2.8 3-6.2 5.2-10.1 6.5.2-2.2.3-4.4.3-6.6v-38.3c8.6 3.3 15 10.8 15.9 19.9.7 6.8-1.5 13.5-6.1 18.5zM296 152c0 26.5-21.5 48-48 48s-48-21.5-48-48v-40h27.2c17.3 0 34.4-4.3 49.6-12.7L283 112h13v40zm-111.7 6.6c-10.6-3.4-17.4-13.9-16.2-25 .9-9.1 7.3-16.6 15.9-19.9V152c0 2.2.1 4.4.3 6.6zm4.3 17c4.1 10.3 10.8 19.3 19.4 26.3v15.8l-7.6 1.7c-1.6-.7-3.3-1.4-4.9-1.9L144 202.1v-12.2c9.1-6.3 16-15.2 20.1-25.5 6.6 6.5 15.3 10.5 24.5 11.2zM112 80c22.1 0 40 17.9 40 40h-4.7c-5.1 0-10-2-13.6-5.7l-5.7-5.6-5.7 5.7c-3.6 3.6-8.5 5.6-13.6 5.7H72C72 97.9 89.9 80 112 80zm-40 64v-8h36.7c6.9 0 13.6-2 19.3-5.7 5.7 3.8 12.5 5.7 19.3 5.7h4.7v8c0 22.1-17.9 40-40 40s-40-17.9-40-40zm40 56a54.43 54.43 0 0 0 16-2.4v8.1c-2 3.1-7.5 10.2-16 10.2s-14-7.1-16-10.2v-8.1a54.43 54.43 0 0 0 16 2.4zM96 312H64v-56H48v56H16v-56.2c-.1-10.6 6.9-20 17.1-23l51.5-15.4c4.7 6.1 13.7 14.6 27.4 14.6s22.7-8.6 27.4-14.6l30.3 9.1-22.3 5.1c-25.5 5.8-43.5 28.5-43.4 54.6v9.8h16v-9.8c-.1-18.7 12.8-34.9 31-39l42-9.6 9.4 47.2 16.7-10 4.7 14.2-7 63.1H176v-64h-16v64h-40v-16c0-13.4-10.7-24.1-24-24.1zm366.9-79.2c10.2 3 17.2 12.4 17.1 23V312h-32v-56h-16v56h-32c-13.3 0-24 10.7-24 24v16h-40v-64h-16v64h-40.8l-7-63.1 4.7-14.2 16.7 10 9.4-47.2 41.9 9.7c18.2 4.1 31.1 20.3 31 39v9.8h16v-9.8c.1-26.1-17.9-48.8-43.4-54.6l-22.3-5.1 30.3-9.1c4.6 6 13.7 14.6 27.4 14.6s22.7-8.6 27.4-14.6l51.6 15.4zm-62.9-27c-2 3.1-7.5 10.2-16 10.2s-14-7.2-16-10.2v-8.2a56.22 56.22 0 0 0 32 0v8.2zM384 184c-22.1 0-40-17.9-40-40v-8h4.7c6.9 0 13.6-2 19.3-5.7 5.7 3.8 12.5 5.7 19.3 5.7H424v8c0 22.1-17.9 40-40 40zm0-104c22.1 0 40 17.9 40 40h-36.7c-5.1 0-10-2-13.6-5.7l-5.7-5.6-5.7 5.7c-3.6 3.6-8.5 5.6-13.6 5.7H344c0-22.2 17.9-40.1 40-40.1zm-56 24.7c-7.3-5.6-16.2-8.6-25.4-8.7H293l-9.8-19.7-7.5 5C261.3 90.9 244.4 96 227.2 96h-33.8c-9.2 0-18.1 3.1-25.4 8.7V92.9c0-42.4 34.4-76.9 76.9-76.8 20.4 0 39.9 8.1 54.3 22.5l8.5 8.5 1.8.6c11.1 3.7 18.5 14 18.5 25.7v31.3z"/></svg>