<?xml version="1.0" encoding="utf-8"?>
<!-- Generator: Adobe Illustrator 22.1.0, SVG Export Plug-In . SVG Version: 6.00 Build 0)  -->
<svg version="1.1" id="Layer_1" xmlns="http://www.w3.org/2000/svg" xmlns:xlink="http://www.w3.org/1999/xlink" x="0px" y="0px"
	 viewBox="0 0 480 480" style="enable-background:new 0 0 480 480;" xml:space="preserve">
<style type="text/css">
	.st0{fill:#ED3237;}
</style>
<path class="st0" d="M440,0H40C17.9,0,0,17.9,0,40v312c0,22.1,17.9,40,40,40h142.4l-13.1,72H144v16h192v-16h-25.3l-13.1-72H440
	c22.1,0,40-17.9,40-40V40C480,17.9,462.1,0,440,0z M185.6,464l13.1-72h82.6l13.1,72H185.6z M464,352c0,13.3-10.7,24-24,24H40
	c-13.3,0-24-10.7-24-24v-16h448V352z M464,320H16V40c0-13.3,10.7-24,24-24h400c13.3,0,24,10.7,24,24V320z M216,40c-4.4,0-8,3.6-8,8
	v29.5c-1,0.3-1.9,0.7-2.9,1.1c-2.2,0.8-4.4,1.8-6.5,2.8l-20.9-20.9c-3.1-3.1-8.2-3.1-11.3,0l-33.9,33.9c-3.1,3.1-3.1,8.2,0,11.3
	l20.9,20.9c-1.4,3-2.7,6.2-3.9,9.3H120c-4.4,0-8,3.6-8,8v40h16v-32h27.4c3.6,0,6.7-2.4,7.7-5.8c1.7-6,4.1-11.7,7.1-17.2
	c1.7-3.1,1.2-7-1.3-9.6l-19.4-19.4l22.6-22.6l19.4,19.4c2.5,2.6,6.5,3.1,9.6,1.3c3.2-1.8,6.5-3.3,9.9-4.6c2.4-0.9,4.8-1.7,7.3-2.4
	c3.4-1,5.8-4.2,5.8-7.7V56h32V40H216z M352,152v32h-27.4c-3.6,0-6.7,2.4-7.7,5.8c-1.7,6-4.1,11.7-7.1,17.2c-1.7,3.1-1.2,7,1.3,9.6
	l19.4,19.4l-22.6,22.6l-19.4-19.3c-2.5-2.5-6.5-3.1-9.6-1.3c-5.4,3-11.2,5.4-17.2,7.1c-3.4,1-5.8,4.1-5.8,7.7V280h-32v16h40
	c4.4,0,8-3.6,8-8v-29.5c3.2-1.1,6.3-2.4,9.3-3.9l20.9,20.9c3.1,3.1,8.2,3.1,11.3,0l33.9-33.9c3.1-3.1,3.1-8.2,0-11.3l-20.9-20.9
	c1.4-3,2.7-6.2,3.9-9.3H360c4.4,0,8-3.6,8-8v-40L352,152z M363,73c-1.8-4-6.6-5.8-10.6-4c-0.9,0.4-1.7,0.9-2.4,1.6l-22,22.1
	L315.3,80l22.1-22.1c3.1-3.1,3.1-8.2,0-11.3c-0.7-0.7-1.5-1.2-2.4-1.6c-7.2-3.3-15.1-5-23-5c-30.9,0-56,25.1-56,56
	c0,3.3,0.3,6.6,0.9,9.8l-7.2,7.2c-3.2-0.6-6.5-1-9.7-1c-30.9,0-56,25.1-56,56c0,3.3,0.4,6.5,1,9.7l-7.2,7.2
	c-30.5-5.4-59.6,15-65,45.5c-0.6,3.2-0.8,6.4-0.9,9.6c0,7.9,1.7,15.8,5,23c1.8,4,6.5,5.8,10.6,4c0.9-0.4,1.7-0.9,2.4-1.6l22.1-22.1
	l12.7,12.7l-22.1,22.1c-3.1,3.1-3.1,8.2,0,11.3c0.7,0.7,1.5,1.2,2.4,1.6c7.2,3.3,15.1,5,23,5c30.9,0,56-25.1,56-56
	c0-3.3-0.3-6.6-0.9-9.8l7.2-7.2c3.2,0.6,6.5,1,9.7,1c30.9,0,56-25.1,56-56c0-3.3-0.4-6.5-1-9.7l7.2-7.2c30.5,5.4,59.6-15,64.9-45.4
	c0.6-3.2,0.8-6.4,0.9-9.7C368,88.1,366.3,80.2,363,73L363,73z M234.3,128.4l-33.9,33.9C202.9,144.8,216.8,130.9,234.3,128.4
	L234.3,128.4z M245.7,207.6l33.9-33.9C277.1,191.2,263.2,205.1,245.7,207.6L245.7,207.6z M312.2,136c-3.5,0-7.1-0.5-10.5-1.4
	c-2.8-0.7-5.7,0.1-7.7,2.1L208.7,222c-2,2-2.8,4.9-2.1,7.7c5.8,21.2-6.8,43.1-28,48.9c-3.4,0.9-7,1.4-10.6,1.4c-1.5,0-3-0.1-4.4-0.2
	l18.1-18.1c3.1-3.1,3.1-8.2,0-11.3l-24-24c-3.1-3.1-8.2-3.1-11.3,0l-18.1,18.1c-0.2-1.5-0.3-3-0.2-4.4c-0.1-22,17.8-39.9,39.8-40
	c3.6,0,7.1,0.5,10.5,1.4c2.8,0.7,5.7-0.1,7.7-2.1l85.3-85.3c2-2,2.8-4.9,2.1-7.7c-5.8-21.2,6.7-43.1,28-48.9c3.5-0.9,7-1.4,10.6-1.4
	c1.5,0,3,0.1,4.4,0.2l-18.1,18.1c-3.1,3.1-3.1,8.2,0,11.3l24,24c3.1,3.1,8.2,3.1,11.3,0l18.1-18.1c0.2,1.5,0.3,3,0.2,4.4
	C352,118,334.2,135.9,312.2,136L312.2,136z M109.7,58.3c-1.5-1.5-3.5-2.3-5.7-2.3H78.5c-4.4-12.5-18.1-19-30.6-14.6
	S28.9,59.5,33.3,72s18.1,19,30.6,14.6c6.8-2.4,12.2-7.8,14.6-14.6h22.2l13.7,13.7l11.3-11.3C125.7,74.4,109.7,58.3,109.7,58.3z
	 M56,72c-4.4,0-8-3.6-8-8s3.6-8,8-8s8,3.6,8,8S60.4,72,56,72z M78.5,136c-3.4-9.6-12.4-16-22.5-16c-13.3-0.1-24,10.6-24.1,23.9
	s10.6,24,23.9,24.1c10.2,0,19.3-6.4,22.7-16H96v-16H78.5z M56,152c-4.4,0-8-3.6-8-8s3.6-8,8-8s8,3.6,8,8S60.4,152,56,152z M80,200
	v36.7l-13.7,13.7c-3.2-1.6-6.7-2.4-10.3-2.4c-13.3,0-24,10.7-24,24s10.7,24,24,24s24-10.7,24-24c0-3.6-0.8-7.1-2.4-10.3l16.1-16.1
	c1.5-1.5,2.3-3.5,2.3-5.7v-40L80,200L80,200z M56,280c-4.4,0-8-3.6-8-8s3.6-8,8-8s8,3.6,8,8S60.4,280,56,280z M446.6,48
	c-3.4-9.6-12.5-16-22.6-16c-13.2,0-24,10.7-24,23.9c0,10.2,6.4,19.2,16,22.6V96h-32v16h40c4.4,0,8-3.6,8-8V78.5
	C444.5,74.1,451,60.5,446.6,48z M424,64c-4.4,0-8-3.6-8-8s3.6-8,8-8s8,3.6,8,8S428.4,64,424,64z M446.6,263.9
	c-3.4-9.6-12.5-15.9-22.6-15.9s-19.1,6.4-22.5,16h-22.2l-17.7-17.7l-11.3,11.3l20,20c1.5,1.5,3.5,2.3,5.7,2.3h25.5
	c4.4,12.5,18.1,19,30.6,14.5C444.5,290.1,451.1,276.4,446.6,263.9z M424,280c-4.4,0-8-3.6-8-8s3.6-8,8-8s8,3.6,8,8
	S428.4,280,424,280z M446.6,160c-3.4-9.6-12.5-16-22.6-16c-13.2,0-24,10.7-24,23.9c0,10.2,6.4,19.2,16,22.6v14.2l-17.7,17.7
	l11.3,11.3l20-20c1.5-1.5,2.3-3.5,2.3-5.7v-17.5C444.5,186.1,451,172.5,446.6,160L446.6,160z M424,176c-4.4,0-8-3.6-8-8s3.6-8,8-8
	s8,3.6,8,8S428.4,176,424,176z"/>
</svg>
