<svg xmlns="http://www.w3.org/2000/svg" viewBox="0 0 496 496"><path d="M344,424h-96v32h144v-32H344z" fill="#78d2fa"/><path d="M168 376h32v80h-32v-80zm-64-32h32v112h-32V344zm-64 48h32v64H40v-64z" fill="#b4dd7f"/><path d="M169.7 320.9c2.6-5.3 8.1-8.9 14.3-8.9 8.8 0 16 7.2 16 16s-7.2 16-16 16-16-7.2-16-16c0-2.6.6-5 1.7-7.1zm-35.4-17.8c-2.6 5.3-8.1 8.9-14.3 8.9-5.2 0-9.8-2.6-12.8-6.4-2-2.7-3.2-6-3.2-9.6 0-8.8 7.2-16 16-16s16 7.2 16 16c0 2.6-.6 5-1.7 7.1zm-65.5 31.3c2 2.7 3.2 6 3.2 9.6 0 8.8-7.2 16-16 16s-16-7.2-16-16 7.2-16 16-16c5.2 0 9.8 2.6 12.8 6.4z" fill="#ff826e"/><path d="M251.2 244.8l3.3 3.1-.1.1H8v-64h210.4c4.8 23.5 16.5 44.5 32.8 60.8z" fill="#b4dd7f"/><path d="M336 160l-84.8 84.8c-16.3-16.3-28-37.3-32.8-60.8-1.6-7.8-2.4-15.8-2.4-24 0-33.1 13.4-63.1 35.2-84.8L336 160z" fill="#c0eaf9"/><path d="M336,160h120c0,31.5-12.2,60.2-32.1,81.5C402.1,265.2,370.7,280,336,280V160z" fill="#78d2fa"/><path d="M488 160H336V8c83.9 0 152 68.1 152 152z" fill="#ff826e"/><path d="M336 160v120a119.06 119.06 0 0 1-81.5-32.1l-3.3-3.1L336 160z" fill="#fc6e51"/><path d="M336,40v120l-84.8-84.8C272.9,53.4,302.9,40,336,40z" fill="#b4dd7f"/><path d="M32 208h16v16H32v-16zm32 0h16v16H64v-16zm32 0h16v16H96v-16zm348-77.9l15.4-4.3c-8.5-30.7-28.1-57-55.1-74.1l-8.6 13.5c23.7 15.1 40.8 38.1 48.3 64.9zm-56.8-87.4c-5.5-2.4-11.3-4.5-17.1-6.1L365.9 52c5.1 1.4 10.1 3.2 14.9 5.3l6.4-14.6zM496 168v-8C496 71.8 424.2 0 336 0h-8v32.4C261.2 36.6 208 92.1 208 160c0 5.4.4 10.7 1.1 16H0v320h432V244.4c18.2-20.7 29.8-47.2 31.6-76.4H496zM344 16.2c73 4 131.8 62.7 135.8 135.8H344V16.2zm-16 255.4c-24.9-1.8-47.5-11.6-65.2-27.1l65.2-65.2v92.3zm0-130.9l-65.2-65.2C280.5 60 303.1 50.2 328 48.4v92.3zm-76.5-53.9l73.2 73.2-73.2 73.2C234.4 213.6 224 188 224 160s10.4-53.6 27.5-73.2zM212.2 192c4.6 17.8 12.8 34.1 24 48H16v-48h196.2zM16 480V256h235.6c22.6 19.8 52 32 84.4 32 30.3 0 58.1-10.6 80-28.2V480H16zm328-208.4V168h103.6c-3.9 55.4-48.2 99.7-103.6 103.6zM240 464h160v-48H240v48zm64-16v-16h32v16h-32zm80 0h-32v-16h32v16zm-128-16h32v16h-32v-16zm-16-48h160v16H240v-16zm0-32h160v16H240v-16zm0-32h160v16H240v-16zm-56-16c-6.5 0-12.3 2.6-16.6 6.7l-23.7-11.8c.1-1 .3-1.9.3-2.9 0-13.2-10.8-24-24-24s-24 10.8-24 24c0 2.5.5 4.8 1.2 7.1L69.3 324c-3.8-2.5-8.4-4-13.3-4-13.2 0-24 10.8-24 24s10.8 24 24 24 24-10.8 24-24c0-2.5-.5-4.8-1.2-7.1l27.9-20.9c3.8 2.5 8.4 4 13.3 4 6.5 0 12.3-2.6 16.6-6.8l23.7 11.8c-.1 1-.3 1.9-.3 2.9 0 13.2 10.8 24 24 24s24-10.8 24-24-10.8-23.9-24-23.9zM56 352c-4.4 0-8-3.6-8-8s3.6-8 8-8 8 3.6 8 8-3.6 8-8 8zm64-48c-4.4 0-8-3.6-8-8s3.6-8 8-8 8 3.6 8 8-3.6 8-8 8zm64 32c-4.4 0-8-3.6-8-8s3.6-8 8-8 8 3.6 8 8-3.6 8-8 8zM32 464h48v-80H32v80zm16-64h16v48H48v-48zm48 64h48V336H96v128zm16-112h16v96h-16v-96zm48 112h48v-96h-48v96zm16-80h16v64h-16v-64z"/></svg>