<svg xmlns="http://www.w3.org/2000/svg" viewBox="0 0 475.2 475.2"><style><![CDATA[.F{stroke-miterlimit:10}.G{stroke-linecap:round}]]></style><path d="M22 299h428v76H22z" fill="#a6d16a"/><g fill="none" stroke="#000" stroke-width="14" class="F"><path d="M441.2 376.4H34a16.2 16.2 0 0 1-16.2-16.2v-292A16.2 16.2 0 0 1 34 52h407.2a16.2 16.2 0 0 1 16.2 16.2v291.9c0 9-7.2 16.3-16.2 16.3z"/><path d="M17.8 303h439.6" class="G"/></g><path d="M249.1 337.8c0 6.3-5.1 11.5-11.5 11.5-6.3 0-11.5-5.1-11.5-11.5 0-6.3 5.1-11.5 11.5-11.5 6.3 0 11.5 5.1 11.5 11.5z" fill="#f15c5d"/><g fill="none" class="F"><g stroke="#000" stroke-width="14"><path d="M188.3 376.4h98.6v44.4h-98.6z"/><path d="M152.5 423.2h170.2" class="G"/></g><g stroke="#3a3856" stroke-width="7" stroke-linejoin="round"><path d="M280.9 97.3h40.5v167.1h-40.5z"/><path d="M321.5 117.4h-20.3m20.3 38.7h-20.3m20.3 38.7h-20.3m20.3 38.7h-20.3m20.3-103.3h-10.2m10.2 12.9h-10.2m10.2 25.9h-10.2m10.2 12.9h-10.2m10.2 25.9h-10.2m10.2 12.9h-10.2m-68-64.6h-12.1m12.1 38.7h-12.1m12.1 38.7h-12.1m12.1-103.3h-6m6 12.9h-6m6 25.9h-6m6 12.9h-6m6 25.9h-6m6 39.3h-6m6-26.4h-6" class="G"/><path d="M153.7 264.4l89.6-167.1v167.1z"/><path d="M194.5 240.1l24.5-45.7v45.7z"/></g></g><path d="M189 379h98v38h-98z" fill="#7bd1f6"/></svg>