<svg xmlns="http://www.w3.org/2000/svg" viewBox="0 0 476 477.5"><path d="M350 100.6c-9.4-9.4-25.6-9.4-37.5 0l-12.1 9.6c-4.6-2.1-9.3-4.1-14.1-5.8L284.5 89c-1.6-15.2-13-26.5-26.4-26.5h-38c-13.4 0-24.7 11.4-26.5 26.4l-2 15.4c-4.8 1.7-9.5 3.6-14.1 5.8l-12.1-9.6c-11.9-9.4-28.1-9.4-37.5 0l-26.7 27c-9.4 9.4-9.4 25.6 0 37.6l9.6 12.2c-2.1 4.6-4.1 9.2-5.8 13.9L89.6 193c-15.2 1.8-26.5 13.2-26.5 26.5v38c0 13.3 11.4 24.7 26.4 26.5l15.4 1.9c1.7 4.8 3.6 9.6 5.8 14.1l-9.6 12.2c-9.4 11.9-9.4 28.1 0 37.6l13.5 13.2 9.7-9.7-13.4-13.4c-4.5-4.6-4.1-12.8 1-19.3l12.3-15.6c1.7-2.1 1.9-5 .7-7.5-3.3-6.4-6.1-13.2-8.2-20.1-.8-2.6-3-4.4-5.8-4.7l-19.7-2.3c-3.9-.4-7.5-1.9-10.4-4.4-2.5-2.1-4-5.2-4.1-8.5v-38c0-6.4 6.1-11.9 14.4-12.9l19.7-2.3c2.7-.3 4.9-2.1 5.7-4.7 2.1-6.9 5-13.6 8.4-20.1 1.3-2.4 1-5.3-.7-7.5l-12.3-15.7c-5.1-6.5-5.6-14.7-1-19.3l26.9-26.8c4.6-4.5 12.8-4.1 19.3 1l15.6 12.3c2.1 1.7 5 1.9 7.5.7 6.4-3.3 13.1-6.1 20.1-8.2 2.6-.8 4.4-3 4.7-5.8l2.3-19.7c1-8.1 6.5-14.4 12.9-14.4h38c6.4 0 11.9 6.1 12.9 14.4l2.3 19.7c.3 2.7 2.1 4.9 4.7 5.8 6.9 2.1 13.6 5 20.1 8.2 1 .4 2.1.8 3.1.8 1.6 0 3-.4 4.2-1.4l15.7-12.3c6.5-5.1 14.7-5.6 19.3-1l13.4 13.5 9.6-9.6-13.5-13.6z"/><path d="M239 169.5c-38.1 0-69 30.9-69 69 0 18.3 7.3 35.8 20.2 48.8l9.7-9.7c-21.6-21.6-21.6-56.5 0-78.1s56.5-21.6 78.1 0l9.7-9.7c-12.8-13-30.4-20.3-48.7-20.3z" fill="#a5dc69"/><path d="M139.7 245.4c3.8 0 6.9-3 6.9-6.9-.1-40.5 26.2-76.4 65-88.3 3.6-1.1 5.7-5 4.6-8.6s-5-5.7-8.6-4.6c-21.3 6.7-40.1 20-53.6 37.8-13.8 18.4-21.2 40.7-21.2 63.6 0 3.9 3 7 6.9 7zm100.7-97.8c-3.8 0-6.9-3-6.9-6.9s3-6.9 6.9-6.9c3.8 0 6.9 3 6.9 6.9 0 3.8-3.1 6.9-6.9 6.9z" fill="#78d2fa"/><path d="M415 219.5v38c0 13.3-11.4 24.7-26.4 26.5l-15.4 1.9c-1.7 4.8-3.6 9.6-5.8 14.1l9.6 12.2c9.4 11.9 9.4 28.1 0 37.6l-26.9 26.9c-9.4 9.4-25.6 9.4-37.5 0l-12.1-9.6c-4.6 2.1-9.2 4.1-13.9 5.8l-1.9 15.4c-1.9 15-13.3 26.4-26.6 26.4h-38c-13.4 0-24.7-11.4-26.5-26.4l-1.9-15.4c-4.7-1.7-9.4-3.6-13.9-5.8l-12.1 9.6c-11.9 9.4-28.1 9.4-37.5 0L114.9 363l9.7-9.7 13.5 13.4c4.5 4.6 12.8 4.1 19.3-1l15.6-12.3c2.1-1.6 5-1.9 7.5-.7 6.4 3.3 13.1 6.1 20.1 8.2 2.6.8 4.4 3 4.7 5.8l2.3 19.7c1 8.1 6.5 14.4 12.9 14.4h37.9c6.4 0 11.9-6.1 12.9-14.4l2.3-19.7c.3-2.7 2.1-4.9 4.7-5.8 6.9-2.1 13.6-5 20.1-8.2 2.4-1.2 5.3-1 7.5.7l15.6 12.3c6.5 5.1 14.7 5.6 19.3 1l26.9-26.9c4.5-4.5 4.1-12.8-1-19.3L354.3 305c-1.7-2.1-1.9-5-.7-7.5 3.3-6.4 6.1-13.2 8.2-20.1.8-2.6 3-4.4 5.8-4.7l19.7-2.3c8.1-1 14.4-6.5 14.4-12.9v-37.9c0-6.4-6.1-11.9-14.4-12.9l-19.7-2.3c-2.7-.3-4.9-2.1-5.8-4.7-2.1-6.9-5-13.6-8.2-20.1-1.3-2.4-1-5.3.7-7.5l12.4-15.7c5.1-6.5 5.6-14.7 1-19.3l-13.4-13.5 9.6-9.6 13.3 13.5c9.4 9.4 9.4 25.6 0 37.6l-9.6 12.2c2.1 4.6 4.1 9.2 5.8 13.9l15.4 1.9c14.9 1.6 26.2 13.1 26.2 26.4z"/><path d="M308 238.5c0 38.1-30.9 69-69 69-18.3 0-35.8-7.3-48.8-20.2l9.7-9.7c21.6 21.6 56.5 21.6 78.1 0s21.6-56.5 0-78.1l9.7-9.7c13 12.9 20.3 30.4 20.3 48.7z" fill="#ff5a5a"/></svg>