<?xml version="1.0" encoding="utf-8"?>
<!-- Generator: Adobe Illustrator 22.1.0, SVG Export Plug-In . SVG Version: 6.00 Build 0)  -->
<svg version="1.1" id="Layer_1" xmlns="http://www.w3.org/2000/svg" xmlns:xlink="http://www.w3.org/1999/xlink" x="0px" y="0px"
	 viewBox="0 0 480.6 480.6" style="enable-background:new 0 0 480.6 480.6;" xml:space="preserve">
<style type="text/css">
	.st0{fill:#ED3237;}
	.st1{fill:none;stroke:#ED3237;stroke-width:15;}
</style>
<path class="st0" d="M327.2,208.2c3.1-3.2,3.1-8.2,0-11.3L243.3,113c-3.1-3.1-8.2-3.1-11.3,0l-84,83.9c-3.1,3.1-3.1,8.2,0,11.3
	l22.6,22.5c3.1,3.1,8.2,3.1,11.3,0l31.6-31.6v159.4c0,4.4,3.6,8,8,8h32c4.4,0,8-3.6,8-8V199.2l31.7,31.6c3.1,3.1,8.2,3.1,11.3,0
	L327.2,208.2z M298.9,213.8l-39.6-39.6c-1.5-1.5-3.5-2.3-5.6-2.3c-4.4,0-8,3.6-8,8v170.7h-16V179.9c0-2.1-0.8-4.1-2.3-5.6
	c-3.1-3.1-8.2-3.1-11.3,0l-39.6,39.6L165,202.5l72.6-72.6l72.6,72.6L298.9,213.8z M237.6,398.6c-88.4,0-160-71.6-160-160
	s71.6-160,160-160s160,71.6,160,160c0,4.4,3.6,8,8,8s8-3.6,8-8c0-97.2-78.8-176-176-176s-176,78.8-176,176s78.8,176,176,176
	c4.4,0,8-3.6,8-8S242,398.6,237.6,398.6L237.6,398.6z"/>
<circle class="st1" cx="240.3" cy="240.3" r="228.2"/>
</svg>
