<svg xmlns="http://www.w3.org/2000/svg" xmlns:xlink="http://www.w3.org/1999/xlink" viewBox="0 0 514.2 475.2"><path d="M76.7 465.1H42.3c-17.8 0-32.2-14.4-32.2-32.2V10.1h455.1v422.8c0 17.8-14.4 32.2-32.2 32.2H76.7z" fill="#fff"/><path d="M432.9 10.1H42.3c-17.8 0-32.2 14.4-32.2 32.2v40.3h455.1V42.3c-.1-17.8-14.5-32.2-32.3-32.2z" fill="#a5dc69"/><path d="M64.4 153h207.8v140.9H64.4zm442 273.4L420 340.1l39.1-39.2 46.3 46.3z" fill="#78d2fa"/><path d="M20.2,82.6h439.9" fill="#231f20"/><circle cx="343.4" cy="224.3" r="107.8" fill="#ff5a5a"/><path d="M206.2,56.4h209c5.6,0,10.1-4.5,10.1-10.1s-4.5-10.1-10.1-10.1h-209c-5.6,0-10.1,4.5-10.1,10.1 C196.1,51.9,200.7,56.4,206.2,56.4z"/><use xlink:href="#B"/><use xlink:href="#B" x="-37"/><path d="M134 56.4c2.7 0 5.2-1.1 7.1-3s2.9-4.5 2.9-7.1-1.1-5.2-2.9-7.1c-1.9-1.9-4.5-2.9-7.1-2.9s-5.2 1.1-7.1 2.9c-1.9 1.9-3 4.5-3 7.1s1.1 5.2 3 7.1 4.5 3 7.1 3zm379.5 362.9L434.2 340l24.8-24.8 39.2 39.2c3.9 3.9 10.3 3.9 14.2 0s3.9-10.3 0-14.2l-46.3-46.3c-3.9-3.9-10.3-3.9-14.2 0l-12.4 12.4-6-6c17.3-20.5 27.8-47 27.8-75.9 0-65-52.9-117.9-117.9-117.9-33.5 0-63.8 14-85.3 36.5H64.4a10.07 10.07 0 0 0-10.1 10.1V294a10.07 10.07 0 0 0 10.1 10.1h192.2c21.6 23.5 52.5 38.2 86.8 38.2 28.9 0 55.4-10.4 75.9-27.8l6 6-12.4 12.5c-1.9 1.9-2.9 4.4-2.9 7.1s1.1 5.2 2.9 7.1l42.2 42.2v43.5c0 12.2-9.9 22.1-22.1 22.1H42.3c-12.2 0-22.1-9.9-22.1-22.1l.1-340.3h434.8V138a10.1 10.1 0 1 0 20.2 0V42.3C475.3 19 456.3 0 433 0H42.3C19 0 0 19 0 42.3v390.6c0 23.3 19 42.3 42.3 42.3h390.6c23.3 0 42.3-19 42.3-42.3v-23.4l24.1 24.1c2 2 4.5 2.9 7.1 2.9s5.2-1 7.1-2.9a10.2 10.2 0 0 0 0-14.3zm-439-135.4V163.1h168.2c-10.9 17.9-17.2 38.8-17.2 61.2v3.1l-12.7-24.5c-2.6-4.9-8.6-6.9-13.6-4.3-4.9 2.6-6.9 8.6-4.3 13.6l23.6 45.7c1.8 3.5 5.3 5.4 8.9 5.4 1.4 0 2.9-.3 4.2-.9 2.6 7.6 5.9 14.8 9.9 21.6l-167-.1zm171.1-59.6V222l18.5 35.8c1.7 3.3 5.2 5.4 8.9 5.4h.2c3.8-.1 7.3-2.3 8.9-5.7l21.9-45.7c2.4-5 .3-11-4.7-13.4s-11-.3-13.4 4.7l-13.2 27.5-14.4-27.7c-1.8-3.5-5.4-5.5-9-5.4 11.7-40.9 49.4-70.9 94-70.9 53.9 0 97.8 43.9 97.8 97.8s-43.9 97.8-97.8 97.8-97.7-44-97.7-97.9zM42.3 20.1h390.6c12.2 0 22.1 9.9 22.1 22.1v30.2H20.1V42.3c0-12.2 10-22.2 22.2-22.2zm141.8 178.3c-5-2.4-11-.3-13.4 4.7l-13.2 27.5-14.4-27.7c-1.8-3.4-5.3-5.5-9.1-5.4s-7.3 2.3-8.9 5.7l-13.2 27.5L97.5 203c-2.6-4.9-8.6-6.9-13.6-4.3-4.9 2.6-6.9 8.6-4.3 13.6l23.6 45.7c1.8 3.4 5.3 5.5 9.1 5.4s7.3-2.3 8.9-5.7l13.2-27.5 14.4 27.7c1.7 3.3 5.2 5.4 8.9 5.4h.2c3.8-.1 7.3-2.3 8.9-5.7l21.9-45.7c2.5-5 .4-11-4.6-13.5zm230.7 0c-5-2.4-11-.3-13.4 4.7l-13.2 27.5-14.4-27.7c-1.8-3.4-5.3-5.5-9.1-5.4s-7.3 2.3-8.9 5.7l-13.2 27.5-14.4-27.7c-2.6-4.9-8.6-6.9-13.6-4.3-4.9 2.6-6.9 8.6-4.3 13.6l23.6 45.7c1.7 3.3 5.2 5.4 8.9 5.4h.2c3.8-.1 7.3-2.3 8.9-5.7l13.2-27.5 14.4 27.7c1.7 3.3 5.2 5.4 8.9 5.4h.2c3.8-.1 7.3-2.3 8.9-5.7l21.9-45.7c2.5-5 .4-11-4.6-13.5zM57.3 383.5c-1.9 1.9-2.9 4.5-2.9 7.1s1.1 5.2 2.9 7.1c1.9 1.9 4.5 3 7.1 3s5.2-1.1 7.1-3 3-4.5 3-7.1-1.1-5.2-3-7.1-4.5-2.9-7.1-2.9-5.2 1-7.1 2.9zm31.6 7.1A10.07 10.07 0 0 0 99 400.7h196.1a10.1 10.1 0 1 0 0-20.2H99c-5.6.1-10.1 4.6-10.1 10.1zm168.8-38.2a10.1 10.1 0 1 0 0-20.2h-59.4a10.1 10.1 0 1 0 0 20.2h59.4zm-104.6-20.2H64.4a10.1 10.1 0 1 0 0 20.2h88.7a10.1 10.1 0 1 0 0-20.2z"/><defs ><path id="B" d="M97 56.4c2.6 0 5.2-1.1 7.1-3s2.9-4.5 2.9-7.1-1.1-5.2-2.9-7.1c-1.9-1.9-4.5-2.9-7.1-2.9s-5.2 1.1-7.1 2.9c-1.9 1.9-3 4.5-3 7.1s1.1 5.2 3 7.1 4.5 3 7.1 3z"/></defs></svg>