<svg xmlns="http://www.w3.org/2000/svg" xmlns:xlink="http://www.w3.org/1999/xlink" viewBox="0 0 512 512"><g fill="#1565c0"><path d="M294.656 13.013c-2.53-2.056-5.863-2.842-9.045-2.133l-277.333 64A10.67 10.67 0 0 0 0 85.376v362.667a10.67 10.67 0 0 0 9.045 10.539l277.333 42.667a10.67 10.67 0 0 0 12.164-8.921 10.68 10.68 0 0 0 .124-1.617V21.376a10.66 10.66 0 0 0-4.01-8.363z"/><use xlink:href="#B"/></g><use xlink:href="#C" fill="#fafafa"/><g fill="#1565c0"><use xlink:href="#D"/><use xlink:href="#E"/><use xlink:href="#F"/><use xlink:href="#G"/><use xlink:href="#H"/></g><path d="M288 501.376c-.543-.001-1.085-.044-1.62-.128L9.046 458.58a10.67 10.67 0 0 1-9.045-10.539V85.376c.003-4.968 3.435-9.276 8.277-10.39l277.333-64a10.67 10.67 0 0 1 12.785 8.006 10.62 10.62 0 0 1 .271 2.383V490.71A10.67 10.67 0 0 1 288 501.376zM21.334 438.9l256 39.38V34.794l-256 59.115V438.9z"/><use xlink:href="#B"/><use xlink:href="#C"/><use xlink:href="#D"/><use xlink:href="#E"/><use xlink:href="#F"/><use xlink:href="#G"/><use xlink:href="#H"/><defs ><path id="B" d="M501.334 458.71H288a10.67 10.67 0 0 1-10.667-10.667A10.67 10.67 0 0 1 288 437.375h202.667V74.71H288a10.67 10.67 0 0 1-10.667-10.667A10.67 10.67 0 0 1 288 53.376h213.333A10.67 10.67 0 0 1 512 64.043v384a10.67 10.67 0 0 1-10.666 10.666z"/><path id="C" d="M181.334 352.043c-4.753-.005-8.928-3.155-10.24-7.723l-32.427-113.45-32.427 113.45c-2.342 5.66-8.83 8.352-14.492 6a11.09 11.09 0 0 1-6.01-6.01L43.072 194.986a10.67 10.67 0 0 1 6.932-13.398 10.67 10.67 0 0 1 13.398 6.932 11.36 11.36 0 0 1 .172.599L96 302.55l32.427-113.45c2.342-5.66 8.83-8.352 14.492-6a11.09 11.09 0 0 1 6.01 6.01l32.405 113.45 32.426-113.43a10.54 10.54 0 0 1 12.945-7.386l.24.068a10.67 10.67 0 0 1 7.317 13.184L191.595 344.32a10.67 10.67 0 0 1-10.261 7.723z"/><path id="D" d="M458.667 138.71H288a10.67 10.67 0 0 1-10.667-10.667A10.67 10.67 0 0 1 288 117.375h170.667a10.67 10.67 0 0 1 10.667 10.667 10.67 10.67 0 0 1-10.667 10.667z"/><path id="E" d="M458.667 202.71H288a10.67 10.67 0 0 1-10.667-10.667A10.67 10.67 0 0 1 288 181.375h170.667a10.67 10.67 0 0 1 10.667 10.667 10.67 10.67 0 0 1-10.667 10.667z"/><path id="F" d="M458.667 266.71H288a10.67 10.67 0 0 1-10.667-10.667A10.67 10.67 0 0 1 288 245.375h170.667a10.67 10.67 0 0 1 10.667 10.667 10.67 10.67 0 0 1-10.667 10.667z"/><path id="G" d="M458.667 330.71H288a10.67 10.67 0 0 1-10.667-10.667A10.67 10.67 0 0 1 288 309.375h170.667a10.67 10.67 0 0 1 10.667 10.667 10.67 10.67 0 0 1-10.667 10.667z"/><path id="H" d="M458.667 394.71H288a10.67 10.67 0 0 1-10.667-10.667A10.67 10.67 0 0 1 288 373.375h170.667a10.67 10.67 0 0 1 10.667 10.667 10.67 10.67 0 0 1-10.667 10.667z"/></defs></svg>