<svg xmlns="http://www.w3.org/2000/svg" viewBox="0 0 480 480" width="512" height="512"><path d="M344 128v198.228c9.815 8.693 10.725 23.696 2.032 33.5-.636.718-1.314 1.397-2.032 2.032v9.605c14.57 6.35 23.992 20.73 24 36.623v8h3.377c8.805-20.226 32.34-29.485 52.566-20.68a39.94 39.94 0 0 1 20.68 20.68H472V128H344zM128 344a23.85 23.85 0 0 1 8-17.772V128H8v288h27.377c8.805-20.226 32.34-29.485 52.566-20.68a39.94 39.94 0 0 1 20.68 20.68H112v-8c.008-15.893 9.43-30.272 24-36.623v-9.605A23.85 23.85 0 0 1 128 344z" fill="#fff"/><path d="M136 8v318.228a23.78 23.78 0 0 1 21.131-5.683c12.952 2.828 21.158 15.62 18.33 28.572-2.41 11.028-12.174 18.888-23.46 18.883 22.09 0 40 17.91 40 40 0-26.5 21.5-48 48-48s48 21.5 48 48c0-22.09 17.91-40 40-40-13.257.005-24.008-10.737-24.013-23.994-.005-11.287 7.855-21.052 18.882-23.46 7.55-1.652 15.43.467 21.13 5.683V8H136z" fill="#78d2fa"/><circle cx="240" cy="328" r="32" fill="#ff5a5a"/><g fill="#a5dc69"><circle cx="72" cy="368" r="24"/><circle cx="408" cy="368" r="24"/></g><path d="M240 360c26.5 0 48 21.5 48 48v64h-96v-64c0-26.5 21.5-48 48-48z" fill="#ff5a5a"/><g fill="#a5dc69"><path d="M72 392c22.09 0 40 17.91 40 40v40H32v-40c0-22.09 17.91-40 40-40z"/><path d="M152 368c22.09 0 40 17.91 40 40v64h-80v-64c0-22.09 17.91-40 40-40z"/><circle cx="152" cy="344" r="24"/><path d="M408 392c22.09 0 40 17.91 40 40v40h-80v-40c0-22.09 17.91-40 40-40z"/><path d="M328 368c22.09 0 40 17.91 40 40v64h-80v-64c0-22.09 17.91-40 40-40z"/><circle cx="328" cy="344" r="24"/><path d="M192,40h96v64h-96V40z"/></g><path d="M168 160h16v16h-16v-16zm0 32h16v16h-16v-16zm0 32h16v16h-16v-16zm0 32h16v16h-16v-16zm32-96h16v16h-16v-16zm0 32h16v16h-16v-16zm0 32h16v16h-16v-16zm0 32h16v16h-16v-16zm32-96h16v16h-16v-16zm0 32h16v16h-16v-16zm0 32h16v16h-16v-16zm0 32h16v16h-16v-16zm32-96h16v16h-16v-16zm-64-32h16v16h-16v-16zm32 0h16v16h-16v-16zm32 0h16v16h-16v-16zm0 64h16v16h-16v-16zm0 32h16v16h-16v-16zm0 32h16v16h-16v-16zm32-96h16v16h-16v-16zm0 32h16v16h-16v-16zm0 32h16v16h-16v-16zm0 32h16v16h-16v-16zm176-136H352V8c.003-4.416-3.575-7.997-8-8H136c-4.416-.003-7.997 3.575-8 8v112H8c-4.416-.003-7.997 3.575-8 8v288c-.003 4.416 3.575 7.997 8 8h16.732a48.01 48.01 0 0 0-.723 8v40c-.003 4.416 3.575 7.997 8 8H448c4.416.003 7.997-3.575 8-8v-40a47.9 47.9 0 0 0-.723-8H472c4.416.003 7.997-3.575 8-8V128c.003-4.416-3.575-7.997-8-8zM344 344c0 8.837-7.163 16-16 16s-16-7.163-16-16 7.163-16 16-16c8.832.01 16 7.168 16 16zm-192-16c8.837 0 16 7.163 16 16s-7.163 16-16 16-16-7.163-16-16c.01-8.832 7.168-16 16-16zm-48 136H40v-32c0-17.673 14.327-32 32-32s32 14.327 32 32v32zm-48-96c0-8.837 7.163-16 16-16s16 7.163 16 16-7.163 16-16 16c-8.832-.01-16-7.168-16-16zm49.212 29.425a48.62 48.62 0 0 0-10.064-7.45c12.202-12.784 11.73-33.04-1.053-45.243s-33.04-11.73-45.243 1.053c-11.803 12.365-11.803 31.824 0 44.2a48.31 48.31 0 0 0-18.358 18.024H16V136h112v187.056c-10.986 12.327-10.615 31.04.852 42.92-12 6.637-20.6 18.077-23.64 31.45zM184 464h-64v-56c0-17.673 14.327-32 32-32s32 14.327 32 32v56zm96 0h-80v-56c0-22.1 17.9-40 40-40s40 17.9 40 40v56zm-64-136c0-13.255 10.745-24 24-24s24 10.745 24 24-10.745 24-24 24a24.03 24.03 0 0 1-24-24zm72.722 52.495a56.35 56.35 0 0 0-22.953-22.16c16.897-14.232 19.057-39.467 4.826-56.364s-39.467-19.057-56.364-4.826-19.057 39.467-4.826 56.364c1.468 1.743 3.082 3.357 4.826 4.826-9.626 5.02-17.597 12.716-22.953 22.16a48.32 48.32 0 0 0-16.13-14.519c12.265-12.547 12.037-32.662-.5-44.927-8.08-7.897-19.744-10.9-30.637-7.913V16h192v297.136a31.63 31.63 0 0 0-8-1.136c-17.626-.047-31.953 14.204-32 31.83a31.91 31.91 0 0 0 8.852 22.145 48.32 48.32 0 0 0-16.13 14.519zM360 432v32h-64v-56c0-17.673 14.327-32 32-32s32 14.327 32 32v24zm80 32h-64v-32c0-17.673 14.327-32 32-32s32 14.327 32 32v32zm-48-96c0-8.837 7.163-16 16-16s16 7.163 16 16-7.163 16-16 16c-8.832-.01-16-7.168-16-16zm72 40h-14.494c-4.377-7.557-10.722-13.786-18.358-18.024 12.202-12.784 11.73-33.04-1.053-45.243s-33.04-11.73-45.243 1.053c-11.803 12.365-11.803 31.824 0 44.2a48.2 48.2 0 0 0-10.064 7.449c-3.04-13.372-11.64-24.812-23.64-31.45 11.467-11.88 11.84-30.593.853-42.92V136h112v272zm-88-224h16v128h-16V184zm48 0h16v128h-16V184zm-384 0h16v128H40V184zm48 0h16v128H88V184zm104-72h96c4.416.003 7.997-3.575 8-8V40c.003-4.416-3.575-7.997-8-8h-96c-4.416-.003-7.997 3.575-8 8v64c-.003 4.416 3.575 7.997 8 8zm8-64h80v48h-80V48z"/></svg>