<svg xmlns="http://www.w3.org/2000/svg" width="512" height="512"><path d="M399.5 240v75c24.853 0 45-20.147 45-45l-45-30z" fill="#0a5c11"/><path d="M414.5 270v-30h-90v90H377l22.5-15c8.284 0 15-20.147 15-45z" fill="#367926"/><path d="M424.5 150h-30l20 120h30V170c0-11.046-8.954-20-20-20z" fill="#8fdbfd"/><path d="M394.5 150h-20c-11.046 0-20 8.954-20 20v40l-30 60h90V170c0-11.046-8.954-20-20-20z" fill="#cdeffd"/><path d="M384.5 315h30v107h-30z" fill="#c8c8c8"/><path d="M474.5 315h-29.984l-20 15 20 15H474.5z" fill="#e34339"/><path d="M444.516 315h-120v30h120v-30z" fill="#f06449"/><path d="M354.5 210v60L270 330l54.5-120z" fill="#fdc0ab"/><path d="M157.484 210v60L324.5 330V210z" fill="#fddfd3"/><path d="M354.5 452v30h-30L240 392z" fill="#c8c8c8"/><path d="M157.484 452v30H324.5v-90z" fill="#fff"/><path d="M354.5 270v182h-30L270 361l54.5-91z" fill="#e18f75"/><path d="M157.48 270H324.5v182H157.48z" fill="#fda181"/><path d="M97.5 240l30 90h30v-60z" fill="#186dd7"/><path d="M67.5 270c0 24.853 20.147 45 45 45l15 15v-80l-60 20z" fill="#1a93ea"/><path d="M137.5 150h-30l20 120h30V170c0-11.046-8.954-20-20-20z" fill="#629d3c"/><path d="M112.5 30v101l45-46V75c0-24.853-20.147-45-45-45z" fill="#fdc0ab"/><path d="M112.5 30c-24.853 0-45 20.147-45 45v10l60 46V75c0-24.853-6.716-45-15-45z" fill="#fddfd3"/><path d="M131.21 85c-1.053-1.573-2.303-3.002-3.71-4.26l-15 69.26c24.853 0 45-20.147 45-45V85h-26.29z" fill="#e34339"/><path d="M127.5 105V80.74c-3.98-3.566-9.235-5.74-15-5.74-7.8 0-14.672 3.97-18.71 10H67.5v20c0 24.853 20.147 45 45 45 8.284 0 15-20.147 15-45z" fill="#f06449"/><path d="M127.5,170c0-11.046-8.954-20-20-20h-20c-11.046,0-20,8.954-20,20v100h60V170z" fill="#8dc051"/><circle cx="112.5" cy="467" r="15" fill="#555"/><path d="M97.5 315h30v107h-30z" fill="#c8c8c8"/><path d="M157.484 315H127.5l-20 15 20 15h29.984z" fill="#3a3a3a"/><g fill="#555"><path d="M127.5 315h-90v30h90v-30z"/><circle cx="22.5" cy="467" r="15"/></g><path d="M413.592,59.547L399.5,120c24.853,0,45-20.147,45-45L413.592,59.547z" fill="#e19556"/><path d="M414.5 75c0-5.43-.32-10.634-.908-15.453L372.497 39C361.57 47.212 354.5 60.28 354.5 75c0 24.853 20.147 45 45 45 8.284 0 15-20.147 15-45z" fill="#fcac43"/><path d="M399.5 30l14.9 39.832A89.81 89.81 0 0 0 444.5 75c0-24.853-20.147-45-45-45z" fill="#38140d"/><path d="M399.5 30c-10.132 0-19.48 3.35-27.003 9.002 10.532 14.02 25.066 24.856 41.9 30.83C413.544 47.415 407.2 30 399.5 30z" fill="#632b21"/><g fill="#555"><circle cx="399.5" cy="467" r="15"/><circle cx="489.5" cy="467" r="15"/></g><path d="M271 30h30v150h-30zm-60 0h30v150h-30z" fill="#3a3a3a"/><path d="M399.5 127.5c28.948 0 52.5-23.55 52.5-52.5s-23.552-52.5-52.5-52.5S347 46.05 347 75s23.552 52.5 52.5 52.5zm36.65-60.42c-20.154-2-38.58-11.212-52.297-26.147A37.26 37.26 0 0 1 399.5 37.5c17.96 0 33.005 12.694 36.65 29.58zM371.7 49.86c16.7 18.803 39.576 30.244 64.606 32.3-3.352 17.264-18.577 30.34-36.806 30.34-20.678 0-37.5-16.822-37.5-37.5 0-9.663 3.675-18.483 9.7-25.14zM489.5 444.5a22.16 22.16 0 0 0-7.5 1.3V437c0-12.407-10.094-22.5-22.5-22.5H422v-62h52.5a7.5 7.5 0 0 0 7.5-7.5V165a7.51 7.51 0 0 1 7.5-7.5 7.5 7.5 0 1 0 0-15c-12.406 0-22.5 10.093-22.5 22.5v142.5h-30.808C445.937 297.963 452 284.68 452 270V170c0-15.164-12.337-27.5-27.5-27.5h-50c-15.163 0-27.5 12.336-27.5 27.5v32.5h-68.5v-15H301a7.5 7.5 0 0 0 7.5-7.5V30a7.5 7.5 0 0 0-7.5-7.5h-30a7.5 7.5 0 0 0-7.5 7.5v172.5h-15V30a7.5 7.5 0 0 0-7.5-7.5h-30a7.5 7.5 0 0 0-7.5 7.5v150a7.5 7.5 0 0 0 7.5 7.5h22.5v15H165V170c0-11.727-7.38-21.757-17.74-25.704C158.13 134.67 165 120.626 165 105V75c0-28.95-23.552-52.5-52.5-52.5S60 46.05 60 75v30c0 15.626 6.87 29.67 17.74 39.296C67.38 148.243 60 158.273 60 170v100c0 14.68 6.063 27.963 15.808 37.5H45V165c0-12.407-10.094-22.5-22.5-22.5a7.5 7.5 0 1 0 0 15A7.51 7.51 0 0 1 30 165v180a7.5 7.5 0 0 0 7.5 7.5H90v62H52.5C40.094 414.5 30 424.593 30 437v8.8a22.38 22.38 0 0 0-7.5-1.29C10.094 444.5 0 454.593 0 467s10.094 22.5 22.5 22.5S45 479.407 45 467v-30a7.51 7.51 0 0 1 7.5-7.5H105v16.3c-8.73 3.096-15 11.432-15 21.2 0 12.407 10.094 22.5 22.5 22.5S135 479.407 135 467c0-9.777-6.27-18.114-15-21.2v-16.3h30v22.2c-.004.104-.016.205-.016.3s.01.206.016.3V482a7.5 7.5 0 0 0 7.5 7.5h197a7.5 7.5 0 0 0 7.5-7.5v-52.5h30v16.3c-8.73 3.096-15 11.432-15 21.2 0 12.407 10.094 22.5 22.5 22.5S422 479.407 422 467c0-9.777-6.27-18.114-15-21.2v-16.3h52.5a7.51 7.51 0 0 1 7.5 7.5v30c0 12.407 10.094 22.5 22.5 22.5S512 479.407 512 467s-10.094-22.5-22.5-22.5zm-211-407h15v135h-15v-135zm-60 135v-135h15v135h-15zm-196 302A7.51 7.51 0 0 1 15 467a7.51 7.51 0 0 1 7.5-7.5A7.51 7.51 0 0 1 30 467a7.51 7.51 0 0 1-7.5 7.5zm90 0a7.51 7.51 0 0 1-7.5-7.5 7.51 7.51 0 0 1 7.5-7.5 7.51 7.51 0 0 1 7.5 7.5 7.51 7.51 0 0 1-7.5 7.5zm287 0a7.51 7.51 0 0 1-7.5-7.5 7.51 7.51 0 0 1 7.5-7.5 7.51 7.51 0 0 1 7.5 7.5 7.51 7.51 0 0 1-7.5 7.5zm7.5-60h-15v-62h15v62zm-45-107v-30h74.245c-3.484 17.096-18.635 30-36.745 30H362zm0-137.5c0-6.893 5.607-12.5 12.5-12.5h50c6.893 0 12.5 5.607 12.5 12.5v92.5h-75v-15h7.5c28.948 0 52.5-23.55 52.5-52.5v-15a7.5 7.5 0 1 0-15 0v15c0 20.678-16.822 37.5-37.5 37.5H362V170zm-15 47.5v227H165v-227h182zm-234.5-180c20.678 0 37.5 16.822 37.5 37.5v2.5h-15.14a29.95 29.95 0 0 0-44.722 0H75V75c0-20.678 16.822-37.5 37.5-37.5zM75 105V92.5h18.8a7.5 7.5 0 0 0 6.232-3.327c2.797-4.178 7.462-6.673 12.477-6.673s9.68 2.495 12.477 6.673a7.5 7.5 0 0 0 6.232 3.327H150V105c0 20.678-16.822 37.5-37.5 37.5S75 125.678 75 105zm12.5 52.5h50c6.893 0 12.5 5.607 12.5 12.5v39.7c-.004.104-.016.205-.016.3s.01.206.016.3v22.2h-7.5c-20.678 0-37.5-16.822-37.5-37.5v-15a7.5 7.5 0 1 0-15 0v15c0 28.95 23.552 52.5 52.5 52.5h7.5v15H75V170c0-6.893 5.607-12.5 12.5-12.5zm-11.745 120H150v30h-37.5c-18.1 0-33.26-12.904-36.745-30zm29.245 75h15v62h-15v-62zm30 62V345a7.5 7.5 0 0 0-7.5-7.5H45v-15h105v92h-15zm30 60v-15h182v15H165zm197-152h105v15h-82.5a7.5 7.5 0 0 0-7.5 7.5v69.5h-15v-92zm127.5 152a7.51 7.51 0 0 1-7.5-7.5 7.51 7.51 0 0 1 7.5-7.5 7.51 7.51 0 0 1 7.5 7.5 7.51 7.51 0 0 1-7.5 7.5zm-302-197h137a7.5 7.5 0 1 0 0-15h-137a7.5 7.5 0 1 0 0 15z"/></svg>